<?xml version="1.0" encoding="UTF-8"?>
<svg version="1.1" xmlns="http://www.w3.org/2000/svg" width="500" height="500">
<path d="M0 0 C1.14009521 0.00563965 2.28019043 0.0112793 3.45483398 0.01708984 C33.80047805 0.45020085 59.37908773 12.35183215 80.90917969 33.78955078 C98.79871157 52.37630959 109.02665889 76.67732025 110.0625 102.4375 C110.10012451 103.34910889 110.13774902 104.26071777 110.17651367 105.19995117 C110.66260121 119.18384495 109.16023036 131.87493222 105.375 145.3125 C105.03792423 146.64489214 104.70371124 147.97801965 104.375 149.3125 C105.22094727 149.33231934 106.06689453 149.35213867 106.93847656 149.37255859 C110.13693702 149.45158144 113.3350797 149.53829336 116.53320312 149.62988281 C117.90617098 149.66770032 119.27922215 149.70262652 120.65234375 149.734375 C141.75750564 150.228063 156.1996421 153.48040985 171.1875 169.0625 C179.38591219 178.93606853 182.69928523 191.35998577 182.63569641 203.95150757 C182.63952196 204.77223019 182.64334751 205.59295282 182.64728898 206.43854582 C182.6575298 209.16271078 182.65364394 211.88666144 182.6496582 214.61083984 C182.65400962 216.57459201 182.6591942 218.53834248 182.66514587 220.50209045 C182.67850085 225.81826148 182.67911844 231.13436126 182.67658257 236.45054579 C182.67551049 240.89621856 182.68040231 245.34187705 182.685188 249.78754675 C182.69627107 260.27959939 182.69672733 270.77161622 182.69067383 281.26367188 C182.68463433 292.07059994 182.69694726 302.87739779 182.7182439 313.68430364 C182.73588355 322.97885604 182.74185752 332.27336708 182.73860615 341.56793559 C182.73679693 347.11205184 182.73939344 352.65607521 182.75332069 358.20017624 C182.76593288 363.41560787 182.76392286 368.63083712 182.75090981 373.84626579 C182.74855186 375.75414665 182.7512505 377.6620419 182.75953293 379.56990623 C182.8297422 397.00761029 180.21669812 414.16136337 167.375 427.3125 C166.715 427.3125 166.055 427.3125 165.375 427.3125 C165.375 427.9725 165.375 428.6325 165.375 429.3125 C155.85108844 437.95845578 143.66254499 443.40052276 130.78431702 443.47071838 C129.79109229 443.47812535 129.79109229 443.47812535 128.77780241 443.48568195 C126.55637921 443.50104515 124.33498501 443.50941787 122.11352539 443.51782227 C120.51687878 443.52740946 118.92023466 443.53742003 117.32359314 443.54782104 C112.95877421 443.57497603 108.59394461 443.59597699 104.22908711 443.61582303 C99.57364064 443.6379198 94.91822451 443.66525724 90.26280212 443.69187927 C82.35758937 443.73630961 74.45236419 443.77695651 66.54711914 443.81518555 C58.61903866 443.85354535 50.69098366 443.89493661 42.76293945 443.94018555 C1.05669217 444.17806179 -40.6490682 444.35348148 -82.35605931 444.35894275 C-85.03252829 444.35936654 -87.70899679 444.36026257 -90.38546562 444.36122322 C-111.36321057 444.36706775 -132.33645705 444.2881246 -153.3125 444 C-154.36022237 443.98574793 -155.40794474 443.97149586 -156.48741627 443.9568119 C-175.70097962 443.67996957 -175.70097962 443.67996957 -183.625 440.3125 C-184.99978516 439.78269531 -184.99978516 439.78269531 -186.40234375 439.2421875 C-199.68184251 432.75852626 -211.47171779 421.7393398 -216.84254479 407.71282601 C-219.44117983 399.74103258 -219.91757616 391.61747399 -219.87896729 383.29595947 C-219.88208727 382.24358778 -219.88520725 381.19121608 -219.88842177 380.10695434 C-219.89634459 376.61063248 -219.89010042 373.11448695 -219.88378906 369.61816406 C-219.88650153 367.09903869 -219.89006389 364.5799141 -219.89440918 362.06079102 C-219.90256347 355.94579161 -219.90139539 349.83085655 -219.8955839 343.71585634 C-219.89105289 338.74055694 -219.89046071 333.76527128 -219.89263153 328.7899704 C-219.892938 328.07974843 -219.89324446 327.36952646 -219.89356022 326.63778262 C-219.89419972 325.19457946 -219.89484815 323.7513763 -219.8955054 322.30817315 C-219.90119959 308.79537311 -219.89466598 295.28260026 -219.88390467 281.76980469 C-219.87497772 270.20296813 -219.8765159 258.63617176 -219.88574219 247.06933594 C-219.89647431 233.60853596 -219.90064225 220.14775982 -219.89451766 206.68695617 C-219.89388063 205.24806834 -219.89325189 203.8091805 -219.89263153 202.37029266 C-219.89232298 201.66250776 -219.89201443 200.95472286 -219.89169653 200.22548993 C-219.88997781 195.2645811 -219.89286698 190.30368753 -219.89759064 185.34278107 C-219.90382528 178.64831078 -219.89930985 171.95392737 -219.88780212 165.25946045 C-219.88517189 162.81144078 -219.88589242 160.36341471 -219.89032745 157.91539764 C-219.96281962 113.81322808 -219.96281962 113.81322808 -204.625 97.3125 C-203.9340625 96.54292969 -203.243125 95.77335937 -202.53125 94.98046875 C-191.13931199 82.88656273 -176.65201941 76.95996663 -160.16564941 76.14056396 C-156.40559432 76.08290851 -152.65099175 76.08719562 -148.890625 76.1171875 C-147.51772266 76.12092903 -146.14481761 76.12377059 -144.77191162 76.12576294 C-141.20125637 76.13330987 -137.63077022 76.15287856 -134.06018066 76.1751709 C-130.3995187 76.19582488 -126.73882875 76.20480596 -123.078125 76.21484375 C-115.92701519 76.2361353 -108.77601878 76.27015958 -101.625 76.3125 C-101.47949707 75.21776367 -101.33399414 74.12302734 -101.18408203 72.99511719 C-99.03846788 58.86217224 -89.50035874 46.99684905 -80.625 36.3125 C-79.94630859 35.44818359 -79.94630859 35.44818359 -79.25390625 34.56640625 C-76.17818273 30.68393558 -72.66910974 27.18514218 -68.625 24.3125 C-67.965 24.3125 -67.305 24.3125 -66.625 24.3125 C-66.625 23.6525 -66.625 22.9925 -66.625 22.3125 C-64.63435935 20.80648373 -62.66799739 19.45456819 -60.5625 18.125 C-59.9334375 17.72643799 -59.304375 17.32787598 -58.65625 16.91723633 C-40.72572633 5.81051963 -21.15782957 -0.11033659 0 0 Z M-50.625 49.3125 C-50.625 49.9725 -50.625 50.6325 -50.625 51.3125 C-51.19476563 51.53808594 -51.76453125 51.76367188 -52.3515625 51.99609375 C-57.18015565 54.79203171 -60.26590218 59.95506892 -63.625 64.3125 C-64.17671875 64.98023438 -64.7284375 65.64796875 -65.296875 66.3359375 C-77.40983286 82.29117769 -79.53963862 105.02554285 -77.12890625 124.2734375 C-75.35246625 133.20581941 -72.71335171 142.67997243 -67.625 150.3125 C-64.71435621 150.73039089 -64.71435621 150.73039089 -61.3046875 150.60546875 C-60.04785156 150.59580078 -58.79101562 150.58613281 -57.49609375 150.57617188 C-56.17738281 150.55103516 -54.85867187 150.52589844 -53.5 150.5 C-52.16017097 150.48495483 -50.82032596 150.47126613 -49.48046875 150.45898438 C-46.19491158 150.42352872 -42.91015418 150.37410849 -39.625 150.3125 C-40.0269458 149.71864502 -40.4288916 149.12479004 -40.84301758 148.51293945 C-51.37481224 132.8546412 -55.77772187 117.77621876 -53.15625 98.9453125 C-50.66672493 87.53498928 -44.11518293 75.16817267 -34.78125 67.87109375 C-33.41044244 66.99494081 -32.02004305 66.14952583 -30.625 65.3125 C-30.625 64.6525 -30.625 63.9925 -30.625 63.3125 C-29.89796875 63.02375 -29.1709375 62.735 -28.421875 62.4375 C-26.69717984 61.74376787 -24.9772227 61.03794538 -23.265625 60.3125 C-7.81939403 53.85133149 8.59244659 53.07182107 24.34765625 59.53125 C38.08696795 66.48786352 48.27071755 77.65674444 53.375 92.11328125 C58.49092961 108.48025917 56.83376412 124.63660948 48.9140625 139.90625 C46.60607831 143.51467199 43.94503893 146.88578143 41.375 150.3125 C50.615 150.3125 59.855 150.3125 69.375 150.3125 C79.7734596 129.5155808 84.35600847 108.61754746 76.875 85.9375 C69.61023522 65.60776796 55.5939366 48.64759852 36.375 38.5 C7.58778551 25.14273248 -26.31064419 27.68675084 -50.625 49.3125 Z M-177.625 110.3125 C-177.625 110.9725 -177.625 111.6325 -177.625 112.3125 C-178.285 112.3125 -178.945 112.3125 -179.625 112.3125 C-179.625 112.9725 -179.625 113.6325 -179.625 114.3125 C-180.285 114.3125 -180.945 114.3125 -181.625 114.3125 C-187.15385745 121.6894435 -191.84447417 130.90512781 -190.625 140.3125 C-189.10858337 144.66317152 -187.71330347 146.75878971 -183.52476501 148.8898468 C-179.59915458 150.51153739 -175.87825104 150.71752985 -171.67016602 150.65307617 C-170.90836533 150.65351425 -170.14656464 150.65395233 -169.36167908 150.65440369 C-166.86715215 150.65232929 -164.37331439 150.62906311 -161.87890625 150.60546875 C-160.14013537 150.59986798 -158.40135972 150.59560015 -156.6625824 150.59260559 C-152.1037572 150.5811947 -147.54522234 150.55176017 -142.98651123 150.51849365 C-138.32763597 150.48771149 -133.66871344 150.4740829 -129.00976562 150.45898438 C-119.88138341 150.4268866 -110.75321592 150.37573604 -101.625 150.3125 C-101.90214844 149.14332031 -102.17929688 147.97414062 -102.46484375 146.76953125 C-102.83077401 145.22136477 -103.19665693 143.67318709 -103.5625 142.125 C-103.83610352 140.97161133 -103.83610352 140.97161133 -104.11523438 139.79492188 C-105.45903208 134.10210614 -106.71196684 128.66006217 -106.94140625 122.79296875 C-106.98330078 121.77138672 -107.02519531 120.74980469 -107.06835938 119.69726562 C-107.10767578 118.64216797 -107.14699219 117.58707031 -107.1875 116.5 C-107.23068359 115.42556641 -107.27386719 114.35113281 -107.31835938 113.24414062 C-107.42410983 110.60037918 -107.52620233 107.9565289 -107.625 105.3125 C-114.97983269 105.19583809 -122.3344608 105.107401 -129.69003677 105.05343914 C-133.10684507 105.02751907 -136.52301316 104.99245278 -139.93945312 104.93530273 C-143.88142815 104.86978615 -147.82315833 104.84617413 -151.765625 104.82421875 C-152.97236877 104.79841232 -154.17911255 104.7726059 -155.42242432 104.74601746 C-163.81763442 104.74328497 -170.1349258 106.54046442 -177.625 110.3125 Z M-190.625 177.3125 C-190.71846301 205.31993259 -190.78898896 233.32734179 -190.83224869 261.33489895 C-190.85286928 274.33944857 -190.88098046 287.34390126 -190.92675781 300.34838867 C-190.96664073 311.68378819 -190.99243647 323.0191175 -191.00135398 334.35458523 C-191.0065662 340.35601528 -191.01880676 346.3572445 -191.04792023 352.35861015 C-191.07511207 358.00975445 -191.08343725 363.66061557 -191.07743073 369.31181908 C-191.07852926 371.38341563 -191.08646048 373.45502185 -191.1018219 375.52656174 C-191.12180862 378.36139065 -191.11690744 381.1951591 -191.10601807 384.03001404 C-191.11766943 384.8442433 -191.1293208 385.65847256 -191.14132524 386.49737543 C-191.06695447 393.69085301 -188.69993777 401.00688324 -183.625 406.3125 C-182.965 406.3125 -182.305 406.3125 -181.625 406.3125 C-181.625 406.9725 -181.625 407.6325 -181.625 408.3125 C-173.77974304 414.28983863 -166.97269297 414.60542723 -157.45425415 414.57992554 C-155.59905657 414.58672221 -155.59905657 414.58672221 -153.70638025 414.59365618 C-150.28063472 414.60411846 -146.85509931 414.60562741 -143.42935276 414.60326743 C-139.73191389 414.60285891 -136.03450621 414.61390167 -132.33708191 414.62338257 C-125.09612144 414.63998539 -117.85519354 414.64549177 -110.61421563 414.64660732 C-104.72817126 414.64755805 -98.84213762 414.65166957 -92.95609665 414.65800858 C-76.26479429 414.67561831 -59.57351763 414.68484776 -42.88220592 414.68334763 C-41.98264047 414.68326772 -41.08307501 414.6831878 -40.15625 414.68310547 C-39.25558522 414.68302371 -38.35492043 414.68294195 -37.42696278 414.68285771 C-22.82805442 414.68204468 -8.22924921 414.70118732 6.36962931 414.7293822 C21.36286978 414.75811007 36.35605994 414.77192258 51.34932864 414.77019465 C59.76565891 414.76953076 68.18188102 414.77502275 76.59818649 414.79655075 C83.76334399 414.81476119 90.92834429 414.81911099 98.0935149 414.8055319 C101.74823866 414.79900176 105.40266082 414.79888642 109.05735588 414.8162384 C113.02180586 414.8348673 116.98581545 414.82241585 120.95028687 414.80697632 C122.67762969 414.82240701 122.67762969 414.82240701 124.43986833 414.83814943 C132.70716152 414.76693149 137.60468991 412.82604006 144.375 408.3125 C144.375 407.6525 144.375 406.9925 144.375 406.3125 C145.035 406.3125 145.695 406.3125 146.375 406.3125 C146.375 405.6525 146.375 404.9925 146.375 404.3125 C147.035 404.3125 147.695 404.3125 148.375 404.3125 C149.02257625 402.87578432 149.66799453 401.43809584 150.3125 400 C150.67214844 399.19949219 151.03179687 398.39898437 151.40234375 397.57421875 C153.31552351 393.12549956 153.50643267 389.34766973 153.47265625 384.58203125 C153.4712413 383.83161057 153.46982635 383.08118988 153.46836853 382.30802917 C153.4627756 379.9136454 153.45022444 377.51935547 153.4375 375.125 C153.43248408 373.50065239 153.42792134 371.87630332 153.42382812 370.25195312 C153.41280848 366.27209931 153.39554873 362.29231556 153.375 358.3125 C152.54165131 358.30663376 151.70830261 358.30076752 150.84970093 358.29472351 C142.93659531 358.23644732 135.02376154 358.16417591 127.11092186 358.07678509 C123.04434627 358.03235057 118.97786468 357.99303804 114.91113281 357.96606445 C110.97516928 357.93975917 107.03957295 357.89917287 103.10383987 357.84931374 C101.61385343 357.83282661 100.12380375 357.82120081 98.63373947 357.81488609 C80.11075616 357.72856603 64.30773331 354.22264738 50.375 341.3125 C37.5296425 327.53800272 33.96365455 312.60062774 34.21875 294.21875 C34.41246754 289.37581162 35.100159 284.97635933 36.375 280.3125 C36.59285156 279.46042969 36.81070313 278.60835938 37.03515625 277.73046875 C38.50489519 272.37355143 40.50942031 268.05552845 43.375 263.3125 C43.375 262.6525 43.375 261.9925 43.375 261.3125 C44.035 261.3125 44.695 261.3125 45.375 261.3125 C46.78351201 259.61925032 46.78351201 259.61925032 48.1875 257.5 C50.59741295 254.14270113 52.68603579 252.26548105 56.375 250.3125 C56.375 249.6525 56.375 248.9925 56.375 248.3125 C57.15875 248.085625 57.9425 247.85875 58.75 247.625 C62.5669125 246.24301444 65.96820485 244.4823975 69.51953125 242.53125 C78.67297698 238.62444416 88.25086905 238.97088704 98.00390625 238.8984375 C99.60531074 238.87969871 101.20670565 238.86012334 102.80809021 238.8397522 C106.99515087 238.78871097 111.18224343 238.74893654 115.3694458 238.71160889 C119.65327669 238.67139229 123.93697806 238.62038106 128.22070312 238.5703125 C136.60537982 238.47388546 144.99012134 238.38937587 153.375 238.3125 C153.47468046 233.08387669 153.54684747 227.85581956 153.59472656 222.62646484 C153.61470839 220.85162711 153.64190355 219.07685406 153.67675781 217.30224609 C154.13835424 201.33238792 154.13835424 201.33238792 147 187.4375 C140.41544513 182.10714606 135.919895 180.17088988 127.53234863 180.10618591 C126.72337647 180.09618999 125.91440431 180.08619408 125.08091784 180.07589525 C122.35671039 180.04366919 119.63248797 180.01865892 116.90820312 179.99389648 C114.95596517 179.97297244 113.00373031 179.95175869 111.05149841 179.93027687 C105.7105985 179.8733419 100.36965363 179.82377751 95.02866173 179.77633977 C91.64434422 179.74598697 88.26004613 179.71395062 84.87574768 179.68154716 C49.44809136 179.34623288 14.02282767 179.24288507 -21.40625 179.28515625 C-23.12600225 179.28708583 -23.12600225 179.28708583 -24.88049698 179.28905439 C-45.91314497 179.31299603 -66.945766 179.3510571 -87.97837019 179.39999622 C-99.81043343 179.42748321 -111.64247563 179.44924068 -123.47456694 179.46000665 C-130.07523305 179.46645547 -136.67579363 179.48178292 -143.27642345 179.50432408 C-147.33266059 179.51609028 -151.38887285 179.51942265 -155.44512558 179.52042198 C-157.30709946 179.52255467 -159.16907334 179.52809469 -161.03102493 179.5374527 C-171.11697166 179.58618881 -180.69501205 179.28596017 -190.625 177.3125 Z M68.58203125 275.66796875 C62.64834006 282.77789607 60.46614106 290.76904102 60.90625 299.9453125 C62.36843931 310.44870568 65.67716791 317.82617708 73.875 324.640625 C82.84191737 330.63725099 93.80595064 329.450277 104.15625 329.41015625 C105.57971141 329.40828803 107.00317346 329.40686603 108.42663574 329.40586853 C112.14853737 329.40207518 115.87039913 329.39227257 119.59228516 329.38116455 C124.07113827 329.36906925 128.55000481 329.36453302 133.02886963 329.35871124 C139.8109407 329.34905871 146.59292453 329.32988003 153.375 329.3125 C153.375 308.5225 153.375 287.7325 153.375 266.3125 C141.71095902 266.22510286 141.71095902 266.22510286 130.046875 266.16601562 C125.2827744 266.14814908 120.51884835 266.12711573 115.75488281 266.08618164 C111.9098915 266.05335417 108.06508764 266.03559824 104.21996689 266.02786827 C102.76009042 266.02236639 101.30022308 266.01162365 99.8404274 265.99530983 C87.41322611 265.86207608 77.78603088 266.69588092 68.58203125 275.66796875 Z " fill="#070707" transform="translate(252.625,27.6875)"/>
<path d="M0 0 C2.15591365 1.76392935 3.08209541 3.10279698 4.0625 5.6875 C4.7225 5.6875 5.3825 5.6875 6.0625 5.6875 C8.34735275 10.92922102 8.39735411 15.2204872 7.0625 20.6875 C4.61556226 25.67548846 1.33815336 28.85653795 -3.9375 30.6875 C-9.5946412 31.56465256 -14.13278093 30.96344482 -18.9375 27.6875 C-22.85638811 23.80047277 -24.77691067 20.58245408 -25.25 15 C-25.17108418 10.2387454 -23.72580186 6.53313956 -20.9375 2.6875 C-14.18292477 -2.68859049 -7.87723927 -3.51961755 0 0 Z " fill="#121212" transform="translate(357.9375,311.3125)"/>
<path d="M0 0 C0.66 0.33 1.32 0.66 2 1 C-1.3 4.3 -4.6 7.6 -8 11 C-8.66 10.67 -9.32 10.34 -10 10 C-8.90033225 8.70450101 -7.79508199 7.41373929 -6.6875 6.125 C-6.07261719 5.40570313 -5.45773438 4.68640625 -4.82421875 3.9453125 C-3 2 -3 2 0 0 Z " fill="#363636" transform="translate(220,93)"/>
<path d="M0 0 C0.33 1.32 0.66 2.64 1 4 C-0.1196986 5.00593243 -1.2459412 6.0045849 -2.375 7 C-3.00148438 7.556875 -3.62796875 8.11375 -4.2734375 8.6875 C-6 10 -6 10 -8 10 C-6.34908222 5.70761377 -3.26245434 3.1206085 0 0 Z " fill="#424141" transform="translate(53,120)"/>
<path d="M0 0 C8.57142857 -0.28571429 8.57142857 -0.28571429 12 2 C7.31034294 3.11658501 4.46236469 2.80619523 0 1 C0 0.67 0 0.34 0 0 Z " fill="#4C4C4C" transform="translate(387,179)"/>
</svg>
