<?xml version="1.0" encoding="UTF-8"?>
<svg version="1.1" xmlns="http://www.w3.org/2000/svg" width="499" height="500">
<path d="M0 0 C0.71816895 0.00176239 1.43633789 0.00352478 2.17626953 0.00534058 C14.61433987 0.07306616 26.13239744 1.43478423 37.9375 5.5 C39.07227783 5.88551025 39.07227783 5.88551025 40.22998047 6.27880859 C54.90753222 11.43065772 68.70582222 19.65799268 79.9375 30.5 C79.9375 31.16 79.9375 31.82 79.9375 32.5 C80.9275 32.83 81.9175 33.16 82.9375 33.5 C82.9375 34.16 82.9375 34.82 82.9375 35.5 C83.49953125 35.71140625 84.0615625 35.9228125 84.640625 36.140625 C87.71127295 37.95794726 89.57913348 40.44063046 91.6875 43.25 C92.12288086 43.82564697 92.55826172 44.40129395 93.00683594 44.99438477 C112.00233471 70.66050884 119.32817651 100.44074356 116.0625 131.9375 C115.94503418 133.09282227 115.94503418 133.09282227 115.82519531 134.27148438 C115.35755821 138.35300665 114.60838773 141.71265449 112.9375 145.5 C112.54832644 147.05415064 112.19228056 148.61709454 111.875 150.1875 C111.39993977 152.52354 111.00526078 154.36447844 109.9375 156.5 C110.53473877 156.48952637 111.13197754 156.47905273 111.74731445 156.46826172 C149.49377742 155.89804075 149.49377742 155.89804075 163.9375 163.5 C164.63230469 163.84289062 165.32710938 164.18578125 166.04296875 164.5390625 C170.03659073 166.63379813 172.91920784 169.17987863 175.9375 172.5 C176.494375 173.0878125 177.05125 173.675625 177.625 174.28125 C181.94561314 178.97432979 185.12559495 183.78314892 187.9375 189.5 C188.246875 190.12003906 188.55625 190.74007812 188.875 191.37890625 C192.00489272 198.10516609 192.08494859 205.00177466 192.06448364 212.26708984 C192.06604363 213.12567785 192.06760362 213.98426586 192.06921089 214.86887169 C192.07318517 217.73291132 192.07004511 220.59689752 192.06689453 223.4609375 C192.06825015 225.51955191 192.070031 227.57816608 192.07220459 229.63677979 C192.07675973 235.21930792 192.07499723 240.80181755 192.0718255 246.38434601 C192.06929201 252.22937571 192.07164221 258.07440383 192.07321167 263.91943359 C192.07503047 273.73470341 192.07263464 283.5499657 192.06787109 293.36523438 C192.06242903 304.70951885 192.06419189 316.05378535 192.0696975 327.39806938 C192.07423686 337.14176525 192.07487513 346.88545571 192.07225883 356.6291523 C192.0707006 362.44700541 192.07048989 368.26485007 192.07379532 374.08270264 C192.07668597 379.5524759 192.07467634 385.022226 192.06890106 390.49199677 C192.06757988 392.49830843 192.06795669 394.50462204 192.07016373 396.51093292 C192.07290043 399.25161822 192.06946326 401.99222955 192.06448364 404.73291016 C192.06671436 405.52484457 192.06894509 406.31677898 192.07124341 407.13271141 C192.01423406 423.33502497 185.14452641 437.19766754 174 448.875 C159.87019376 462.20134667 143.8294503 464.65418359 125.04222107 464.64044189 C123.76358486 464.64341302 122.48494865 464.64638414 121.16756588 464.6494453 C117.63869159 464.65746262 114.1098377 464.6593019 110.58095539 464.66004276 C106.7668605 464.66190255 102.95277597 464.66945446 99.13868713 464.67617798 C90.8078344 464.68972419 82.47698651 464.69578018 74.1461246 464.70018864 C68.93790571 464.70295728 63.72968867 464.70719574 58.52147102 464.71169281 C44.08290314 464.72388049 29.64433673 464.73418088 15.20576382 464.7375679 C14.28277497 464.73778747 13.35978611 464.73800703 12.4088279 464.73823325 C11.02115778 464.73856067 11.02115778 464.73856067 9.60545391 464.7388947 C7.73102852 464.73933816 5.85660312 464.73978472 3.98217773 464.74023438 C3.05241118 464.7404558 2.12264462 464.74067723 1.16470332 464.74090537 C-13.8909445 464.74485095 -28.94654385 464.76229988 -44.00217295 464.7855939 C-59.48370695 464.80935225 -74.96521667 464.82177178 -90.44676918 464.82293582 C-99.12933523 464.82385005 -107.81183811 464.82953856 -116.49438667 464.84775543 C-123.88941804 464.86321705 -131.2843667 464.86824133 -138.67941118 464.86001733 C-142.44648893 464.8561322 -146.21340042 464.85693469 -149.98045731 464.87107468 C-173.69253505 464.95475667 -195.05961668 464.81220958 -214.0625 448.5 C-214.0625 447.84 -214.0625 447.18 -214.0625 446.5 C-214.7225 446.5 -215.3825 446.5 -216.0625 446.5 C-216.0625 445.84 -216.0625 445.18 -216.0625 444.5 C-217.0525 444.17 -218.0425 443.84 -219.0625 443.5 C-220.9296875 441.3046875 -220.9296875 441.3046875 -222.9375 438.375 C-223.59492188 437.44429688 -224.25234375 436.51359375 -224.9296875 435.5546875 C-233.29548863 420.70938053 -232.7783273 405.77956042 -232.70947266 389.18017578 C-232.71350975 386.42723564 -232.72498592 383.67433701 -232.73602295 380.92141724 C-232.75813683 374.25009191 -232.75350712 367.57904949 -232.73895974 360.90771355 C-232.72761855 355.47960906 -232.72615757 350.05158327 -232.73157883 344.62347031 C-232.73234499 343.84775907 -232.73311116 343.07204784 -232.73390054 342.27283021 C-232.73549935 340.69643663 -232.73712042 339.12004307 -232.7387635 337.54364954 C-232.75298678 322.79652217 -232.73668319 308.04955075 -232.70976166 293.30244897 C-232.68743484 280.68218607 -232.69129976 268.06215327 -232.71435547 255.44189453 C-232.74118952 240.74680549 -232.75160452 226.05185287 -232.73629415 211.35674274 C-232.7347016 209.78588226 -232.73312974 208.21502175 -232.73157883 206.64416122 C-232.73080745 205.87149905 -232.73003607 205.09883688 -232.72924132 204.3027607 C-232.72494639 198.88986758 -232.73216307 193.47706186 -232.74397659 188.06418228 C-232.75808542 181.45499303 -232.75402792 174.84610018 -232.72757287 168.23694433 C-232.71454418 164.87251206 -232.71183946 161.50897403 -232.72581863 158.14448547 C-232.79280437 140.37469416 -232.2795831 123.76040922 -222.0625 108.5 C-221.4025 108.5 -220.7425 108.5 -220.0625 108.5 C-219.85625 107.819375 -219.65 107.13875 -219.4375 106.4375 C-216.32026224 99.7779466 -211.18264708 95.38393949 -205.0625 91.5 C-204.4025 91.5 -203.7425 91.5 -203.0625 91.5 C-203.0625 90.84 -203.0625 90.18 -203.0625 89.5 C-202.0725 89.5 -201.0825 89.5 -200.0625 89.5 C-200.0625 88.84 -200.0625 88.18 -200.0625 87.5 C-181.77838315 78.19172233 -162.68943016 78.98485477 -142.76367188 79.2253418 C-138.95516926 79.26682786 -135.14655577 79.28464869 -131.33789062 79.3046875 C-123.91246361 79.34712968 -116.48757588 79.41507211 -109.0625 79.5 C-108.62006958 77.88496582 -108.62006958 77.88496582 -108.16870117 76.23730469 C-107.36789968 73.53179394 -106.60569271 71.20295549 -105.36328125 68.703125 C-105.04512451 68.06020508 -104.72696777 67.41728516 -104.39916992 66.75488281 C-104.06119385 66.09327148 -103.72321777 65.43166016 -103.375 64.75 C-103.01833252 64.0497168 -102.66166504 63.34943359 -102.29418945 62.62792969 C-96.55441025 51.51308509 -89.72080512 42.46577334 -81.0625 33.5 C-79.94875 32.29150391 -79.94875 32.29150391 -78.8125 31.05859375 C-58.63453437 9.73078082 -28.82913587 -0.19039214 0 0 Z M-64.8125 65.1875 C-78.77893217 84.6643245 -85.00616866 106.89752409 -81.23901367 130.734375 C-79.62983106 139.6447785 -77.48934817 150.76122038 -71.0625 157.5 C-68.39428254 158.08379553 -68.39428254 158.08379553 -65.37109375 157.9609375 C-64.26185547 157.95707031 -63.15261719 157.95320313 -62.00976562 157.94921875 C-60.85154297 157.92472656 -59.69332031 157.90023437 -58.5 157.875 C-57.33791016 157.87371094 -56.17582031 157.87242187 -54.97851562 157.87109375 C-48.94566526 158.23654565 -48.94566526 158.23654565 -44.0625 155.5 C-44.619375 154.860625 -45.17625 154.22125 -45.75 153.5625 C-55.65145002 140.44976889 -59.43763013 125.81481545 -58.0625 109.5 C-55.40454878 92.73103834 -48.04864833 77.67703101 -34.0625 67.5 C-33.37027344 66.98695312 -32.67804688 66.47390625 -31.96484375 65.9453125 C-18.8599121 57.15035003 -2.7532102 55.95401537 12.51171875 57.97265625 C27.04397609 60.84471184 40.22907714 69.534627 48.9375 81.5 C55.3045094 92.38758607 59.52497731 103.00311925 59.375 115.75 C59.36364014 117.11862183 59.36364014 117.11862183 59.35205078 118.51489258 C59.0874793 129.47143505 56.58817553 138.87302276 50.5 148.12109375 C48.50455055 151.15916554 46.74086088 154.34411846 44.9375 157.5 C54.1775 157.17 63.4175 156.84 72.9375 156.5 C83.06036561 136.25426878 86.98152166 114.93575506 80.27075195 92.80078125 C76.08651971 80.3821493 69.56206979 70.32422799 60.9375 60.5 C60.02097656 59.28183594 60.02097656 59.28183594 59.0859375 58.0390625 C56.44603695 54.91918004 53.52947777 52.50214222 50.3125 50 C49.38425415 49.27490234 49.38425415 49.27490234 48.43725586 48.53515625 C43.56063602 44.8090577 38.60402749 41.88198857 32.9375 39.5 C31.88949219 39.00886719 30.84148437 38.51773438 29.76171875 38.01171875 C-3.97019519 23.62052228 -42.81869649 37.37403027 -64.8125 65.1875 Z M-184.875 114.3125 C-185.61234375 114.85003906 -186.3496875 115.38757813 -187.109375 115.94140625 C-189.27776876 117.67178447 -191.2975782 119.35139954 -193.0625 121.5 C-193.0625 122.16 -193.0625 122.82 -193.0625 123.5 C-193.7225 123.5 -194.3825 123.5 -195.0625 123.5 C-199.28612834 131.41735497 -202.56333913 139.60590154 -200.58203125 148.70703125 C-199.19448863 152.34837237 -197.53277422 154.76486289 -194.0625 156.5 C-185.62696254 158.97106202 -177.27633647 158.77372593 -168.57421875 158.73046875 C-166.982407 158.72927454 -165.39059453 158.7288243 -163.79878235 158.7290802 C-160.47966027 158.72752395 -157.16064737 158.71929709 -153.84155273 158.70581055 C-149.59021191 158.68875248 -145.33898988 158.6849987 -141.08761883 158.68575573 C-137.80795664 158.68548384 -134.52832034 158.68000061 -131.24866676 158.67275429 C-129.68059294 158.66957722 -128.11251619 158.66760246 -126.54443932 158.66686058 C-124.35729338 158.66469073 -122.17027316 158.65593457 -119.9831543 158.64526367 C-118.11858833 158.63954597 -118.11858833 158.63954597 -116.21635437 158.63371277 C-113.62736662 158.52394844 -111.51880996 158.26930504 -109.0625 157.5 C-109.72014558 152.59927573 -110.56829764 147.7842365 -111.5625 142.9375 C-113.16602033 135.1043032 -114.25844191 127.60514984 -114.625 119.625 C-114.66818359 118.74585938 -114.71136719 117.86671875 -114.75585938 116.9609375 C-114.86119339 114.80744203 -114.96227649 112.65373936 -115.0625 110.5 C-122.87295838 110.4745535 -130.68340599 110.45709264 -138.49389648 110.44506836 C-141.14853876 110.44062037 -143.80312652 110.43323958 -146.45776367 110.42456055 C-150.28304727 110.41237126 -154.10829421 110.40674336 -157.93359375 110.40234375 C-159.11207382 110.39718246 -160.29055389 110.39202118 -161.50474548 110.38670349 C-173.80979958 109.93407469 -173.80979958 109.93407469 -184.875 114.3125 Z M69.9375 289.5 C69.9375 290.16 69.9375 290.82 69.9375 291.5 C69.2775 291.5 68.6175 291.5 67.9375 291.5 C67.28392722 292.72506898 66.64001767 293.95529516 66 295.1875 C65.64035156 295.87199219 65.28070313 296.55648438 64.91015625 297.26171875 C61.09661927 306.03744842 61.901572 317.54251675 65.03515625 326.39453125 C68.31415148 334.04552011 73.95373724 339.75351193 81.54223633 343.08032227 C88.72596035 345.39422416 96.28942897 344.88986292 103.75 344.828125 C105.37141748 344.82506284 106.99283761 344.8231902 108.61425781 344.82244873 C111.99310551 344.81786988 115.37171164 344.80352892 118.75048828 344.78125 C123.08956802 344.75278762 127.42845964 344.74201776 131.7676239 344.7375679 C135.10636281 344.73342352 138.44506349 344.72361726 141.78378296 344.71169281 C143.38503717 344.7059853 144.98629506 344.70122819 146.58755493 344.69742584 C148.81364511 344.69058874 151.03958303 344.67697355 153.265625 344.66113281 C155.16683105 344.65089081 155.16683105 344.65089081 157.10644531 344.64044189 C159.8388595 344.82237501 159.8388595 344.82237501 160.9375 343.5 C161.03155142 341.5056827 161.05493249 339.50800457 161.05102539 337.51147461 C161.05094986 336.23022202 161.05087433 334.94896942 161.05079651 333.62889099 C161.04568909 332.22004152 161.04047309 330.81119244 161.03515625 329.40234375 C161.03329202 327.96887766 161.03186814 326.53541093 161.03086853 325.10194397 C161.02704372 321.32240043 161.01721377 317.5428951 161.00616455 313.7633667 C160.99594963 309.90930702 160.99137074 306.05524118 160.98632812 302.20117188 C160.97559146 294.63409713 160.95851549 287.06705391 160.9375 279.5 C158.29237613 278.17743806 156.29532196 278.36562529 153.33300781 278.35473633 C152.15708069 278.34835648 150.98115356 278.34197662 149.76959229 278.33540344 C148.48953308 278.33429062 147.20947388 278.3331778 145.890625 278.33203125 C144.57269958 278.32870285 143.25477417 278.32537445 141.89691162 278.32194519 C139.0958169 278.31594578 136.29475304 278.31410563 133.49365234 278.31469727 C129.94366797 278.31479782 126.39388845 278.3012612 122.84395218 278.28392506 C120.08629495 278.27266452 117.32868461 278.27078246 114.57100677 278.27130699 C112.63824471 278.26958482 110.7054973 278.25881606 108.77276611 278.24775696 C94.07364054 278.2850164 80.94502243 279.04285369 69.9375 289.5 Z " fill="#EBEBEB" transform="translate(264.0625,11.5)"/>
<path d="M0 0 C2.48733452 1.22792464 4.92338765 2.50971003 7.33984375 3.87109375 C7.33984375 4.53109375 7.33984375 5.19109375 7.33984375 5.87109375 C7.99984375 5.87109375 8.65984375 5.87109375 9.33984375 5.87109375 C11.75658863 11.25781428 12.13945743 16.03717764 11.33984375 21.87109375 C9.70265516 26.00465669 7.44252709 28.92156087 4.08984375 31.80859375 C-0.89838357 33.7358634 -5.60608325 34.3141291 -10.84765625 33.18359375 C-16.26717011 30.65448728 -20.01404401 28.33254633 -22.66015625 22.87109375 C-23.0234375 19.6796875 -23.0234375 19.6796875 -22.97265625 16.30859375 C-22.96878906 15.19355469 -22.96492188 14.07851563 -22.9609375 12.9296875 C-22.67529935 10.02508135 -22.16922455 8.33009349 -20.66015625 5.87109375 C-20.00015625 5.87109375 -19.34015625 5.87109375 -18.66015625 5.87109375 C-18.33015625 4.88109375 -18.00015625 3.89109375 -17.66015625 2.87109375 C-12.19474864 -1.11465472 -6.4045911 -2.71795423 0 0 Z " fill="#DDDDDD" transform="translate(369.66015625,307.12890625)"/>
<path d="M0 0 C109.23 0 218.46 0 331 0 C331 0.66 331 1.32 331 2 C330.32440859 1.99962028 329.64881718 1.99924056 328.95275331 1.99884933 C288.93714854 1.97648516 248.92154457 1.95932047 208.90593483 1.94893467 C204.10428206 1.94768392 199.30262931 1.9463896 194.50097656 1.94506836 C193.54502908 1.94480605 192.58908159 1.94454374 191.604166 1.94427348 C176.11306891 1.93991878 160.62197552 1.93203232 145.13088062 1.9228472 C129.24288719 1.91350512 113.3548957 1.90794321 97.46689963 1.90591151 C87.65830346 1.90453744 77.84971775 1.90019307 68.04112479 1.89208353 C61.32063946 1.88680925 54.60015957 1.88519727 47.87967232 1.88649862 C43.99875894 1.88714093 40.11786388 1.88613654 36.23695374 1.88079453 C32.03444225 1.8750519 27.83197006 1.87700479 23.62945557 1.87974548 C21.77927743 1.87537622 21.77927743 1.87537622 19.89172196 1.87091869 C18.76907119 1.87290974 17.64642041 1.87490079 16.48974991 1.87695217 C15.51918474 1.87657245 14.54861958 1.87619273 13.54864335 1.8758015 C11.03995393 1.90933622 11.03995393 1.90933622 8.84439063 2.57019049 C7 3 7 3 4 2 C2.66893378 1.65772583 1.33599921 1.32248257 0 1 C0 0.67 0 0.34 0 0 Z " fill="#DFDFDF" transform="translate(73,199)"/>
<path d="M0 0 C1.37862089 0.00186837 2.75724246 0.00329029 4.13586426 0.00428772 C7.739399 0.0080799 11.34289252 0.01788147 14.94641113 0.0289917 C18.63353925 0.03927729 22.32067412 0.04380056 26.0078125 0.04882812 C33.22397917 0.05950716 40.44010353 0.07707668 47.65625 0.09765625 C47.98625 8.67765625 48.31625 17.25765625 48.65625 26.09765625 C48.32625 26.09765625 47.99625 26.09765625 47.65625 26.09765625 C46.54683633 20.76897642 46.54076931 15.6348377 46.59375 10.22265625 C46.59826172 9.34351563 46.60277344 8.464375 46.60742188 7.55859375 C46.61912663 5.40491822 46.63705931 3.25127808 46.65625 1.09765625 C38.84568259 1.21577349 31.03524242 1.34059115 23.22485352 1.4699707 C20.5702529 1.51364121 17.91564673 1.5548503 15.26098633 1.5949707 C11.4356331 1.65305011 7.61040399 1.71663449 3.78515625 1.78125 C2.60667618 1.79796249 1.42819611 1.81467499 0.21400452 1.83189392 C-12.15438565 1.6801192 -12.15438565 1.6801192 -23.34375 6.09765625 C-24.00375 5.76765625 -24.66375 5.43765625 -25.34375 5.09765625 C-24.34375 3.16015625 -24.34375 3.16015625 -22.34375 1.09765625 C-14.9720583 -0.32439347 -7.48006047 -0.02936132 0 0 Z " fill="#434343" transform="translate(102.34375,120.90234375)"/>
<path d="M0 0 C0.99 1.485 0.99 1.485 2 3 C0.68 3 -0.64 3 -2 3 C-2.33 3.99 -2.66 4.98 -3 6 C-3.99 5.505 -3.99 5.505 -5 5 C-5 4.67 -5 4.34 -5 4 C-30.74 3.67 -56.48 3.34 -83 3 C-83 2.67 -83 2.34 -83 2 C-81.97491837 1.98969254 -80.94983673 1.97938507 -79.89369202 1.96876526 C-70.25486762 1.87120331 -60.61611027 1.76848602 -50.97739506 1.66066074 C-46.02149288 1.60538798 -41.06558486 1.55196116 -36.10961914 1.50268555 C-31.3309593 1.45510604 -26.55237358 1.40276582 -21.7738018 1.34705925 C-19.94648511 1.32660653 -18.11914806 1.30789839 -16.29179573 1.29092598 C-13.74141166 1.26694626 -11.19116903 1.23688336 -8.64086914 1.20532227 C-7.87770386 1.1995668 -7.11453857 1.19381134 -6.32824707 1.18788147 C-2.8730815 1.44732933 -2.8730815 1.44732933 0 0 Z " fill="#FBFBFB" transform="translate(158,169)"/>
<path d="M0 0 C0.33 0 0.66 0 1 0 C0.125 7.75 0.125 7.75 -1 10 C-0.35562988 9.99476318 0.28874023 9.98952637 0.95263672 9.98413086 C3.92674753 9.96309641 6.9008426 9.9502568 9.875 9.9375 C10.88820313 9.92912109 11.90140625 9.92074219 12.9453125 9.91210938 C19.36263015 9.89154105 25.62990957 10.21676321 32 11 C32 11.33 32 11.66 32 12 C20.45 12 8.9 12 -3 12 C-2.01 8.04 -1.02 4.08 0 0 Z " fill="#505050" transform="translate(375,158)"/>
<path d="M0 0 C4.26839999 6.40259999 4.33931745 12.84115717 4.3125 20.3125 C4.32861328 21.19873047 4.34472656 22.08496094 4.36132812 22.99804688 C4.36603303 29.44846987 3.16063098 34.93339292 1 41 C0 38 0 38 1 35 C1.09499949 32.94442611 1.13072672 30.88589189 1.1328125 28.828125 C1.13410156 27.60609375 1.13539063 26.3840625 1.13671875 25.125 C1.13285156 23.84625 1.12898438 22.5675 1.125 21.25 C1.12886719 19.98671875 1.13273437 18.7234375 1.13671875 17.421875 C1.13542969 16.1946875 1.13414062 14.9675 1.1328125 13.703125 C1.13168457 12.58583008 1.13055664 11.46853516 1.12939453 10.31738281 C0.99302609 6.82120473 0.55107543 3.45311414 0 0 Z " fill="#656565" transform="translate(320,107)"/>
<path d="M0 0 C0.66 0 1.32 0 2 0 C2.48333272 5.49065966 0.30488511 7.77496827 -3.07421875 11.8515625 C-8.09010233 17.44737583 -13.58109477 21.57462519 -21.2890625 22.1796875 C-23.19363848 22.18641745 -25.09813924 22.1018854 -27 22 C-27 21.67 -27 21.34 -27 21 C-26.23816406 20.85304688 -25.47632813 20.70609375 -24.69140625 20.5546875 C-15.65371457 18.59144361 -8.22639205 15.87093314 -3 7.875 C-1.50494498 5.2898007 -0.62292743 2.91997232 0 0 Z " fill="#FBFBFB" transform="translate(425,425)"/>
<path d="M0 0 C0.5625 1.9375 0.5625 1.9375 1 4 C0 5 0 5 -2.95922852 5.11352539 C-4.25272217 5.10828857 -5.54621582 5.10305176 -6.87890625 5.09765625 C-7.90889992 5.09553383 -7.90889992 5.09553383 -8.95970154 5.09336853 C-11.16067801 5.08775479 -13.36155409 5.07520007 -15.5625 5.0625 C-17.05143083 5.05748676 -18.54036324 5.05292355 -20.02929688 5.04882812 C-23.68623075 5.03778093 -27.34310558 5.02050713 -31 5 C-30.34 3.68 -29.68 2.36 -29 1 C-28.34 1.66 -27.68 2.32 -27 3 C-24.27717531 3.18459347 -24.27717531 3.18459347 -21.1171875 2.9765625 C-19.95058594 2.925 -18.78398437 2.8734375 -17.58203125 2.8203125 C-16.35871094 2.75585938 -15.13539063 2.69140625 -13.875 2.625 C-12.64394531 2.56828125 -11.41289062 2.5115625 -10.14453125 2.453125 C-7.09579194 2.31132317 -4.04783612 2.15988027 -1 2 C-0.67 1.34 -0.34 0.68 0 0 Z " fill="#4F4F4F" transform="translate(338,165)"/>
<path d="M0 0 C-1.12073862 0.83905565 -2.24674547 1.67107831 -3.375 2.5 C-4.31472656 3.19609375 -4.31472656 3.19609375 -5.2734375 3.90625 C-7 5 -7 5 -9 5 C-9.33 5.66 -9.66 6.32 -10 7 C-10.86625 7.268125 -11.7325 7.53625 -12.625 7.8125 C-16.77102181 9.27128545 -19.509263 11.34703988 -23 14 C-23.66 13.67 -24.32 13.34 -25 13 C-6.97379913 -2.32459971 -6.97379913 -2.32459971 0 0 Z " fill="#5F5F5F" transform="translate(219,22)"/>
<path d="M0 0 C1.0209375 0.495 1.0209375 0.495 2.0625 1 C-1.35982972 2.14077657 -4.02423217 2.09815117 -7.625 2.0625 C-9.39423828 2.04896484 -9.39423828 2.04896484 -11.19921875 2.03515625 C-12.10285156 2.02355469 -13.00648438 2.01195312 -13.9375 2 C-14.20304687 2.61359375 -14.46859375 3.2271875 -14.7421875 3.859375 C-16.45895442 6.93384649 -18.97777031 8.19842541 -21.9375 10 C-21.6075 8.68 -21.2775 7.36 -20.9375 6 C-20.2775 6 -19.6175 6 -18.9375 6 C-18.6075 5.01 -18.2775 4.02 -17.9375 3 C-12.35868655 -1.06845176 -6.61468824 -2.25180876 0 0 Z " fill="#363636" transform="translate(369.9375,307)"/>
<path d="M0 0 C0 5.30049345 -2.49639008 10.37795091 -5 15 C-5.66 15 -6.32 15 -7 15 C-7.66 16.98 -8.32 18.96 -9 21 C-10.16480606 18.15950804 -10.03340859 17.08832016 -8.92578125 14.16015625 C-8.39339844 13.13792969 -7.86101562 12.11570312 -7.3125 11.0625 C-6.79300781 10.04285156 -6.27351562 9.02320312 -5.73828125 7.97265625 C-4.04117999 5.07042242 -2.16746223 2.56412198 0 0 Z " fill="#7B7B7B" transform="translate(218,90)"/>
<path d="M0 0 C0.70793701 -0.00918457 1.41587402 -0.01836914 2.14526367 -0.02783203 C7.19695035 0.00141242 11.57727585 0.87229867 16.4375 2.25 C12.72797624 3.32100023 10.24724464 2.93715639 6.4375 2.25 C-1.65150774 1.85065748 -9.19112162 1.56431081 -16.5625 5.25 C-18.23904729 4.97057545 -19.90858154 4.64171753 -21.5625 4.25 C-14.59370653 0.58869129 -7.71380102 0.05527205 0 0 Z " fill="#414141" transform="translate(264.5625,67.75)"/>
<path d="M0 0 C2 3 2 3 2 6 C-9.55 6 -21.1 6 -33 6 C-33 5.67 -33 5.34 -33 5 C-22.11 4.67 -11.22 4.34 0 4 C0 2.68 0 1.36 0 0 Z " fill="#B3B3B3" transform="translate(155,165)"/>
<path d="M0 0 C0.66 0.33 1.32 0.66 2 1 C0.56665422 2.62866544 -0.87182979 4.25280994 -2.3125 5.875 C-3.11300781 6.77992187 -3.91351563 7.68484375 -4.73828125 8.6171875 C-7 11 -7 11 -10 13 C-10.33 13.99 -10.66 14.98 -11 16 C-11.66 16 -12.32 16 -13 16 C-10.91001677 9.10305533 -5.67770873 4.17478583 0 0 Z " fill="#737373" transform="translate(57,104)"/>
<path d="M0 0 C0.66 0 1.32 0 2 0 C2.33 1.32 2.66 2.64 3 4 C-7.23 4 -17.46 4 -28 4 C-27.67 3.01 -27.34 2.02 -27 1 C-26.67 1.33 -26.34 1.66 -26 2 C-24.14630389 2.08737645 -22.28932459 2.10698153 -20.43359375 2.09765625 C-19.30888672 2.09443359 -18.18417969 2.09121094 -17.02539062 2.08789062 C-15.24938477 2.07532227 -15.24938477 2.07532227 -13.4375 2.0625 C-12.24962891 2.05798828 -11.06175781 2.05347656 -9.83789062 2.04882812 C-6.89187774 2.03699675 -3.94596319 2.02051287 -1 2 C-0.67 1.34 -0.34 0.68 0 0 Z " fill="#626262" transform="translate(219,166)"/>
<path d="M0 0 C-1.53643852 3.68069887 -3.78150945 5.98775204 -6.625 8.75 C-7.85089844 9.94882812 -7.85089844 9.94882812 -9.1015625 11.171875 C-9.72804688 11.77515625 -10.35453125 12.3784375 -11 13 C-11.66 12.67 -12.32 12.34 -13 12 C-2.63106796 0 -2.63106796 0 0 0 Z " fill="#FBFBFB" transform="translate(323,274)"/>
<path d="M0 0 C0.66 0.66 1.32 1.32 2 2 C1.01 2.78375 0.02 3.5675 -1 4.375 C-2.485 5.674375 -2.485 5.674375 -4 7 C-4 7.66 -4 8.32 -4 9 C-6.8125 11.6875 -6.8125 11.6875 -10 14 C-10.99 13.67 -11.98 13.34 -13 13 C-8.71 8.71 -4.42 4.42 0 0 Z " fill="#F8F8F8" transform="translate(191,39)"/>
<path d="M0 0 C0.66 0.33 1.32 0.66 2 1 C-5.11389522 6.55580866 -5.11389522 6.55580866 -10 7 C-10.33 5.68 -10.66 4.36 -11 3 C-10.01 3 -9.02 3 -8 3 C-7.67 2.34 -7.34 1.68 -7 1 C-6.401875 1.20625 -5.80375 1.4125 -5.1875 1.625 C-2.71549154 2.30671915 -2.71549154 2.30671915 0 0 Z " fill="#919191" transform="translate(430,464)"/>
<path d="M0 0 C2.86724686 0.57344937 3.8614515 0.8614515 6 3 C4.02 5.31 2.04 7.62 0 10 C0 7 0 7 2 4 C1.34 2.68 0.68 1.36 0 0 Z " fill="#9F9F9F" transform="translate(73,122)"/>
<path d="M0 0 C1.32 0.33 2.64 0.66 4 1 C0.535 3.97 0.535 3.97 -3 7 C-3.33 6.34 -3.66 5.68 -4 5 C-3.67 4.34 -3.34 3.68 -3 3 C-2.34 3 -1.68 3 -1 3 C-0.67 2.01 -0.34 1.02 0 0 Z " fill="#828282" transform="translate(352,310)"/>
<path d="M0 0 C0 3.38023517 -0.87455622 5.83468937 -2 9 C-2.99 9 -3.98 9 -5 9 C-3.7508258 5.54074837 -2.32472205 2.85306797 0 0 Z " fill="#757575" transform="translate(218,90)"/>
<path d="M0 0 C0.82638376 2.89234315 1 4.88742431 1 8 C0.01 8.33 -0.98 8.66 -2 9 C-2.33 8.34 -2.66 7.68 -3 7 C-2.06421005 4.64018187 -1.06652192 2.30368736 0 0 Z " fill="#F5F5F5" transform="translate(159,84)"/>
<path d="M0 0 C0.33 0.66 0.66 1.32 1 2 C-1.64 3.98 -4.28 5.96 -7 8 C-5.81927711 3.27710843 -5.81927711 3.27710843 -3 1 C-2.01 0.67 -1.02 0.34 0 0 Z " fill="#F7F7F7" transform="translate(229,82)"/>
<path d="M0 0 C0 0.33 0 0.66 0 1 C-1.11375 1.309375 -2.2275 1.61875 -3.375 1.9375 C-6.7945155 2.82326483 -6.7945155 2.82326483 -9 4 C-10.67654729 3.72057545 -12.34608154 3.39171753 -14 3 C-9.12941325 0.48073099 -5.50946709 -0.10395221 0 0 Z " fill="#676767" transform="translate(257,69)"/>
<path d="M0 0 C0 0.66 0 1.32 0 2 C-1.32 2 -2.64 2 -4 2 C-4.66 3.98 -5.32 5.96 -6 8 C-8 5 -8 5 -8 3 C-7.01 3 -6.02 3 -5 3 C-5 2.34 -5 1.68 -5 1 C-2 0 -2 0 0 0 Z " fill="#7C7C7C" transform="translate(69,98)"/>
<path d="M0 0 C2.64 0.33 5.28 0.66 8 1 C7.67 2.32 7.34 3.64 7 5 C4.11562221 3.70700306 2.12780579 2.34058637 0 0 Z " fill="#747474" transform="translate(307,56)"/>
</svg>
