<?xml version="1.0" encoding="UTF-8"?>
<svg version="1.1" xmlns="http://www.w3.org/2000/svg" width="624" height="626">
<path d="M0 0 C205.92 0 411.84 0 624 0 C624 206.58 624 413.16 624 626 C418.08 626 212.16 626 0 626 C0 419.42 0 212.84 0 0 Z " fill="#EDEDEE" transform="translate(0,0)"/>
<path d="M0 0 C205.92 0 411.84 0 624 0 C624 206.58 624 413.16 624 626 C418.08 626 212.16 626 0 626 C0 419.42 0 212.84 0 0 Z M232 55 C230.87851562 56.04220703 230.87851562 56.04220703 229.734375 57.10546875 C214.12929441 72.08307233 201.83123376 91.50629873 195 112 C195 112.99 195 113.98 195 115 C193.99792007 114.99111755 192.99584015 114.98223511 191.96339417 114.9730835 C182.44740899 114.89144517 172.93149631 114.83177242 163.41523838 114.79275131 C158.5246408 114.77201469 153.63432942 114.74395679 148.74389648 114.69824219 C144.01057626 114.65428102 139.27752857 114.63075868 134.5440197 114.62049103 C132.75219377 114.61318868 130.9603801 114.59893378 129.16867256 114.57707977 C114.53090438 114.40589383 99.73255419 115.55254837 86.625 122.75 C85.97273438 123.09289062 85.32046875 123.43578125 84.6484375 123.7890625 C68.45230771 132.5247703 57.2955185 144.43446282 48.8125 160.625 C48.49152344 161.21474609 48.17054687 161.80449219 47.83984375 162.41210938 C41.91435743 174.17738284 40.40309177 187.09855658 40.49206543 200.08598328 C40.48744138 201.53008884 40.4810785 202.97418967 40.47315645 204.4182809 C40.45664655 208.33631433 40.46462443 212.25395195 40.47710133 216.17198575 C40.48622548 220.41673558 40.47214609 224.66142167 40.46118164 228.90615845 C40.44347112 237.20091281 40.44720251 245.49552174 40.4588322 253.79028162 C40.46789399 260.53465163 40.46907871 267.27898111 40.46473694 274.02335548 C40.46412401 274.98603532 40.46351107 275.94871516 40.46287957 276.94056711 C40.46160058 278.89666107 40.46030372 280.85275502 40.4589892 282.80884895 C40.44760577 301.11488269 40.46066288 319.42083607 40.48219067 337.72685663 C40.50006817 353.41438014 40.49694782 369.10178525 40.47851562 384.78930664 C40.45708409 403.03791542 40.44869521 421.28645397 40.46096468 439.53507358 C40.46223879 441.48274631 40.46349628 443.43041906 40.46473694 445.37809181 C40.46535404 446.33621723 40.46597114 447.29434266 40.46660694 448.28150218 C40.47005236 455.01474415 40.46424916 461.74794134 40.45481873 468.48117638 C40.44357233 476.69082447 40.44669449 484.90031969 40.4679417 493.10995039 C40.47841537 497.29393315 40.48263714 501.4776615 40.46934509 505.66164207 C40.45733892 509.49902144 40.46411734 513.33591291 40.4852553 517.17324863 C40.49176983 519.20287299 40.47885951 521.2325318 40.46502638 523.26211947 C40.63211951 542.99296213 49.33880707 560.15173151 63 574 C80.66550642 591.04293351 102.09167979 595.15563889 125.69151306 595.14044189 C127.29909939 595.14302809 128.90668508 595.14604195 130.51426989 595.1494453 C134.92139326 595.15748887 139.32850032 595.15930339 143.73563015 595.16004276 C148.49319144 595.16189796 153.25074436 595.1694477 158.00830078 595.17617798 C168.40739602 595.18974361 178.8064874 595.19578342 189.20559001 595.20018864 C195.70380341 595.20295437 202.20201534 595.20719236 208.70022774 595.21169281 C226.70563507 595.22388377 244.71104123 595.23418303 262.7164526 595.2375679 C264.44412031 595.23789725 264.44412031 595.23789725 266.2066904 595.23823325 C267.93840599 595.23856067 267.93840599 595.23856067 269.70510572 595.2388947 C272.04437061 595.23933816 274.3836355 595.23978472 276.72290039 595.24023438 C278.46342102 595.24056652 278.46342102 595.24056652 280.23910368 595.24090537 C299.02855409 595.24485092 317.81796565 595.26229831 336.60740107 595.2855939 C355.91625985 595.30933942 375.22509918 595.32177123 394.5339728 595.32293582 C405.36783849 595.32385084 416.20165359 595.32955952 427.03550529 595.34775543 C436.26334563 595.36319975 445.49111972 595.36825145 454.71897053 595.36001733 C459.42182591 595.35612597 464.12454809 595.35696591 468.82738686 595.37107468 C473.14383762 595.38390507 477.46005634 595.3825369 481.77650721 595.37048396 C483.32703359 595.36854264 484.87757695 595.37153178 486.4280796 595.38032833 C494.43328126 595.42282055 502.15136575 595.02508595 510.05214787 593.66453171 C510.73114636 593.54824624 511.41014486 593.43196077 512.10971906 593.31215151 C530.48347442 589.82808346 545.2955432 579.13677094 556 564 C568.86567785 543.20814562 570.30341466 523.51886703 570.25878906 499.65185547 C570.26150307 497.20623674 570.2650663 494.76061882 570.26940918 492.31500244 C570.27754581 486.3919286 570.2764054 480.46890141 570.2705839 474.54582892 C570.26604705 469.72837478 570.2654632 464.91093483 570.26763153 460.09347916 C570.267938 459.40500038 570.26824446 458.7165216 570.26856022 458.00717983 C570.26919973 456.60810008 570.26984816 455.20902033 570.2705054 453.80994059 C570.2761928 440.72642154 570.26967541 427.64293063 570.25890467 414.55941619 C570.24996661 403.3555147 570.25152639 392.15165466 570.26074219 380.94775391 C570.27146611 367.90446769 570.27564781 354.86120605 570.26951766 341.81791604 C570.26888063 340.42490713 570.26825188 339.03189822 570.26763153 337.63888931 C570.26732298 336.95368012 570.26701443 336.26847093 570.26669653 335.56249782 C570.26497624 330.75493507 570.26787016 325.94738804 570.27259064 321.13982773 C570.27881355 314.66037821 570.27432866 308.18098833 570.26280212 301.70154572 C570.26016702 299.32966618 570.26090089 296.95778004 570.26532745 294.58590317 C570.57476813 273.7561161 570.57476813 273.7561161 564.875 253.9375 C564.56860596 253.26195068 564.26221191 252.58640137 563.9465332 251.89038086 C555.94636909 234.8771433 541.15512602 221.76926739 523.5625 215.0625 C510.45954397 211.64080216 496.92958512 211.73513598 483.5 211.875 C481.79036992 211.8850662 480.080734 211.89418551 478.37109375 211.90234375 C474.24724711 211.92403155 470.12369136 211.95835302 466 212 C466.16604736 211.45287354 466.33209473 210.90574707 466.50317383 210.34204102 C478.74646782 169.67120282 478.4135192 129.45741117 458.21191406 91.19580078 C452.11793913 80.15446103 444.49306581 70.28983796 436 61 C435.53368164 60.48840332 435.06736328 59.97680664 434.58691406 59.44970703 C419.68812294 43.32894917 401.35736524 31.99663542 381 24 C380.25878906 23.70480469 379.51757812 23.40960937 378.75390625 23.10546875 C373.64853805 21.24444759 368.35180308 20.08420007 363.0625 18.875 C362.32290039 18.70403809 361.58330078 18.53307617 360.82128906 18.35693359 C313.78284017 7.99690631 266.48232338 22.42693278 232 55 Z " fill="#121212" transform="translate(0,0)"/>
<path d="M0 0 C0.658862 0.00021149 1.317724 0.00042297 1.99655151 0.00064087 C12.40465404 0.03393493 21.44433654 0.85235294 31.25 4.375 C32.35472656 4.73722656 33.45945312 5.09945312 34.59765625 5.47265625 C61.46791842 14.92048383 82.19206066 35.22002937 94.57177734 60.56640625 C101.42291046 75.01480098 104.81827061 89.08346211 104.6875 105.125 C104.67920166 106.44395264 104.67090332 107.76290527 104.66235352 109.12182617 C104.37435087 125.77985833 100.65486789 143.26769817 91.25 157.375 C88.34165115 157.64160183 85.64861732 157.72279124 82.7421875 157.66796875 C81.90156769 157.66372391 81.06094788 157.65947906 80.19485474 157.65510559 C77.50458007 157.63828532 74.81504901 157.60062781 72.125 157.5625 C70.30339622 157.54745745 68.48178072 157.5337683 66.66015625 157.52148438 C62.18981676 157.48837094 57.72003454 157.43656637 53.25 157.375 C55.21084321 154.06575633 57.26510817 150.95931455 59.5625 147.875 C71.47008681 130.90731816 75.06453284 111.17337674 71.84277344 90.79980469 C67.79538877 71.87301744 56.19861775 54.53838439 40.125 43.6875 C23.06109519 33.4396242 3.1901898 29.49869774 -16.4375 33.5 C-35.71046409 38.58691617 -51.64509266 50.05518 -61.84375 67.08984375 C-62.4728125 68.17394531 -63.101875 69.25804688 -63.75 70.375 C-64.41515625 71.49068359 -64.41515625 71.49068359 -65.09375 72.62890625 C-73.62753957 88.11256232 -73.63024654 108.99545533 -69.79296875 125.83984375 C-67.01294936 135.2627559 -62.41091913 143.41711107 -56.75 151.375 C-55.43 153.355 -54.11 155.335 -52.75 157.375 C-65.62 157.375 -78.49 157.375 -91.75 157.375 C-99.68731936 139.23255574 -104.15188738 125.6510336 -104.0625 106.125 C-104.05686035 104.83956299 -104.0512207 103.55412598 -104.04541016 102.22973633 C-103.73637081 78.0986589 -95.50055668 55.78430449 -79.75 37.375 C-79.08484375 36.57707031 -78.4196875 35.77914062 -77.734375 34.95703125 C-57.51386205 11.49978152 -30.72986016 -0.04103307 0 0 Z " fill="#131313" transform="translate(330.75,54.625)"/>
<path d="M0 0 C0.79642914 -0.00137466 1.59285828 -0.00274933 2.41342163 -0.00416565 C3.27800995 -0.00057037 4.14259827 0.0030249 5.03338623 0.00672913 C6.40951584 0.00651009 6.40951584 0.00651009 7.81344604 0.00628662 C10.84348928 0.00698286 13.87347093 0.01476177 16.90350342 0.02259827 C19.00528937 0.02446347 21.10707576 0.02588689 23.2088623 0.02688599 C28.739209 0.03070308 34.26952941 0.0405265 39.79986572 0.05158997 C46.43619239 0.0636205 53.07252785 0.06821017 59.7088623 0.07404327 C69.78938595 0.08373866 79.86985193 0.10290089 89.95037842 0.12025452 C89.95037842 27.84025452 89.95037842 55.56025452 89.95037842 84.12025452 C67.35129262 84.20047214 67.35129262 84.20047214 57.68670654 84.21791077 C51.1030961 84.2298466 44.51954152 84.2439372 37.93597412 84.27113342 C32.62564928 84.29293163 27.31538438 84.30483786 22.00501823 84.310009 C19.98332718 84.31369224 17.96163924 84.3208846 15.93997383 84.33171463 C13.09905134 84.3463223 10.25837369 84.34822859 7.41741943 84.3473053 C6.17555374 84.35809113 6.17555374 84.35809113 4.90859985 84.36909485 C-6.60526037 84.3288451 -16.61875173 81.12942799 -25.19415283 73.11634827 C-33.28522501 63.544557 -35.48893412 53.5629029 -35.61212158 41.37025452 C-35.63423706 39.91498352 -35.63423706 39.91498352 -35.65679932 38.43031311 C-35.50266563 27.62987944 -30.75724971 18.30468696 -23.45977783 10.39759827 C-17.11929594 4.56435492 -8.7482955 -0.01169558 0 0 Z " fill="#121212" transform="translate(443.04962158203125,362.87974548339844)"/>
<path d="M0 0 C0.74214752 -0.00014603 1.48429504 -0.00029205 2.24893188 -0.0004425 C4.68372599 0.00025 7.11844204 0.0080112 9.55322266 0.01586914 C11.24858559 0.01773567 12.94394907 0.01915847 14.63931274 0.02015686 C19.08788559 0.0239635 23.53642547 0.03377788 27.98498535 0.04486084 C32.529862 0.05511488 37.07474401 0.05966302 41.61962891 0.06469727 C50.52719543 0.07540189 59.43473754 0.09245595 68.34228516 0.11352539 C68.42236313 1.08817245 68.5024411 2.06281952 68.58494568 3.06700134 C68.8876239 6.7317364 69.19808234 10.39578 69.51072693 14.05967712 C69.64421248 15.63638662 69.7756723 17.21326914 69.904953 18.79032898 C70.84225749 30.20155301 72.3872387 41.02312836 75.34228516 52.11352539 C75.70263396 53.68739768 76.05585303 55.2629163 76.40258789 56.83984375 C76.66796608 58.04380043 76.66796608 58.04380043 76.93870544 59.27207947 C77.1384774 60.1835952 77.1384774 60.1835952 77.34228516 61.11352539 C63.90329754 61.18306866 50.46435281 61.23635882 37.02522182 61.26896191 C30.78473487 61.28461059 24.54437113 61.30583464 18.30395508 61.33984375 C12.28040927 61.37246512 6.2569819 61.39038441 0.23335457 61.39815712 C-2.06352541 61.40369559 -4.36039898 61.41451086 -6.65722847 61.43071556 C-9.87701498 61.45252631 -13.09631348 61.45549073 -16.31616211 61.45410156 C-17.73712692 61.4702803 -17.73712692 61.4702803 -19.1867981 61.48678589 C-26.21494033 61.45402429 -31.01267379 60.40589431 -36.47021484 55.67602539 C-41.69454934 49.55609069 -41.49016982 42.99002299 -40.93457031 35.23413086 C-39.46311108 23.96332405 -32.06037638 13.73662135 -23.70068359 6.39477539 C-16.3404021 0.87857314 -8.97956112 -0.04685057 0 0 Z " fill="#121212" transform="translate(118.65771484375,151.886474609375)"/>
<path d="M0 0 C5.18961665 4.88498506 7.18425246 8.45732728 7.4375 15.625 C7.40066451 21.61690696 6.6906944 25.01791835 2.6484375 29.44921875 C2.10445313 29.96097656 1.56046875 30.47273438 1 31 C0.154375 31.804375 -0.69125 32.60875 -1.5625 33.4375 C-4.26808941 35.17185219 -5.80745162 35.70976833 -9 36 C-9.67160156 36.06316406 -10.34320313 36.12632812 -11.03515625 36.19140625 C-16.88119971 36.50225933 -21.2286566 35.45822158 -26 32 C-31.19904045 26.92528443 -33.16527115 23.59594468 -33.3125 16.25 C-33.25473121 10.58865833 -33.09577423 7.20079408 -29 3 C-20.46361592 -5.33832413 -10.38284191 -6.72060124 0 0 Z " fill="#F1F1F1" transform="translate(468,389)"/>
<path d="M0 0 C0.33 0 0.66 0 1 0 C1.46581788 14.87166727 0.68554408 27.41658322 -9.8515625 39.04296875 C-26.70807091 54.79137999 -54.92959081 50.29348549 -76.3891716 50.26144934 C-80.92090695 50.25688386 -85.45262744 50.26392866 -89.98435974 50.26940918 C-98.83861817 50.27826108 -107.69284252 50.27640014 -116.54710223 50.2705839 C-123.74762516 50.26605135 -130.94813861 50.26546137 -138.14866257 50.26763153 C-139.6908896 50.26809123 -139.6908896 50.26809123 -141.26427274 50.26856022 C-143.35347443 50.26919972 -145.44267612 50.26984815 -147.5318778 50.2705054 C-167.08077057 50.27619623 -186.62964452 50.26967013 -206.17853419 50.25890467 C-222.92534731 50.24996762 -239.6721327 50.25152489 -256.41894531 50.26074219 C-275.90508746 50.27146229 -295.39121316 50.27564983 -314.87735784 50.26951766 C-316.95789488 50.26888061 -319.03843192 50.26825187 -321.11896896 50.26763153 C-322.14242092 50.26732298 -323.16587288 50.26701443 -324.22033853 50.26669653 C-331.40703459 50.264975 -338.59372015 50.26787289 -345.78041458 50.27259064 C-354.54580555 50.27821872 -363.31116073 50.27664254 -372.07654764 50.26602915 C-376.54236253 50.2607987 -381.00811791 50.25867056 -385.47393227 50.26532745 C-389.57216265 50.27134373 -393.67027907 50.26791956 -397.7684993 50.25737235 C-399.24064422 50.25516217 -400.71279902 50.25622003 -402.18493743 50.26112393 C-412.26775249 50.29210049 -422.03607245 49.45306857 -432 48 C-432 47.34 -432 46.68 -432 46 C-430.98731619 46.1622893 -429.97463238 46.3245786 -428.93126118 46.49178576 C-425.26329387 46.96596266 -421.79450963 47.12749817 -418.09982109 47.13142776 C-417.10838181 47.13450672 -417.10838181 47.13450672 -416.09691346 47.13764787 C-413.89050747 47.14328526 -411.68416456 47.14186468 -409.47775269 47.14044189 C-407.87642824 47.1430274 -406.27510443 47.14604108 -404.67378151 47.1494453 C-400.27947948 47.15749671 -395.8851938 47.15930383 -391.49088526 47.16004276 C-386.74906128 47.16189655 -382.00724573 47.16944551 -377.26542664 47.17617798 C-366.89959755 47.18974849 -356.53377234 47.19578399 -346.16793585 47.20018864 C-339.69304288 47.20295316 -333.21815139 47.20719089 -326.74325943 47.21169281 C-308.80908489 47.22388367 -290.87491155 47.23418343 -272.94073296 47.2375679 C-271.21965602 47.23789725 -271.21965602 47.23789725 -269.46380986 47.23823325 C-268.31371276 47.23845153 -267.16361566 47.23866981 -265.97866714 47.2388947 C-263.64821299 47.23933816 -261.31775884 47.23978473 -258.98730469 47.24023438 C-257.83132409 47.2404558 -256.67534349 47.24067723 -255.48433317 47.24090537 C-236.75678215 47.2448527 -218.02927006 47.26230557 -199.30173407 47.2855939 C-180.06524705 47.30932165 -160.82877954 47.3217704 -141.59227765 47.32293582 C-130.79541282 47.32385176 -119.99859873 47.32958382 -109.20174789 47.34775543 C-100.00743887 47.3631756 -90.81319625 47.36826555 -81.61887674 47.36001733 C-76.93070065 47.35611767 -72.24265821 47.35700699 -67.55449867 47.37107468 C-63.25610419 47.38385447 -58.95794324 47.38258047 -54.65954889 47.37048396 C-53.11108261 47.36853401 -51.56259956 47.37157267 -50.0141568 47.38032833 C-38.24279673 47.4426332 -26.34065655 47.14021964 -16.48828125 39.98828125 C-15 39 -15 39 -13 39 C-13 38.34 -13 37.68 -13 37 C-11.9171875 36.071875 -11.9171875 36.071875 -10.8125 35.125 C-3.34216914 28.05904602 -1.84943879 16.31675192 -1.39453125 6.62890625 C-1.10148709 1.10148709 -1.10148709 1.10148709 0 0 Z " fill="#FBFBFB" transform="translate(535,511)"/>
<path d="M0 0 C0.83849991 -0.00137466 1.67699982 -0.00274933 2.54090881 -0.00416565 C3.45225082 -0.00057037 4.36359283 0.0030249 5.30255127 0.00672913 C6.75183266 0.00651009 6.75183266 0.00651009 8.23039246 0.00628662 C11.42276253 0.00698307 14.6150742 0.01476302 17.80743408 0.02259827 C20.02132129 0.02446339 22.23520891 0.02588685 24.44909668 0.02688599 C30.27536153 0.0307037 36.10160145 0.04052765 41.92785645 0.05158997 C47.87338931 0.0618201 53.8189262 0.06638705 59.76446533 0.07142639 C71.42984087 0.08215055 83.0951979 0.09921806 94.76055908 0.12025452 C94.76055908 0.45025452 94.76055908 0.78025452 94.76055908 1.12025452 C93.6663414 1.12612076 92.57212372 1.131987 91.44474792 1.13803101 C81.07439864 1.19553166 70.70425357 1.26843315 60.33411312 1.35596943 C55.00419091 1.40047733 49.67434171 1.43977533 44.34429932 1.46669006 C39.18941182 1.49291998 34.03480828 1.53345778 28.88009834 1.58344078 C26.92481614 1.59997753 24.96948498 1.61157313 23.01414299 1.61786842 C-0.56348603 1.70137248 -22.26203625 5.41570673 -39.98944092 22.37025452 C-44.93408511 27.51240232 -48.76485194 32.90608576 -52.23944092 39.12025452 C-52.62615967 39.7841217 -53.01287842 40.44798889 -53.41131592 41.13197327 C-57.25078369 48.17591991 -59.92826205 56.40452201 -60.86444092 64.37025452 C-60.98819092 65.27775452 -61.11194092 66.18525452 -61.23944092 67.12025452 C-62.22944092 67.61525452 -62.22944092 67.61525452 -63.23944092 68.12025452 C-64.55370182 51.6189788 -55.6457433 35.42025144 -45.23944092 23.12025452 C-34.11267407 11.42771987 -16.89265741 -0.02143738 0 0 Z " fill="#FCFCFC" transform="translate(437.23944091796875,328.87974548339844)"/>
<path d="M0 0 C0.33 0 0.66 0 1 0 C1 27.72 1 55.44 1 84 C-21.87984746 84.08021762 -21.87984746 84.08021762 -31.60546875 84.09765625 C-38.25117166 84.10962869 -44.89681965 84.12381745 -51.54248047 84.15087891 C-56.89816008 84.17255192 -62.25378082 84.1845569 -67.60950089 84.18975449 C-69.65651502 84.19346023 -71.7035258 84.20069624 -73.75051498 84.21146011 C-76.60962733 84.22590142 -79.46849399 84.22798104 -82.32763672 84.22705078 C-83.60725281 84.23783661 -83.60725281 84.23783661 -84.91271973 84.24884033 C-90.77189568 84.22810432 -90.77189568 84.22810432 -93 82 C-62.64 82 -32.28 82 -1 82 C-0.67 54.94 -0.34 27.88 0 0 Z " fill="#252525" transform="translate(532,363)"/>
<path d="M0 0 C0.99 1.98 0.99 1.98 2 4 C9.59 4 17.18 4 25 4 C25 4.66 25 5.32 25 6 C8.34542331 6.0466746 -8.30913223 6.08196651 -24.96375847 6.10362434 C-32.69640155 6.11394673 -40.42900405 6.12802538 -48.16162109 6.15087891 C-54.89961591 6.1707834 -61.63758135 6.18370943 -68.37560475 6.18817699 C-71.94492741 6.19078938 -75.51416599 6.19694944 -79.08346176 6.21146011 C-83.06330722 6.22750932 -87.04306963 6.22798158 -91.02294922 6.22705078 C-92.80750519 6.23783661 -92.80750519 6.23783661 -94.62811279 6.24884033 C-96.24775436 6.24471634 -96.24775436 6.24471634 -97.90011597 6.24050903 C-99.31322461 6.24327441 -99.31322461 6.24327441 -100.75488091 6.24609566 C-103 6 -103 6 -105 4 C-70.35 4 -35.7 4 0 4 C0 2.68 0 1.36 0 0 Z " fill="#FAFAFA" transform="translate(196,209)"/>
<path d="M0 0 C1.32 0.33 2.64 0.66 4 1 C3.01 2.485 3.01 2.485 2 4 C1.63155492 6.8086043 1.63155492 6.8086043 1.5859375 9.98046875 C1.54726562 11.14384766 1.50859375 12.30722656 1.46875 13.50585938 C1.4378125 14.72080078 1.406875 15.93574219 1.375 17.1875 C1.33632812 18.41404297 1.29765625 19.64058594 1.2578125 20.90429688 C1.16343897 23.93604656 1.07785451 26.96778841 1 30 C0.67 30 0.34 30 0 30 C0 20.1 0 10.2 0 0 Z " fill="#CFCFCF" transform="translate(77,246)"/>
<path d="M0 0 C0.66 0.33 1.32 0.66 2 1 C-2.50401225 6.41888974 -7.17833991 11.9501495 -13 16 C-13.99 16 -14.98 16 -16 16 C-10.72 10.72 -5.44 5.44 0 0 Z " fill="#DFDFDF" transform="translate(239,48)"/>
<path d="M0 0 C0.85851562 0.34804688 0.85851562 0.34804688 1.734375 0.703125 C1.404375 1.363125 1.074375 2.023125 0.734375 2.703125 C-0.626875 3.1053125 -0.626875 3.1053125 -2.015625 3.515625 C-5.78726809 4.89372536 -7.61525588 6.74094775 -10.265625 9.703125 C-10.265625 6.703125 -10.265625 6.703125 -8.65625 4.84375 C-7.94984375 4.21984375 -7.2434375 3.5959375 -6.515625 2.953125 C-5.81953125 2.31890625 -5.1234375 1.6846875 -4.40625 1.03125 C-2.265625 -0.296875 -2.265625 -0.296875 0 0 Z " fill="#E5E5E5" transform="translate(448.265625,386.296875)"/>
<path d="M0 0 C5.28 0 10.56 0 16 0 C11.9566353 2.02168235 9.67870655 2.35927761 5.25 2.625 C4.07953125 2.69976562 2.9090625 2.77453125 1.703125 2.8515625 C0.81109375 2.90054688 -0.0809375 2.94953125 -1 3 C-0.67 2.01 -0.34 1.02 0 0 Z " fill="#E3E3E3" transform="translate(321,86)"/>
<path d="M0 0 C0.66 0 1.32 0 2 0 C0.5741914 3.45195767 -1.09746334 5.1014256 -4.125 7.25 C-5.21167969 8.03117187 -5.21167969 8.03117187 -6.3203125 8.828125 C-6.87460937 9.21484375 -7.42890625 9.6015625 -8 10 C-6.27200079 6.23055056 -4.01169351 3.85724769 -1 1 C-0.67 0.67 -0.34 0.34 0 0 Z " fill="#F5F6F6" transform="translate(290,98)"/>
<path d="M0 0 C0.66 0.33 1.32 0.66 2 1 C1 3 1 3 -1.06640625 3.8515625 C-2.30197266 4.23441406 -2.30197266 4.23441406 -3.5625 4.625 C-4.38878906 4.88539062 -5.21507812 5.14578125 -6.06640625 5.4140625 C-6.70449219 5.60742188 -7.34257812 5.80078125 -8 6 C-3.375 1.125 -3.375 1.125 0 0 Z " fill="#F9F9F9" transform="translate(304,91)"/>
</svg>
