<?xml version="1.0" encoding="UTF-8"?>
<svg version="1.1" xmlns="http://www.w3.org/2000/svg" width="1024" height="1024">
<path d="M0 0 C337.92 0 675.84 0 1024 0 C1024 337.92 1024 675.84 1024 1024 C686.08 1024 348.16 1024 0 1024 C0 686.08 0 348.16 0 0 Z " fill="#EEF8FE" transform="translate(0,0)"/>
<path d="M0 0 C27.20317751 -0.99576948 52.83065374 6.89201075 73.18896484 25.3359375 C91.55744586 42.73765636 104.5355444 66.49620936 105.28662109 92.23046875 C105.63935025 118.96641669 105.63935025 118.96641669 101.08349609 128.078125 C101.68709961 128.05717773 102.29070312 128.03623047 102.91259766 128.01464844 C120.4939684 127.48512946 135.33186346 128.77190209 148.83349609 141.328125 C159.64707756 152.93046182 162.69402165 166.10500827 162.60107422 181.54858398 C162.60650591 183.07752139 162.6136344 184.60645356 162.62231445 186.13537598 C162.64042814 190.2574322 162.63352983 194.37908445 162.62079811 198.50114703 C162.61060614 202.83435758 162.62008105 207.16753564 162.62634277 211.50074768 C162.63360203 218.77603301 162.62407768 226.05115546 162.60498047 233.32641602 C162.5832232 241.71133727 162.59026164 250.09586922 162.61228609 258.48078102 C162.63049917 265.70664192 162.63296943 272.93238633 162.62253141 280.15826279 C162.61632776 284.46218076 162.61537373 288.7659164 162.62867737 293.06982231 C162.64032145 297.1190759 162.63205603 301.16783286 162.60910034 305.21703339 C162.60385818 306.69393404 162.60524896 308.17087726 162.614151 309.64776039 C162.70223146 325.75902175 158.11443427 339.80679702 147.02099609 351.828125 C139.30383913 359.08357172 129.33583887 364.48887446 119.08349609 367.078125 C118.4060648 367.25575253 117.7286335 367.43338005 117.03067398 367.61639023 C106.85072073 369.86094032 96.41482325 369.35806378 86.05126953 369.33691406 C83.81785468 369.3396272 81.58444072 369.34318995 79.35102844 369.34753418 C73.30745452 369.35662406 67.26394917 369.35312739 61.22037411 369.34677601 C54.87862406 369.34169588 48.53687969 369.34641328 42.19512939 369.34954834 C30.86132211 369.35341573 19.52754946 369.34721591 8.1937491 369.33702967 C-2.05411756 369.32810391 -12.30193886 369.32964034 -22.54980469 369.33886719 C-34.48121127 369.34960498 -46.41259036 369.35353516 -58.34400344 369.34764266 C-64.64831489 369.34453639 -70.9525952 369.34407629 -77.2569046 369.35071564 C-83.18969617 369.35652754 -89.12240284 369.35242231 -95.05518532 369.34092712 C-97.22261985 369.33830052 -99.39006163 369.33901108 -101.55749321 369.34345245 C-125.05765995 369.38713736 -145.88447898 367.69555949 -164.04150391 351.140625 C-178.52186014 335.6259576 -180.52593731 317.72914276 -180.43408203 297.59545898 C-180.43951419 295.57657367 -180.44664295 293.55769233 -180.45532227 291.53881836 C-180.47342723 286.09875698 -180.46654176 280.65900189 -180.45380592 275.21893573 C-180.44361274 269.50134179 -180.4530889 263.78377244 -180.45935059 258.06617737 C-180.4666081 248.4692824 -180.45708857 238.87251094 -180.43798828 229.27563477 C-180.41621708 218.20956638 -180.42328051 207.14379282 -180.4452939 196.07773155 C-180.46349463 186.54350573 -180.46598361 177.00936822 -180.45553923 167.47513062 C-180.44933075 161.79517894 -180.44839554 156.11536547 -180.46168518 150.4354229 C-180.47331151 145.09425297 -180.46509485 139.75346017 -180.44210815 134.41233063 C-180.43685738 132.46217281 -180.43827187 130.51198279 -180.44715881 128.56183815 C-180.52383584 110.01399934 -177.55835064 93.31655095 -164.29541016 79.2734375 C-153.67238776 69.47025427 -140.03088494 61.92287322 -125.21801758 61.96459961 C-123.8671833 61.96471291 -123.8671833 61.96471291 -122.48905945 61.96482849 C-121.05128899 61.97257042 -121.05128899 61.97257042 -119.58447266 61.98046875 C-118.09685173 61.98259117 -118.09685173 61.98259117 -116.57917786 61.98475647 C-113.42075548 61.99034082 -110.26240475 62.00289048 -107.10400391 62.015625 C-104.95882264 62.02064202 -102.81364026 62.02520458 -100.66845703 62.02929688 C-95.41778167 62.04030512 -90.16714791 62.0570277 -84.91650391 62.078125 C-84.61851143 61.15464516 -84.61851143 61.15464516 -84.3144989 60.21250916 C-84.04998428 59.40366776 -83.78546967 58.59482635 -83.51293945 57.76147461 C-83.2524028 56.96019638 -82.99186615 56.15891815 -82.72343445 55.33335876 C-75.18918963 34.27642459 -53.95627822 17.55814408 -34.41650391 8.203125 C-23.45871476 3.1981584 -12.02866798 0.49034061 0 0 Z " fill="#0068C7" transform="translate(506.91650390625,225.921875)"/>
<path d="M0 0 C0.76841721 -0.00701431 1.53683441 -0.01402863 2.32853699 -0.02125549 C4.79981423 -0.03867256 7.27085109 -0.04510999 9.7421875 -0.046875 C10.59066254 -0.04754974 11.43913757 -0.04822449 12.31332397 -0.04891968 C25.01580124 -0.03290331 37.40201405 0.46317723 49.93310547 2.72021484 C52.7509576 3.22719242 55.57519811 3.67688213 58.40234375 4.12890625 C98.98004454 11.03483977 138.45044057 28.54866426 170.6171875 54.203125 C171.43703125 54.8321875 172.256875 55.46125 173.1015625 56.109375 C180.32438263 61.7220123 187.0015576 67.89712844 193.6171875 74.203125 C194.11428223 74.67685547 194.61137695 75.15058594 195.12353516 75.63867188 C201.84446954 82.09040694 207.87472611 88.87445924 213.6171875 96.203125 C214.39578125 97.16476562 215.174375 98.12640625 215.9765625 99.1171875 C237.37125581 126.03089405 252.08979916 157.30639309 261.6171875 190.203125 C262.17019531 192.08257812 262.17019531 192.08257812 262.734375 194 C263.83592046 198.04753913 264.76120916 202.0980458 265.6171875 206.203125 C265.89224121 207.45778564 265.89224121 207.45778564 266.17285156 208.73779297 C269.6110779 225.07664014 270.01745112 241.2518028 270.0546875 257.890625 C270.06077026 258.91372772 270.06685303 259.93683044 270.07312012 260.99093628 C270.33140741 327.47528266 243.7703996 391.27813421 197.26831055 438.73754883 C188.01894811 447.99980461 177.94141712 456.18082996 167.6171875 464.203125 C167.06853027 464.62996582 166.51987305 465.05680664 165.95458984 465.49658203 C154.59222365 474.22521723 142.13689761 481.28652269 129.6171875 488.203125 C128.44905518 488.85112061 128.44905518 488.85112061 127.25732422 489.51220703 C105.4164052 501.36529517 79.15386978 509.59890093 54.6171875 513.203125 C53.39386719 513.41066406 52.17054688 513.61820313 50.91015625 513.83203125 C33.91178434 516.56016501 16.78098074 516.34400725 -0.3828125 516.203125 C-0.44339844 515.20410156 -0.50398437 514.20507812 -0.56640625 513.17578125 C-0.65019531 511.88542969 -0.73398437 510.59507812 -0.8203125 509.265625 C-0.90152344 507.97785156 -0.98273438 506.69007813 -1.06640625 505.36328125 C-1.03200438 502.34288543 -1.03200438 502.34288543 -2.3828125 501.203125 C-4.77155586 501.13653469 -7.13143592 501.13376061 -9.51928711 501.17236328 C-11.0725005 501.18848772 -12.62571838 501.20418317 -14.17893982 501.21951294 C-15.42424878 501.2338204 -15.42424878 501.2338204 -16.6947155 501.2484169 C-22.0633292 501.30027137 -27.43226915 501.29422722 -32.8010931 501.29977608 C-37.49125022 501.30789893 -42.17972169 501.33470154 -46.86938477 501.40527344 C-68.79562893 501.7181101 -87.06997175 501.45296056 -106.71981812 490.66453552 C-110.4262238 488.63051686 -114.22059013 486.78749154 -118.01403809 484.92248535 C-127.63204056 480.09947575 -136.65035039 474.4717853 -145.3828125 468.203125 C-146.40375 467.47609375 -147.4246875 466.7490625 -148.4765625 466 C-168.37968653 451.43929347 -186.89732531 434.20967217 -201.3828125 414.203125 C-202.24972859 413.0310492 -203.11692041 411.85917731 -203.984375 410.6875 C-218.94839985 390.29146388 -230.68178182 367.93898593 -239.3828125 344.203125 C-239.84042969 342.99398438 -240.29804688 341.78484375 -240.76953125 340.5390625 C-250.5205305 313.28548101 -253.61499642 285.13653498 -253.7578125 256.390625 C-253.76986725 255.03893723 -253.76986725 255.03893723 -253.78216553 253.65994263 C-253.87069848 240.57480183 -252.70512787 228.07663023 -250.3828125 215.203125 C-250.17881836 214.04433838 -249.97482422 212.88555176 -249.76464844 211.69165039 C-240.64409457 162.23540713 -217.29447988 116.4351105 -182.3828125 80.203125 C-181.50616943 79.28563477 -181.50616943 79.28563477 -180.61181641 78.34960938 C-172.09618435 69.47358725 -163.31681967 61.45730869 -153.3828125 54.203125 C-152.71491699 53.71215332 -152.04702148 53.22118164 -151.35888672 52.71533203 C-136.77556291 42.04931023 -121.72411666 32.91159066 -105.3828125 25.203125 C-104.75858398 24.90696289 -104.13435547 24.61080078 -103.49121094 24.30566406 C-76.12855461 11.46196823 -47.35267023 4.43867547 -17.3828125 1.203125 C-16.71630676 1.12093719 -16.04980103 1.03874939 -15.36309814 0.95407104 C-10.22569539 0.33769052 -5.1724465 0.03194653 0 0 Z M-64.78125 76.25390625 C-76.84905489 89.87510133 -76.84905489 89.87510133 -82.3828125 106.203125 C-84.3333252 106.17955933 -84.3333252 106.17955933 -86.32324219 106.15551758 C-91.19866618 106.10076345 -96.0740636 106.06661107 -100.94970703 106.03833008 C-103.05033964 106.02334627 -105.15094151 106.00295219 -107.25146484 105.97680664 C-128.86745071 105.71470125 -146.22861021 108.44656462 -162.3828125 124.203125 C-172.23533434 135.40070102 -177.71000184 149.02828222 -177.65023804 163.92274475 C-177.65476915 164.764292 -177.65930026 165.60583925 -177.66396868 166.47288793 C-177.67656017 169.27373024 -177.6749957 172.07437678 -177.67333984 174.87524414 C-177.67932853 176.89147184 -177.68613486 178.90769726 -177.69369507 180.92391968 C-177.71133148 186.38916715 -177.71604957 191.85435196 -177.71732664 197.31962514 C-177.71875058 200.73967018 -177.72302487 204.15969942 -177.72832108 207.57974052 C-177.74681631 219.52737306 -177.75499266 231.47496104 -177.75341797 243.42260742 C-177.75221798 254.53222938 -177.7732938 265.64165662 -177.8049053 276.75122935 C-177.83112756 286.30994164 -177.84178271 295.86859059 -177.84050715 305.42733854 C-177.8399991 311.12700877 -177.84559479 316.82650603 -177.86686325 322.52614021 C-177.88634502 327.89345406 -177.8863025 333.26043175 -177.87182999 338.62775803 C-177.8697528 340.5871766 -177.87437697 342.54661676 -177.8865509 344.50599861 C-178.00055211 364.14132082 -174.84240388 381.15183202 -160.7890625 396.04296875 C-141.97732035 412.93078272 -120.4468885 413.35030929 -96.39819336 413.38012695 C-94.16964616 413.38640059 -91.94109999 413.39304817 -89.71255493 413.40003967 C-82.42426263 413.42097268 -75.13597037 413.4314309 -67.84765625 413.44140625 C-65.32856295 413.44545761 -62.80946975 413.44957464 -60.29037666 413.45375633 C-49.80635759 413.47060783 -39.32233961 413.48524288 -28.83830929 413.49250507 C-26.12633704 413.49441444 -23.4143648 413.49633486 -20.70239258 413.49829102 C-20.0284839 413.49877476 -19.35457522 413.4992585 -18.66024507 413.4997569 C-7.75432202 413.50804947 3.1514911 413.53338122 14.0573662 413.56587169 C25.29238403 413.59906608 36.5273483 413.61663287 47.76242155 413.62014931 C54.05515408 413.62249029 60.34771231 413.63132681 66.64039803 413.65661049 C72.56586492 413.68003669 78.49104451 413.6840663 84.41654587 413.67384911 C86.57789381 413.67335719 88.73925663 413.67957456 90.90056038 413.69340515 C112.90498966 413.82621531 132.77662224 411.48310542 149.3984375 395.58984375 C158.38773235 385.9200213 164.84505478 373.89484582 164.88461304 360.47503662 C164.89314301 359.16028854 164.90167297 357.84554047 164.91046143 356.49095154 C164.90976253 355.05093372 164.90883954 353.61091599 164.90771484 352.17089844 C164.91370508 350.64093194 164.92051176 349.11096846 164.92807007 347.58100891 C164.94568843 343.43823871 164.95042373 339.29555121 164.95170164 335.15274715 C164.95312634 332.56006709 164.957402 329.96740785 164.96269608 327.37473297 C164.98118367 318.31702853 164.98936842 309.25938284 164.98779297 300.20166016 C164.98659242 291.77933776 165.00768105 283.35727198 165.0392803 274.93501449 C165.0654971 267.68719084 165.07615798 260.43945072 165.07488215 253.19158006 C165.07437404 248.87028105 165.0799732 244.54921015 165.10123825 240.22795868 C165.12071167 236.1599242 165.12068356 232.09233329 165.10620499 228.02428246 C165.10412691 226.53888737 165.10875755 225.05346384 165.1209259 223.56811714 C165.23238428 209.0093671 161.4879817 196.31214183 151.3671875 185.453125 C137.34115654 172.40922313 121.79771179 171.57219383 103.6171875 172.203125 C103.82214844 171.40648437 104.02710938 170.60984375 104.23828125 169.7890625 C104.50769531 168.72945313 104.77710938 167.66984375 105.0546875 166.578125 C105.32152344 165.53398437 105.58835937 164.48984375 105.86328125 163.4140625 C111.82023833 138.04298107 106.0872304 111.67528722 92.87890625 89.5859375 C77.97309671 66.59978488 55.68483806 52.27278512 29.30859375 45.96484375 C-5.90331821 38.69889366 -40.05162623 50.70471282 -64.78125 76.25390625 Z " fill="#C8E8FE" transform="translate(504.3828125,181.796875)"/>
<path d="M0 0 C0.85961318 0.42605105 0.85961318 0.42605105 1.73659229 0.86070919 C13.10550208 5.57888381 25.18694104 4.50461682 37.27026367 4.40649414 C39.83867544 4.40044852 42.40709203 4.396219 44.97550964 4.3936615 C50.48877463 4.38556156 56.00182907 4.36319266 61.51500511 4.33122444 C69.49570862 4.28523651 77.47632914 4.26456013 85.45714549 4.25043636 C98.42127957 4.22709477 111.38531237 4.18808175 124.34936523 4.13696289 C125.51095662 4.13238948 125.51095662 4.13238948 126.6960145 4.12772369 C129.83380175 4.11533974 132.97158879 4.10290377 136.10937558 4.09040425 C144.75349248 4.05605111 153.39761712 4.02402148 162.04174805 3.9934082 C162.81609958 3.9906611 163.59045111 3.987914 164.38826784 3.98508365 C177.31036232 3.93965251 190.23246524 3.90619269 203.15461332 3.88041586 C211.11383615 3.8638944 219.07287163 3.83612446 227.03199921 3.79366457 C233.12945045 3.76182392 239.22684514 3.74510812 245.32437325 3.73385048 C247.82170054 3.72664193 250.31901911 3.71423444 252.81629181 3.69621658 C256.22829506 3.67228389 259.6398498 3.66697952 263.05192566 3.66615295 C264.0369531 3.65468595 265.02198055 3.64321895 266.03685731 3.63140446 C273.61107727 3.66017262 279.85929076 4.94645934 286.25 9.125 C294.05614788 17.28597278 294.5989939 24.40955773 294.43945312 35.29882812 C294.39768933 37.05339869 294.35536477 38.80795599 294.3125 40.5625 C294.28738449 42.35218237 294.26457707 44.14189871 294.24414062 45.93164062 C294.18940518 50.2886077 294.10331492 54.64392518 294 59 C292.85939873 59.00546844 292.85939873 59.00546844 291.695755 59.01104736 C284.47390018 59.04916399 277.25254784 59.10627974 270.03101826 59.18390274 C266.31973505 59.22314702 262.60868092 59.2554467 258.8972168 59.27099609 C255.30479657 59.28631697 251.71300716 59.32102754 248.12087059 59.36830902 C246.10674582 59.39002169 244.09244221 59.39246038 242.07820129 59.39434814 C228.65649118 59.6043397 215.98673466 62.81336756 205.81640625 71.96484375 C196.35265958 81.85794754 191.47754655 93.99309343 191.7578125 107.6015625 C192.67567883 120.48129971 198.06818567 132.30121765 207.5625 141.18359375 C219.3944648 150.0006829 231.07790393 152.2923424 245.46484375 152.4140625 C246.86732596 152.43279619 248.26979717 152.45237121 249.67225647 152.4727478 C253.34312416 152.5238429 257.0140283 152.56358877 260.68505859 152.60089111 C264.43921762 152.64107355 268.19322799 152.69210055 271.94726562 152.7421875 C279.2980747 152.83867848 286.64895635 152.92316799 294 153 C294.07322421 156.35665426 294.11723533 159.71310007 294.15625 163.0703125 C294.17719727 164.01430908 294.19814453 164.95830566 294.21972656 165.9309082 C294.29962823 175.10761475 292.18959805 181.01629513 286.20703125 188.1328125 C275.08705405 199.09229518 260.05947419 197.57286661 245.61914062 197.51757812 C243.24130323 197.52300357 240.86346919 197.5301286 238.48564148 197.53881836 C232.04972477 197.55700411 225.61406548 197.55000361 219.17814445 197.53730202 C215.15356858 197.5301723 211.12902531 197.53153892 207.10444641 197.53526306 C206.43469997 197.53587599 205.76495353 197.53648893 205.07491174 197.53712043 C203.71400065 197.53839943 202.35308956 197.53969629 200.9921785 197.5410108 C188.25441654 197.55239554 175.51677006 197.53933608 162.77902704 197.51780933 C151.86808915 197.49994023 140.95732154 197.50304493 130.04638672 197.52148438 C117.35176529 197.54292844 104.65724487 197.5512971 91.96260786 197.53903532 C90.60692312 197.53776123 89.25123836 197.53650374 87.89555359 197.53526306 C87.22866749 197.53464596 86.5617814 197.53402886 85.87468663 197.53339306 C81.19290135 197.52995073 76.51119991 197.53594156 71.829422 197.54518127 C65.51899905 197.55676607 59.20889654 197.54866554 52.89850807 197.52560425 C50.58749231 197.52033127 48.27644941 197.52180664 45.96544456 197.53065491 C18.85397548 197.62485974 18.85397548 197.62485974 8.71875 187.92578125 C2.57157378 181.03814971 -0.25406147 174.03211002 -0.24050903 164.74868774 C-0.24221788 164.04119019 -0.24392673 163.33369263 -0.24568737 162.60475576 C-0.24896804 160.24632748 -0.23800227 157.888187 -0.22705078 155.52978516 C-0.22648636 153.83434048 -0.22680383 152.13889532 -0.22793579 150.44345093 C-0.22850909 145.84886846 -0.21675838 141.25439065 -0.20278788 136.65983248 C-0.19027681 131.85520745 -0.18910972 127.05057997 -0.18673706 122.24594116 C-0.1805234 113.15129747 -0.16411411 104.05670191 -0.14403808 94.96207941 C-0.12167555 84.60664223 -0.11068476 74.25120274 -0.10064721 63.89574742 C-0.0797478 42.59713809 -0.04457401 21.29857208 0 0 Z " fill="#0F95FE" transform="translate(351,373)"/>
<path d="M0 0 C3.01408869 2.63049411 5.80384233 5.43130565 8.57421875 8.31640625 C9.58742188 9.33541016 9.58742188 9.33541016 10.62109375 10.375 C23.98636011 24.59777238 29.10979503 43.08926242 28.8671875 62.1484375 C28.53577063 71.09332829 26.58156619 80.30171138 22.57421875 88.31640625 C-21.97578125 88.31640625 -66.52578125 88.31640625 -112.42578125 88.31640625 C-119.46004058 70.73075792 -122.00125428 50.43183416 -114.61132812 32.3203125 C-110.92631187 23.91753659 -106.61081615 16.14887242 -100.42578125 9.31640625 C-99.85730469 8.65640625 -99.28882813 7.99640625 -98.703125 7.31640625 C-89.75925103 -2.40602151 -77.92664702 -8.79443551 -65.42578125 -12.68359375 C-64.65621094 -12.92851562 -63.88664062 -13.1734375 -63.09375 -13.42578125 C-42.20305532 -18.76735993 -16.73715263 -13.7188975 0 0 Z " fill="#FEC400" transform="translate(558.42578125,265.68359375)"/>
<path d="M0 0 C27.20317751 -0.99576948 52.83065374 6.89201075 73.18896484 25.3359375 C91.55744586 42.73765636 104.5355444 66.49620936 105.28662109 92.23046875 C105.63935025 118.96641669 105.63935025 118.96641669 101.08349609 128.078125 C92.17349609 128.078125 83.26349609 128.078125 74.08349609 128.078125 C75.07349609 124.448125 76.06349609 120.818125 77.08349609 117.078125 C82.10071638 98.06550077 79.1264533 79.55848862 70.00146484 62.30078125 C67.12672864 57.47052185 63.84311276 53.24576208 60.08349609 49.078125 C59.48021484 48.38203125 58.87693359 47.6859375 58.25537109 46.96875 C49.59050777 37.57574691 38.12047569 31.91938335 26.08349609 28.078125 C25.31263672 27.83191406 24.54177734 27.58570313 23.74755859 27.33203125 C5.38091919 22.65981596 -14.28940634 26.4055065 -30.72509766 35.15625 C-35.52543054 38.04702574 -39.75525017 41.33674552 -43.91650391 45.078125 C-44.53912109 45.60792969 -45.16173828 46.13773437 -45.80322266 46.68359375 C-57.7406666 57.54800903 -64.74586885 74.70109987 -66.13769531 90.60571289 C-66.25435239 93.16298496 -66.29558819 95.7057401 -66.29150391 98.265625 C-66.29206787 99.17111084 -66.29263184 100.07659668 -66.29321289 101.00952148 C-66.16051329 109.2187683 -64.49252931 116.30866685 -61.91650391 124.078125 C-61.58650391 125.398125 -61.25650391 126.718125 -60.91650391 128.078125 C-69.49650391 128.078125 -78.07650391 128.078125 -86.91650391 128.078125 C-94.913736 100.99072599 -93.48261582 75.27548454 -80.17822266 50.0390625 C-67.66957025 27.43042599 -45.76687456 10.44431011 -21.03833008 3.22705078 C-13.98218531 1.31584459 -7.27342171 0.29649617 0 0 Z " fill="#01B278" transform="translate(506.91650390625,225.921875)"/>
<path d="M0 0 C7.87529577 5.77807026 12.55770976 12.50936338 14.125 22.25 C14.21504456 24.42141341 14.25287862 26.59527561 14.25439453 28.76855469 C14.25754669 30.06629822 14.26069885 31.36404175 14.26394653 32.70111084 C14.26215729 34.10803257 14.26010647 35.514954 14.2578125 36.921875 C14.25848639 38.36964942 14.25945713 39.81742372 14.26071167 41.26519775 C14.26218276 44.29123009 14.26005177 47.31723283 14.25537109 50.34326172 C14.2496537 54.22956044 14.25296917 58.1157904 14.25894356 62.00208664 C14.26254769 64.98739139 14.26141163 67.97267969 14.25881577 70.95798492 C14.25814714 72.39177712 14.25897268 73.8255708 14.26129532 75.25936127 C14.26382157 77.25591505 14.25929164 79.25247406 14.25439453 81.24902344 C14.25359894 82.38643982 14.25280334 83.5238562 14.25198364 84.69573975 C14.125 87.25 14.125 87.25 13.125 88.25 C11.57544441 88.34899523 10.02146327 88.38079524 8.46875 88.3828125 C7.05916016 88.38474609 7.05916016 88.38474609 5.62109375 88.38671875 C4.13802734 88.38091797 4.13802734 88.38091797 2.625 88.375 C1.63628906 88.37886719 0.64757812 88.38273438 -0.37109375 88.38671875 C-1.31082031 88.38542969 -2.25054688 88.38414062 -3.21875 88.3828125 C-4.08693359 88.38168457 -4.95511719 88.38055664 -5.84960938 88.37939453 C-7.875 88.25 -7.875 88.25 -8.875 87.25 C-9.32959858 84.59536879 -9.57743238 81.92810862 -9.875 79.25 C-10.42027344 79.72050781 -10.96554687 80.19101562 -11.52734375 80.67578125 C-12.28144531 81.29839844 -13.03554688 81.92101562 -13.8125 82.5625 C-14.54339844 83.17738281 -15.27429688 83.79226563 -16.02734375 84.42578125 C-22.68924159 88.69341677 -29.51203657 89.78837149 -37.3125 89.6875 C-38.14434814 89.67920166 -38.97619629 89.67090332 -39.83325195 89.66235352 C-49.36670146 89.40020464 -56.18352165 86.75941906 -63.18359375 80.18359375 C-68.58766425 74.00573024 -70.25091127 66.94453148 -70.15625 58.91015625 C-69.46393333 52.36199443 -65.99736777 45.44314005 -60.875 41.25 C-53.22535634 36.39474672 -45.83358858 34.11011387 -36.875 33.25 C-35.73804688 33.14042969 -34.60109375 33.03085937 -33.4296875 32.91796875 C-25.90410837 32.29772871 -18.42313107 32.12558026 -10.875 32.25 C-11.12470682 25.93241733 -11.46456978 21.15047802 -15.875 16.25 C-20.29289546 13.39136176 -25.79083388 13.72771006 -30.875 14.25 C-37.26825745 16.49947947 -39.91578316 20.33156632 -42.875 26.25 C-50.465 26.25 -58.055 26.25 -65.875 26.25 C-67.13626955 19.94365226 -65.82303603 16.80721735 -62.875 11.25 C-49.80385299 -7.76257747 -19.2477401 -11.93806765 0 0 Z " fill="#022F74" transform="translate(633.875,720.75)"/>
<path d="M0 0 C0.98484375 -0.00128906 1.9696875 -0.00257813 2.984375 -0.00390625 C4.02078125 -0.00003906 5.0571875 0.00382813 6.125 0.0078125 C7.67960938 0.00201172 7.67960938 0.00201172 9.265625 -0.00390625 C10.25046875 -0.00261719 11.2353125 -0.00132812 12.25 0 C13.16007813 0.00112793 14.07015625 0.00225586 15.0078125 0.00341797 C17.125 0.1328125 17.125 0.1328125 18.125 1.1328125 C18.24875169 3.15696241 18.30297311 5.18538987 18.33032227 7.21313477 C18.35026749 8.51440811 18.37021271 9.81568146 18.39076233 11.15638733 C18.40774799 12.5873299 18.42462675 14.01827375 18.44140625 15.44921875 C18.46196906 16.9051117 18.48296534 18.36099859 18.50437927 19.81687927 C18.55966961 23.65553897 18.60904802 27.49425315 18.65722656 31.33300781 C18.70739091 35.24744538 18.76310336 39.16180346 18.81835938 43.07617188 C18.92602603 50.76165151 19.02745193 58.44719707 19.125 66.1328125 C25.26303161 60.04872726 31.20670079 54.02791781 36.0703125 46.8515625 C40.33200488 40.97654908 44.24592046 35.92785996 51.65087891 34.41015625 C60.17843455 33.73538285 68.62802856 34.24280844 77.125 35.1328125 C75.59896585 38.34911391 74.02699229 40.42050549 71.4375 42.8828125 C68.70344817 45.54297104 66.10612784 48.23531148 63.625 51.1328125 C60.61701099 54.63301789 57.41252988 57.86540028 54.125 61.1015625 C50.96774512 64.30814949 48.04055394 67.70703662 45.125 71.1328125 C46.75853868 74.6618675 48.83147978 77.77000552 51.01953125 80.98046875 C51.59591591 81.82791908 51.59591591 81.82791908 52.1839447 82.69248962 C53.00701737 83.90192298 53.83119311 85.11060627 54.65637207 86.31860352 C55.94451443 88.20558786 57.22811517 90.09559143 58.51074219 91.98632812 C62.39915575 97.71173979 66.30844408 103.41815977 70.30859375 109.06640625 C71.22257935 110.3666272 71.22257935 110.3666272 72.1550293 111.69311523 C73.27723433 113.28491012 74.40978619 114.86947522 75.55395508 116.44555664 C76.04661865 117.14672607 76.53928223 117.84789551 77.046875 118.5703125 C77.47581055 119.16714844 77.90474609 119.76398438 78.34667969 120.37890625 C79.35594171 122.6532282 78.93908279 123.83571069 78.125 126.1328125 C74.0419058 126.24896179 69.95923623 126.32004707 65.875 126.3828125 C64.71613281 126.41632813 63.55726563 126.44984375 62.36328125 126.484375 C61.24824219 126.49726562 60.13320313 126.51015625 58.984375 126.5234375 C57.95795898 126.54438477 56.93154297 126.56533203 55.87402344 126.58691406 C52.3471573 126.00432339 51.34421471 124.88726174 49.125 122.1328125 C48.01026665 120.55874683 46.94281375 118.95042152 45.91796875 117.31640625 C45.33080078 116.38634766 44.74363281 115.45628906 44.13867188 114.49804688 C43.53603516 113.53189453 42.93339844 112.56574219 42.3125 111.5703125 C41.72146484 110.63123047 41.13042969 109.69214844 40.52148438 108.72460938 C39.32934261 106.83044301 38.13906862 104.93509979 36.95068359 103.03857422 C34.02991983 98.38988067 31.07774243 93.76123766 28.125 89.1328125 C27.60728027 89.57383301 27.08956055 90.01485352 26.55615234 90.46923828 C25.32128906 91.52115885 24.08642578 92.57307943 22.8515625 93.625 C19.7666217 96.15159465 19.7666217 96.15159465 18.82202148 99.91430664 C18.79696533 101.07051514 18.77190918 102.22672363 18.74609375 103.41796875 C18.71193359 104.67029297 18.67777344 105.92261719 18.64257812 107.21289062 C18.61615234 108.52708984 18.58972656 109.84128906 18.5625 111.1953125 C18.50285594 113.79046348 18.43927612 116.38552806 18.37109375 118.98046875 C18.34716553 120.13554932 18.3232373 121.29062988 18.29858398 122.48071289 C18.125 125.1328125 18.125 125.1328125 17.125 126.1328125 C15.50242456 126.2319782 13.87560169 126.26361027 12.25 126.265625 C11.26515625 126.26691406 10.2803125 126.26820313 9.265625 126.26953125 C8.22921875 126.26566406 7.1928125 126.26179687 6.125 126.2578125 C4.57039062 126.26361328 4.57039062 126.26361328 2.984375 126.26953125 C1.99953125 126.26824219 1.0146875 126.26695312 0 126.265625 C-0.91007813 126.26449707 -1.82015625 126.26336914 -2.7578125 126.26220703 C-4.875 126.1328125 -4.875 126.1328125 -5.875 125.1328125 C-5.97317208 123.52824059 -6.00131921 121.91933976 -6.00198364 120.31176758 C-6.00480347 119.26848297 -6.00762329 118.22519836 -6.01052856 117.15029907 C-6.00850433 115.99597382 -6.0064801 114.84164856 -6.00439453 113.65234375 C-6.00614685 112.44436127 -6.00789917 111.23637878 -6.00970459 109.99179077 C-6.01336278 106.66955296 -6.01248968 103.34737707 -6.0093255 100.02514267 C-6.00680152 96.55557926 -6.00913955 93.08601858 -6.01071167 89.61645508 C-6.01253325 83.78889488 -6.01012735 77.96134734 -6.00537109 72.13378906 C-5.99992849 65.38719958 -6.00169116 58.64064031 -6.0071975 51.89405155 C-6.01172895 46.11147076 -6.01237902 40.32889909 -6.00975883 34.5463171 C-6.00819623 31.08829694 -6.00800182 27.63029099 -6.01129532 24.17227173 C-6.01470839 20.31926286 -6.00998377 16.46628811 -6.00439453 12.61328125 C-6.00641876 11.45895599 -6.00844299 10.30463074 -6.01052856 9.11532593 C-6.00770874 8.07204132 -6.00488892 7.02875671 -6.00198364 5.95385742 C-6.00160662 5.04165939 -6.00122959 4.12946136 -6.00084114 3.18962097 C-5.75674783 -0.79995812 -3.45295126 0.00427951 0 0 Z " fill="#012D73" transform="translate(770.875,682.8671875)"/>
<path d="M0 0 C3.01408869 2.63049411 5.80384233 5.43130565 8.57421875 8.31640625 C9.58742188 9.33541016 9.58742188 9.33541016 10.62109375 10.375 C23.98636011 24.59777238 29.10979503 43.08926242 28.8671875 62.1484375 C28.53577063 71.09332829 26.58156619 80.30171138 22.57421875 88.31640625 C14.65421875 88.31640625 6.73421875 88.31640625 -1.42578125 88.31640625 C-1.42578125 85.31640625 -1.42578125 85.31640625 0.38671875 81.81640625 C6.48787191 69.83122281 7.58846276 56.35387035 3.94921875 43.44140625 C-1.16628162 29.00393135 -9.82032013 19.42050397 -23.55786133 12.86083984 C-36.412632 7.01735131 -49.95482729 6.34975873 -63.42578125 11.0546875 C-76.06022792 16.36839359 -84.9152972 24.28437243 -91.42578125 36.31640625 C-91.86277344 37.11304688 -92.29976563 37.9096875 -92.75 38.73046875 C-97.57093448 49.38727128 -97.14611625 64.23696973 -93.67578125 75.25390625 C-92.04481893 79.33713692 -90.02678516 82.78647238 -87.42578125 86.31640625 C-87.42578125 86.97640625 -87.42578125 87.63640625 -87.42578125 88.31640625 C-95.67578125 88.31640625 -103.92578125 88.31640625 -112.42578125 88.31640625 C-119.46004058 70.73075792 -122.00125428 50.43183416 -114.61132812 32.3203125 C-110.92631187 23.91753659 -106.61081615 16.14887242 -100.42578125 9.31640625 C-99.85730469 8.65640625 -99.28882813 7.99640625 -98.703125 7.31640625 C-89.75925103 -2.40602151 -77.92664702 -8.79443551 -65.42578125 -12.68359375 C-64.65621094 -12.92851562 -63.88664062 -13.1734375 -63.09375 -13.42578125 C-42.20305532 -18.76735993 -16.73715263 -13.7188975 0 0 Z " fill="#FDE336" transform="translate(558.42578125,265.68359375)"/>
<path d="M0 0 C1.0442086 0.00303635 1.0442086 0.00303635 2.10951233 0.00613403 C2.83956985 0.00438171 3.56962738 0.00262939 4.32180786 0.00082397 C6.74650924 -0.00359443 9.17113828 -0.00065661 11.59584045 0.00271606 C13.27353428 0.00204302 14.95122802 0.00107299 16.62892151 -0.00018311 C20.14964219 -0.00166006 23.67033755 0.0004944 27.1910553 0.00515747 C31.71419541 0.01085476 36.23727619 0.00757574 40.76041412 0.00158501 C44.22611441 -0.00202067 47.69180052 -0.00088199 51.15750122 0.0017128 C52.8257447 0.00238205 54.49398945 0.00155371 56.16223145 -0.00076675 C58.48974539 -0.00329339 60.81716193 0.00054744 63.14466858 0.00613403 C63.84080765 0.0041098 64.53694672 0.00208557 65.25418091 0 C70.01282772 0.02126583 70.01282772 0.02126583 71.12709045 1.13552856 C71.22608569 2.68508415 71.25788569 4.23906529 71.25990295 5.79177856 C71.26119202 6.73150513 71.26248108 7.67123169 71.2638092 8.63943481 C71.25994202 9.62814575 71.25607483 10.61685669 71.25209045 11.63552856 C71.25595764 12.6242395 71.25982483 13.61295044 71.2638092 14.63162231 C71.26252014 15.57134888 71.26123108 16.51107544 71.25990295 17.47927856 C71.25877502 18.34746216 71.25764709 19.21564575 71.25648499 20.11013794 C71.12709045 22.13552856 71.12709045 22.13552856 70.12709045 23.13552856 C68.56161997 23.22879572 66.99196273 23.25298438 65.42372131 23.24905396 C64.42275925 23.24897842 63.42179718 23.24890289 62.39050293 23.24882507 C61.30197525 23.24366379 60.21344757 23.2385025 59.0919342 23.23318481 C57.98354691 23.23176987 56.87515961 23.23035492 55.73318481 23.22889709 C52.17695976 23.2232789 48.62079662 23.21072331 45.06459045 23.19802856 C42.66029449 23.19301591 40.25599753 23.1884526 37.85169983 23.18435669 C31.9434534 23.17415246 26.0353416 23.15458061 20.12709045 23.13552856 C20.12709045 33.03552856 20.12709045 42.93552856 20.12709045 53.13552856 C23.21955139 53.123927 26.31201233 53.11232544 29.4981842 53.10037231 C32.48003537 53.09258255 35.46188543 53.08650533 38.44374084 53.08059692 C40.52252201 53.07555568 42.60129962 53.06872282 44.68006897 53.06008911 C47.66111631 53.04801434 50.64211695 53.04229832 53.6231842 53.03787231 C55.02630104 53.03013039 55.02630104 53.03013039 56.45776367 53.02223206 C57.31858047 53.02215652 58.17939728 53.02208099 59.06629944 53.02200317 C59.82796921 53.01978256 60.58963898 53.01756195 61.37438965 53.01527405 C63.12709045 53.13552856 63.12709045 53.13552856 64.12709045 54.13552856 C64.22608569 55.68508415 64.25788569 57.23906529 64.25990295 58.79177856 C64.26119202 59.73150513 64.26248108 60.67123169 64.2638092 61.63943481 C64.25994202 62.62814575 64.25607483 63.61685669 64.25209045 64.63552856 C64.25595764 65.6242395 64.25982483 66.61295044 64.2638092 67.63162231 C64.26252014 68.57134888 64.26123108 69.51107544 64.25990295 70.47927856 C64.25877502 71.34746216 64.25764709 72.21564575 64.25648499 73.11013794 C64.12709045 75.13552856 64.12709045 75.13552856 63.12709045 76.13552856 C61.77614063 76.22821855 60.42041955 76.25300183 59.06629944 76.24905396 C58.20548264 76.24897842 57.34466583 76.24890289 56.45776367 76.24882507 C55.52235245 76.24366379 54.58694122 76.2385025 53.6231842 76.23318481 C52.67016922 76.23176987 51.71715424 76.23035492 50.73526001 76.22889709 C47.6783388 76.22328008 44.62148969 76.21072472 41.56459045 76.19802856 C39.49753422 76.19301575 37.43047684 76.18845247 35.36341858 76.18435669 C30.28461458 76.17330513 25.20586475 76.15602911 20.12709045 76.13552856 C20.12931107 76.74718369 20.13153168 77.35883881 20.13381958 77.98902893 C20.15587167 84.33123188 20.17099673 90.67342401 20.18202209 97.01565552 C20.18706387 99.38545168 20.1938971 101.75524472 20.20252991 104.12503052 C20.21460235 107.52306895 20.22032016 110.92106642 20.2247467 114.31912231 C20.22990799 115.38577621 20.23506927 116.45243011 20.24038696 117.55140686 C20.24050026 119.02281883 20.24050026 119.02281883 20.24061584 120.5239563 C20.24283646 121.39221542 20.24505707 122.26047455 20.24734497 123.15504456 C20.12709045 125.13552856 20.12709045 125.13552856 19.12709045 126.13552856 C15.32120901 126.38761578 11.50283589 126.320752 7.68959045 126.32302856 C6.6138678 126.33527466 5.53814514 126.34752075 4.42982483 126.36013794 C3.40308655 126.36207153 2.37634827 126.36400513 1.3184967 126.36599731 C-0.10160706 126.37216064 -0.10160706 126.37216064 -1.55039978 126.37844849 C-3.87290955 126.13552856 -3.87290955 126.13552856 -5.87290955 124.13552856 C-6.12179852 121.97128963 -6.12179852 121.97128963 -6.12014771 119.23219299 C-6.12643944 117.67782532 -6.12643944 117.67782532 -6.13285828 116.09205627 C-6.12723877 114.95067703 -6.12161926 113.80929779 -6.11582947 112.6333313 C-6.11772781 111.43495636 -6.11962616 110.23658142 -6.12158203 109.00189209 C-6.12465789 105.71063291 -6.11876716 102.41962354 -6.10862899 99.12839389 C-6.09986065 95.68953521 -6.10160568 92.25068093 -6.10198975 88.81181335 C-6.10105266 83.03728974 -6.09236203 77.26281861 -6.07872009 71.48831177 C-6.06298666 64.80361435 -6.05772222 58.11897442 -6.05845565 51.43425983 C-6.05906511 45.01313694 -6.05396764 38.59203285 -6.04566383 32.1709156 C-6.04212522 29.43368445 -6.04029976 26.69645994 -6.03977013 23.95922661 C-6.03858294 20.14224067 -6.02888648 16.32530298 -6.01817322 12.5083313 C-6.0186264 11.36492783 -6.01907959 10.22152435 -6.01954651 9.04347229 C-6.01528152 8.010047 -6.01101654 6.9766217 -6.00662231 5.91188049 C-6.00494647 5.00835563 -6.00327063 4.10483076 -6.001544 3.17392635 C-5.7498321 -0.81481039 -3.44749051 0.01540643 0 0 Z " fill="#023076" transform="translate(186.87290954589844,682.8644714355469)"/>
<path d="M0 0 C7.73963888 5.5517551 11.33731717 13.23765605 13.25 22.375 C13.64136815 27.44163339 13.60152625 32.49270086 13.54296875 37.5703125 C13.53736089 39.01333166 13.53309643 40.45635659 13.53010559 41.89938354 C13.51875022 45.66414667 13.48936567 49.42855254 13.45599365 53.19317627 C13.42508974 57.04800588 13.41155721 60.90289424 13.39648438 64.7578125 C13.36448499 72.29703639 13.31340436 79.83596779 13.25 87.375 C10.81283785 88.59358107 9.21725943 88.50425575 6.49609375 88.5078125 C5.55958984 88.50910156 4.62308594 88.51039063 3.65820312 88.51171875 C2.18770508 88.50591797 2.18770508 88.50591797 0.6875 88.5 C-0.78879883 88.50580078 -0.78879883 88.50580078 -2.29492188 88.51171875 C-3.23013672 88.51042969 -4.16535156 88.50914062 -5.12890625 88.5078125 C-5.9907251 88.50668457 -6.85254395 88.50555664 -7.74047852 88.50439453 C-9.75 88.375 -9.75 88.375 -10.75 87.375 C-10.86274069 85.63273038 -10.90679764 83.8859695 -10.92358398 82.14013672 C-10.93707382 81.02162323 -10.95056366 79.90310974 -10.96446228 78.7507019 C-10.97490067 77.53101715 -10.98533905 76.3113324 -10.99609375 75.0546875 C-11.0290461 72.49218426 -11.0622575 69.92968435 -11.09570312 67.3671875 C-11.14410032 63.31189207 -11.18782541 59.2565684 -11.22680664 55.20117188 C-11.26661032 51.29802824 -11.31815316 47.39517199 -11.37109375 43.4921875 C-11.3795079 42.28464813 -11.38792206 41.07710876 -11.39659119 39.83297729 C-11.39183868 29.45589026 -11.39183868 29.45589026 -16.125 20.5625 C-21.02764434 16.47696305 -24.62583327 15.92341678 -30.92578125 16.06640625 C-35.16735346 16.52986988 -38.42029102 17.68139109 -41.75 20.375 C-45.80962289 25.46132984 -46.8586886 30.61718573 -46.93945312 36.95385742 C-46.95617065 38.07148972 -46.97288818 39.18912201 -46.9901123 40.34062195 C-47.00368774 41.54177139 -47.01726318 42.74292084 -47.03125 43.98046875 C-47.04965942 45.2154158 -47.06806885 46.45036285 -47.08703613 47.72273254 C-47.15581468 52.34175627 -47.21639249 56.96086949 -47.27606201 61.58001709 C-47.33496392 66.10942257 -47.40107446 70.63868719 -47.46875 75.16796875 C-47.48232544 76.37519089 -47.49590088 77.58241302 -47.5098877 78.82621765 C-47.52660522 79.93439346 -47.54332275 81.04256927 -47.56054688 82.18432617 C-47.57933899 83.655149 -47.57933899 83.655149 -47.59851074 85.15568542 C-47.75 87.375 -47.75 87.375 -48.75 88.375 C-52.38899175 88.62656269 -56.04083673 88.56022226 -59.6875 88.5625 C-60.71552734 88.57474609 -61.74355469 88.58699219 -62.80273438 88.59960938 C-63.78435547 88.60154297 -64.76597656 88.60347656 -65.77734375 88.60546875 C-67.13460571 88.61163208 -67.13460571 88.61163208 -68.51928711 88.61791992 C-70.75 88.375 -70.75 88.375 -72.75 86.375 C-72.94338632 83.57899647 -73.0122249 80.88242476 -72.99291992 78.08569336 C-72.99481827 77.22869339 -72.99671661 76.37169342 -72.99867249 75.48872375 C-73.00238647 72.64733827 -72.99166805 69.80620664 -72.98046875 66.96484375 C-72.97927729 64.9971164 -72.97882372 63.02938847 -72.9790802 61.06166077 C-72.97751431 56.93486987 -72.96921596 52.80816559 -72.95581055 48.68139648 C-72.93880943 43.37918485 -72.93499646 38.07706842 -72.93575573 32.77483273 C-72.93548443 28.71121809 -72.93000995 24.64762447 -72.92275429 20.5840168 C-72.91956185 18.62829307 -72.91759888 16.67256694 -72.91686058 14.71684074 C-72.91470372 11.98948952 -72.90597407 9.26224136 -72.89526367 6.53491211 C-72.89571686 5.71878448 -72.89617004 4.90265686 -72.89663696 4.0617981 C-72.86447441 -1.51052559 -72.86447441 -1.51052559 -71.75 -2.625 C-70.05441274 -2.72432153 -68.35474253 -2.75580007 -66.65625 -2.7578125 C-65.62628906 -2.75910156 -64.59632813 -2.76039063 -63.53515625 -2.76171875 C-61.90900391 -2.75591797 -61.90900391 -2.75591797 -60.25 -2.75 C-59.16589844 -2.75386719 -58.08179688 -2.75773438 -56.96484375 -2.76171875 C-55.93488281 -2.76042969 -54.90492188 -2.75914062 -53.84375 -2.7578125 C-52.41579102 -2.75612061 -52.41579102 -2.75612061 -50.95898438 -2.75439453 C-48.75 -2.625 -48.75 -2.625 -47.75 -1.625 C-47.38239269 0.70317964 -47.04758419 3.0368385 -46.75 5.375 C-46.14865234 4.79492188 -46.14865234 4.79492188 -45.53515625 4.203125 C-32.63996298 -7.61015863 -14.99023933 -9.00915886 0 0 Z " fill="#022F75" transform="translate(387.75,720.625)"/>
<path d="M0 0 C1.31070465 0.00303635 1.31070465 0.00303635 2.64788818 0.00613403 C3.56326355 0.00438171 4.47863892 0.00262939 5.42175293 0.00082397 C8.46329617 -0.00359604 11.5047818 -0.00065603 14.54632568 0.00271606 C16.65000418 0.00204307 18.75368261 0.00107308 20.85736084 -0.00018311 C25.27257017 -0.00166028 29.68775932 0.00049511 34.10296631 0.00515747 C39.77625129 0.01085477 45.44948897 0.00757587 51.12277222 0.00158501 C55.46861124 -0.00202007 59.81443896 -0.00088226 64.16027832 0.0017128 C66.25276698 0.00238222 68.34525666 0.00155314 70.43774414 -0.00076675 C73.35677834 -0.00329241 76.27573481 0.00054609 79.19476318 0.00613403 C80.06856628 0.0041098 80.94236938 0.00208557 81.84265137 0 C87.80706333 0.02126621 87.80706333 0.02126621 88.92132568 1.13552856 C89.17168542 4.4406979 89.1065452 7.75948897 89.10882568 11.07302856 C89.12107178 12.00566528 89.13331787 12.938302 89.14593506 13.89920044 C89.14786865 14.79058716 89.14980225 15.68197388 89.15179443 16.60037231 C89.15590332 17.42142456 89.16001221 18.24247681 89.16424561 19.08840942 C88.92132568 21.13552856 88.92132568 21.13552856 86.92132568 23.13552856 C84.34029262 23.31055852 81.86824406 23.36715135 79.28851318 23.33084106 C78.16075974 23.32659622 78.16075974 23.32659622 77.01022339 23.32226562 C74.60542991 23.3110573 72.20100687 23.28595208 69.79632568 23.26052856 C68.16742481 23.25049958 66.5385181 23.24137359 64.90960693 23.23318481 C60.91337013 23.21111591 56.91741074 23.17658207 52.92132568 23.13552856 C52.9235463 24.39864365 52.92576691 25.66175873 52.92805481 26.96315002 C52.94828404 38.83876696 52.96329676 50.71438042 52.97313786 62.59001064 C52.97836724 68.69609225 52.98546589 74.80216001 52.99676514 80.90823364 C53.00759205 86.79558003 53.0136021 92.68291306 53.01620293 98.57026863 C53.01805753 100.82185133 53.02167881 103.07343326 53.02705574 105.3250103 C53.03426357 108.46686283 53.03531673 111.60865939 53.03485107 114.7505188 C53.03844635 115.69134811 53.04204163 116.63217743 53.04574585 117.60151672 C53.03537784 124.0214764 53.03537784 124.0214764 51.92132568 125.13552856 C50.31048824 125.23472037 48.69536924 125.26632676 47.08148193 125.26834106 C46.1011499 125.26963013 45.12081787 125.27091919 44.11077881 125.27224731 C42.56293701 125.26644653 42.56293701 125.26644653 40.98382568 125.26052856 C39.44178467 125.26632935 39.44178467 125.26632935 37.86859131 125.27224731 C36.88697021 125.27095825 35.90534912 125.26966919 34.89398193 125.26834106 C33.98914063 125.26721313 33.08429932 125.26608521 32.15203857 125.2649231 C29.92132568 125.13552856 29.92132568 125.13552856 27.92132568 124.13552856 C27.92132568 90.80552856 27.92132568 57.47552856 27.92132568 23.13552856 C16.70132568 23.13552856 5.48132568 23.13552856 -6.07867432 23.13552856 C-7.70067946 21.51352342 -7.20858182 19.71529826 -7.21148682 17.47927856 C-7.21277588 16.539552 -7.21406494 15.59982544 -7.21539307 14.63162231 C-7.21152588 13.64291138 -7.20765869 12.65420044 -7.20367432 11.63552856 C-7.2075415 10.64681763 -7.21140869 9.65810669 -7.21539307 8.63943481 C-7.214104 7.69970825 -7.21281494 6.75998169 -7.21148682 5.79177856 C-7.21035889 4.92359497 -7.20923096 4.05541138 -7.20806885 3.16091919 C-6.92763055 -1.22873385 -3.64622931 0.01300069 0 0 Z " fill="#012E74" transform="translate(414.07867431640625,683.8644714355469)"/>
<path d="M0 0 C6.58845018 5.34455079 12.58437733 13.44256245 13.71484375 22.06640625 C13.75390625 23.98046875 13.75390625 23.98046875 13.44140625 26.98046875 C10.64270885 29.77916615 3.11812978 28.65340163 -0.6262207 28.72143555 C-7.81617925 28.56770187 -7.81617925 28.56770187 -11.15625 25.92578125 C-12.74609375 23.29296875 -12.74609375 23.29296875 -14.109375 20.5390625 C-16.65503934 16.04469554 -20.76306126 14.44413588 -25.55859375 12.98046875 C-31.21833369 11.94035098 -35.79297261 12.88482607 -40.7734375 15.7265625 C-46.5529615 19.78614063 -49.22721492 25.24100848 -50.55859375 31.98046875 C-51.4688748 41.22044486 -50.07438916 49.1285776 -45.80859375 57.35546875 C-42.05792981 61.73124335 -39.09762988 63.69870539 -33.42578125 64.328125 C-27.38674791 64.48632291 -22.76536307 64.35783263 -17.55859375 60.98046875 C-16.89859375 60.98046875 -16.23859375 60.98046875 -15.55859375 60.98046875 C-15.29046875 60.42359375 -15.02234375 59.86671875 -14.74609375 59.29296875 C-14.35421875 58.52984375 -13.96234375 57.76671875 -13.55859375 56.98046875 C-13.14891357 56.11784424 -12.7392334 55.25521973 -12.31713867 54.36645508 C-10.55859375 51.98046875 -10.55859375 51.98046875 -8.10668945 51.4128418 C-6.6848938 51.45211792 -6.6848938 51.45211792 -5.234375 51.4921875 C-3.69233398 51.51635742 -3.69233398 51.51635742 -2.11914062 51.54101562 C-0.51135742 51.60385742 -0.51135742 51.60385742 1.12890625 51.66796875 C2.21236328 51.69052734 3.29582031 51.71308594 4.41210938 51.73632812 C7.0899253 51.79531085 9.76497652 51.87756568 12.44140625 51.98046875 C13.76479283 57.82376665 12.300745 60.83021401 9.44140625 65.98046875 C3.0982144 76.00562828 -5.24714551 82.37194247 -16.76171875 85.59765625 C-28.17981153 87.16046783 -41.2593451 87.65123859 -51.55859375 81.98046875 C-52.34105469 81.55636719 -53.12351562 81.13226562 -53.9296875 80.6953125 C-64.42964884 74.33867486 -70.84926719 65.1950098 -74.30859375 53.60546875 C-77.76354662 38.50675206 -76.26248763 23.51970168 -68.30859375 10.10546875 C-61.51270075 0.17855923 -52.39508229 -5.85838071 -40.67333984 -8.62475586 C-26.2867944 -11.31039936 -12.05611052 -8.23044518 0 0 Z " fill="#012E74" transform="translate(737.55859375,724.01953125)"/>
<path d="M0 0 C1.38004594 0.00560332 2.7600979 0.00986994 4.14015198 0.01286316 C7.75207327 0.02425419 11.363626 0.0536707 14.97540283 0.0869751 C18.66909715 0.11780082 22.36285347 0.13156006 26.05664062 0.14648438 C33.28938678 0.17695087 40.52112412 0.23568359 47.75390625 0.29296875 C47.75390625 16.13296875 47.75390625 31.97296875 47.75390625 48.29296875 C39.81499857 48.37702777 31.87771777 48.45714319 23.93875122 48.49996948 C20.24119885 48.52102622 16.54401778 48.54912859 12.84667969 48.59472656 C9.28048564 48.63842818 5.71464994 48.66215651 2.14820862 48.67247772 C0.13640513 48.68338369 -1.87525571 48.71457066 -3.88684082 48.74615479 C-12.76248286 48.74831613 -18.26711043 47.82984281 -25.05859375 41.79296875 C-30.81521677 35.21397101 -32.75781201 29.85314949 -32.5546875 21.03515625 C-31.78274968 14.17565814 -28.02775917 9.63456957 -23.3203125 4.8359375 C-16.03098898 -0.58644063 -8.75967267 -0.10483641 0 0 Z " fill="#01B379" transform="translate(598.24609375,454.70703125)"/>
<path d="M0 0 C1.14082031 0.00644531 2.28164063 0.01289062 3.45703125 0.01953125 C6.1875 0.1875 6.1875 0.1875 7.1875 1.1875 C7.2866657 2.81007544 7.31829777 4.43689831 7.3203125 6.0625 C7.32224609 7.53976562 7.32224609 7.53976562 7.32421875 9.046875 C7.32035156 10.08328125 7.31648437 11.1196875 7.3125 12.1875 C7.31830078 13.74210938 7.31830078 13.74210938 7.32421875 15.328125 C7.32292969 16.31296875 7.32164062 17.2978125 7.3203125 18.3125 C7.31918457 19.22257813 7.31805664 20.13265625 7.31689453 21.0703125 C7.1875 23.1875 7.1875 23.1875 6.1875 24.1875 C4.84291822 24.29571471 3.49331135 24.34321055 2.14453125 24.36328125 C1.31759766 24.38712891 0.49066406 24.41097656 -0.36132812 24.43554688 C-2.10067331 24.47803273 -3.84032628 24.50954193 -5.58007812 24.52929688 C-11.08907299 24.71250397 -14.66732138 25.22228572 -18.8125 29.1875 C-23.64273693 36.45256546 -24.53024275 42.8989928 -24.44921875 51.46875 C-24.45959671 52.60405151 -24.46997467 53.73935303 -24.48066711 54.90905762 C-24.51016845 58.50218684 -24.50699165 62.09427232 -24.5 65.6875 C-24.50888564 69.30899926 -24.52476081 72.93022364 -24.5514679 76.55163574 C-24.56642026 78.79743816 -24.57016446 81.04334836 -24.56169128 83.28918457 C-24.56728813 84.80216125 -24.56728813 84.80216125 -24.57299805 86.34570312 C-24.57124069 87.23487427 -24.56948334 88.12404541 -24.56767273 89.04016113 C-24.8125 91.1875 -24.8125 91.1875 -26.8125 93.1875 C-29.04321289 93.43041992 -29.04321289 93.43041992 -31.78515625 93.41796875 C-32.76677734 93.41603516 -33.74839844 93.41410156 -34.75976562 93.41210938 C-35.78779297 93.39986328 -36.81582031 93.38761719 -37.875 93.375 C-38.90689453 93.37435547 -39.93878906 93.37371094 -41.00195312 93.37304688 C-48.67234003 93.32765997 -48.67234003 93.32765997 -49.8125 92.1875 C-49.90769368 89.3876028 -49.93803944 86.61243826 -49.92602539 83.81225586 C-49.92617142 82.93428848 -49.92631744 82.05632111 -49.9264679 81.15174866 C-49.92576844 78.23525565 -49.91797455 75.31882567 -49.91015625 72.40234375 C-49.90829218 70.38595108 -49.90686823 68.36955796 -49.90586853 66.35316467 C-49.90204244 61.03484862 -49.89221139 55.7165597 -49.88116455 50.39825439 C-49.87095238 44.97579312 -49.86637133 39.55332748 -49.86132812 34.13085938 C-49.8505892 23.48306097 -49.83351169 12.83528274 -49.8125 2.1875 C-45.83334841 2.15863016 -41.85422347 2.14074594 -37.875 2.125 C-36.73869141 2.11662109 -35.60238281 2.10824219 -34.43164062 2.09960938 C-33.35205078 2.09638672 -32.27246094 2.09316406 -31.16015625 2.08984375 C-29.65980835 2.08198853 -29.65980835 2.08198853 -28.12915039 2.07397461 C-25.8125 2.1875 -25.8125 2.1875 -24.8125 3.1875 C-24.57886119 5.03641946 -24.39946365 6.89238031 -24.25 8.75 C-24.12431641 10.26787109 -24.12431641 10.26787109 -23.99609375 11.81640625 C-23.93550781 12.59886719 -23.87492188 13.38132812 -23.8125 14.1875 C-23.43738281 13.65640625 -23.06226563 13.1253125 -22.67578125 12.578125 C-16.44016934 3.97078161 -10.99303655 -0.13819817 0 0 Z " fill="#012F75" transform="translate(551.8125,715.8125)"/>
<path d="M0 0 C0.79339783 0.00141495 1.58679565 0.0028299 2.40423584 0.00428772 C4.93098772 0.0098721 7.45765004 0.02242171 9.984375 0.03515625 C11.70051955 0.04017327 13.41666549 0.04473582 15.1328125 0.04882812 C19.33336769 0.05983641 23.53385617 0.07709029 27.734375 0.09765625 C27.74895752 0.68554932 27.76354004 1.27344238 27.77856445 1.87915039 C28.11241168 13.9766887 28.99069723 25.28791282 31.734375 37.09765625 C32.07543698 39.09635278 32.4098534 41.09620756 32.734375 43.09765625 C24.88735184 43.1738566 17.04042448 43.22631954 9.19311523 43.26245117 C6.52464428 43.27581986 3.85665782 43.2979723 1.18823242 43.32397461 C-2.65191752 43.3604521 -6.49173938 43.37740484 -10.33203125 43.390625 C-12.11523521 43.41385078 -12.11523521 43.41385078 -13.9344635 43.43754578 C-21.8417608 43.43914464 -27.06180871 42.95323164 -33.140625 37.53515625 C-35.91729912 34.35014771 -36.6321421 32.46458733 -36.53515625 28.21484375 C-35.4481018 19.67595227 -30.74185411 12.5711144 -24.265625 7.09765625 C-16.08054414 2.10265819 -9.5109513 -0.06401674 0 0 Z " fill="#1096FE" transform="translate(387.265625,310.90234375)"/>
<path d="M0 0 C7.92 0 15.84 0 24 0 C24.02254989 11.71727131 24.04091443 23.43452831 24.05181217 35.15181637 C24.05704128 40.59202312 24.06413943 46.03221431 24.07543945 51.47241211 C24.08626735 56.71785702 24.09227662 61.96328692 24.09487724 67.20874214 C24.09673167 69.21470946 24.10035262 71.22067592 24.10573006 73.22663689 C24.11293919 76.02602824 24.113991 78.82535679 24.11352539 81.62475586 C24.11712067 82.46272705 24.12071594 83.30069824 24.12442017 84.1640625 C24.11405216 89.88594784 24.11405216 89.88594784 23 91 C21.37742456 91.0991657 19.75060169 91.13079777 18.125 91.1328125 C17.14015625 91.13410156 16.1553125 91.13539063 15.140625 91.13671875 C14.10421875 91.13285156 13.0678125 91.12898437 12 91.125 C10.44539063 91.13080078 10.44539063 91.13080078 8.859375 91.13671875 C7.87453125 91.13542969 6.8896875 91.13414062 5.875 91.1328125 C4.96492188 91.13168457 4.05484375 91.13055664 3.1171875 91.12939453 C1 91 1 91 0 90 C-0.09519368 87.2001028 -0.12553944 84.42493826 -0.11352539 81.62475586 C-0.11367142 80.74678848 -0.11381744 79.86882111 -0.1139679 78.96424866 C-0.11326844 76.04775565 -0.10547455 73.13132567 -0.09765625 70.21484375 C-0.09579218 68.19845108 -0.09436823 66.18205796 -0.09336853 64.16566467 C-0.08954244 58.84734862 -0.07971139 53.5290597 -0.06866455 48.21075439 C-0.05845238 42.78829312 -0.05387133 37.36582748 -0.04882812 31.94335938 C-0.0380892 21.29555906 -0.02049167 10.64778602 0 0 Z " fill="#012D72" transform="translate(274,718)"/>
<path d="M0 0 C3.5677811 2.35149209 5.84221079 4.99692157 7.75 8.8125 C8.31350726 13.43141196 8.1922879 16.91091312 6.125 21.125 C3.00827098 24.65182495 0.35617171 27.40269561 -4.4609375 28.16015625 C-11.03091989 28.41116887 -14.17596103 26.6560902 -19.0625 22.3125 C-21.91657211 18.66764995 -22.01135657 15.01774918 -21.80859375 10.5078125 C-20.91323886 6.18756862 -18.67214626 3.50469304 -15.25 0.8125 C-10.23125667 -2.16675401 -5.33208078 -1.94826029 0 0 Z " fill="#022D73" transform="translate(293.25,678.1875)"/>
<path d="M0 0 C0.5969606 6.47370603 0.26433651 10.93687231 -3.56640625 16.30859375 C-6.35793532 19.60214167 -8.91007193 21.63669064 -13 23 C-20.65252251 23.63081604 -26.84615197 23.92307842 -33 19 C-35.20271333 16.43016779 -35.1247877 14.26243082 -34.9375 11 C-34.44213231 8.03329794 -34.05875248 7.07012393 -32.0625 4.6875 C-21.7760404 -0.98054917 -11.42520348 -0.31671509 0 0 Z " fill="#ECF5FC" transform="translate(623,769)"/>
<path d="M0 0 C3.27276119 2.52858811 5.31446944 4.94387136 6.16015625 8.984375 C6.08657639 13.619906 5.7732519 16.66534939 2.91015625 20.359375 C-0.84865445 23.94733067 -3.16270064 24.80141393 -8.27734375 25.359375 C-13.31425442 24.82917388 -16.0749094 22.68844954 -19.65234375 19.234375 C-21.43114385 15.86401692 -22.17376515 12.75291653 -21.83984375 8.984375 C-20.1530515 4.62358952 -17.81504777 1.71577801 -14.08984375 -1.078125 C-9.17779703 -2.49506155 -4.57133955 -2.52345708 0 0 Z " fill="#FAE437" transform="translate(604.83984375,469.015625)"/>
<path d="M0 0 C0.33 0 0.66 0 1 0 C1 15.84 1 31.68 1 48 C7.6 48 14.2 48 21 48 C21.66 48.66 22.32 49.32 23 50 C22 51 22 51 19.86694336 51.11352539 C18.49227905 51.10567017 18.49227905 51.10567017 17.08984375 51.09765625 C16.10048828 51.09443359 15.11113281 51.09121094 14.09179688 51.08789062 C13.05087891 51.07951172 12.00996094 51.07113281 10.9375 51.0625 C9.89271484 51.05798828 8.84792969 51.05347656 7.77148438 51.04882812 C5.1809334 51.03699913 2.59049441 51.02051689 0 51 C-1.23020843 48.53958313 -1.085134 47.02247347 -1.02172852 44.27490234 C-1.00163223 43.29403656 -0.98153595 42.31317078 -0.96083069 41.30258179 C-0.93379562 40.24108917 -0.90676056 39.17959656 -0.87890625 38.0859375 C-0.85529526 37.00116119 -0.83168427 35.91638489 -0.80735779 34.79873657 C-0.7306057 31.32402838 -0.64663096 27.84953662 -0.5625 24.375 C-0.50929088 22.02344819 -0.45655042 19.67188573 -0.40429688 17.3203125 C-0.27497497 11.54674023 -0.1397181 5.77332952 0 0 Z " fill="#0E397E" transform="translate(766,758)"/>
<path d="M0 0 C0.33 0 0.66 0 1 0 C1.14282731 7.20824385 1.28519715 14.41649663 1.42724609 21.62475586 C1.47564278 24.07788295 1.52414491 26.53100797 1.57275391 28.98413086 C1.64252886 32.50634227 1.7119269 36.02856093 1.78125 39.55078125 C1.80312378 40.65086014 1.82499756 41.75093903 1.84753418 42.88435364 C1.86755493 43.90518539 1.88757568 44.92601715 1.90820312 45.9777832 C1.92596802 46.87713089 1.94373291 47.77647858 1.96203613 48.70307922 C1.99121568 50.46852371 2 52.23431439 2 54 C1.01 54.66 0.02 55.32 -1 56 C-1.18158971 37.31643698 -0.61829316 18.67048012 0 0 Z " fill="#FBFDFE" transform="translate(790,694)"/>
<path d="M0 0 C9.57 0 19.14 0 29 0 C28.34 1.32 27.68 2.64 27 4 C27 3.34 27 2.68 27 2 C26.2886792 2.01047363 25.5773584 2.02094727 24.84448242 2.03173828 C21.62552414 2.07328001 18.40662224 2.09932039 15.1875 2.125 C14.06794922 2.14175781 12.94839844 2.15851563 11.79492188 2.17578125 C10.72177734 2.18222656 9.64863281 2.18867188 8.54296875 2.1953125 C7.0583313 2.21102295 7.0583313 2.21102295 5.54370117 2.22705078 C3 2 3 2 0 0 Z " fill="#015AC3" transform="translate(392,288)"/>
<path d="M0 0 C8.25 0 16.5 0 25 0 C25.33 0.99 25.66 1.98 26 3 C17.75 3 9.5 3 1 3 C0.67 2.01 0.34 1.02 0 0 Z " fill="#FBF721" transform="translate(445,351)"/>
<path d="M0 0 C0.33 3.3 0.66 6.6 1 10 C0.01 9.67 -0.98 9.34 -2 9 C-2.6875 6.9375 -2.6875 6.9375 -3 5 C-3.433125 5.495 -3.86625 5.99 -4.3125 6.5 C-6 8 -6 8 -9 8 C-9 7.34 -9 6.68 -9 6 C-7.28515625 4.4921875 -7.28515625 4.4921875 -5.0625 2.875 C-4.33160156 2.33617187 -3.60070312 1.79734375 -2.84765625 1.2421875 C-1 0 -1 0 0 0 Z " fill="#E2EDF3" transform="translate(625,799)"/>
<path d="M0 0 C0.66 0.66 1.32 1.32 2 2 C-0.47770069 6.83151635 -0.47770069 6.83151635 -2.9375 7.625 C-3.618125 7.74875 -4.29875 7.8725 -5 8 C-7.2072358 9.48800372 -7.2072358 9.48800372 -9 11 C-7.59155282 7.78475695 -5.89655214 5.67816132 -3.375 3.25 C-2.74335937 2.63640625 -2.11171875 2.0228125 -1.4609375 1.390625 C-0.73777344 0.70226562 -0.73777344 0.70226562 0 0 Z " fill="#DCEAF3" transform="translate(846,721)"/>
<path d="M0 0 C0.66 0 1.32 0 2 0 C1.938125 1.19625 1.87625 2.3925 1.8125 3.625 C1.8125 9.47739187 4.38993088 13.53039062 8 18 C4.58844792 16.58832328 2.97059824 15.11343841 1 12 C0.234375 9.23828125 0.234375 9.23828125 -0.25 6.3125 C-0.42015625 5.33925781 -0.5903125 4.36601562 -0.765625 3.36328125 C-0.88164063 2.19345703 -0.88164063 2.19345703 -1 1 C-0.67 0.67 -0.34 0.34 0 0 Z " fill="#07A588" transform="translate(582,475)"/>
<path d="M0 0 C-3.12432397 2.52349243 -6.38060496 4.27256146 -10 6 C-10 4.68 -10 3.36 -10 2 C-6.3558226 -0.4294516 -4.28758728 -0.16179575 0 0 Z " fill="#07A880" transform="translate(484,256)"/>
<path d="M0 0 C0.99 0.33 1.98 0.66 3 1 C2.40072174 4.35595828 1.15377564 6.37801226 -1 9 C-0.67 6.03 -0.34 3.06 0 0 Z " fill="#E7EEF5" transform="translate(528,723)"/>
<path d="M0 0 C0.99 0.33 1.98 0.66 3 1 C1.68197635 4.64991166 0.40785992 6.7895201 -2 10 C-1.34 6.7 -0.68 3.4 0 0 Z " fill="#0DA683" transform="translate(448,283)"/>
</svg>
