<?xml version="1.0" encoding="UTF-8"?>
<svg version="1.1" xmlns="http://www.w3.org/2000/svg" width="1024" height="1024">
<path d="M0 0 C337.92 0 675.84 0 1024 0 C1024 337.92 1024 675.84 1024 1024 C686.08 1024 348.16 1024 0 1024 C0 686.08 0 348.16 0 0 Z " fill="#020202" transform="translate(0,0)"/>
<path d="M0 0 C337.92 0 675.84 0 1024 0 C1024 337.92 1024 675.84 1024 1024 C686.08 1024 348.16 1024 0 1024 C0 686.08 0 348.16 0 0 Z M489.51855469 59.52246094 C486.76214285 60.04509971 484.04665985 60.29441124 481.25 60.5 C476.63855152 60.86811272 472.44810057 61.74110361 468 63 C468 63.66 468 64.32 468 65 C466.96875 64.896875 465.9375 64.79375 464.875 64.6875 C459.40782543 64.67785772 454.75182046 66.70383624 449.69921875 68.62109375 C444.20972569 70.66733562 438.61347167 72.33087803 433 74 C433 74.66 433 75.32 433 76 C431.73929687 76.14115234 431.73929687 76.14115234 430.453125 76.28515625 C426.53247909 77.09678317 423.27041496 78.60643671 419.75 80.4375 C419.12609375 80.75009766 418.5021875 81.06269531 417.859375 81.38476562 C415.22982862 82.72504088 413.09964965 83.90035035 411 86 C410.030625 86.391875 409.06125 86.78375 408.0625 87.1875 C402.68838947 89.39635051 397.64021052 92.51774436 393 96 C393 96.66 393 97.32 393 98 C391.89011719 98.40025391 391.89011719 98.40025391 390.7578125 98.80859375 C388.05498832 99.97624442 386.15933103 101.22548094 383.875 103.0625 C382.72837891 103.98289062 382.72837891 103.98289062 381.55859375 104.921875 C380.71425781 105.60765625 379.86992187 106.2934375 379 107 C378.00097656 107.78890625 377.00195312 108.5778125 375.97265625 109.390625 C374.47025391 110.58945313 374.47025391 110.58945313 372.9375 111.8125 C371.99777344 112.56144531 371.05804688 113.31039062 370.08984375 114.08203125 C369.05537109 115.03142578 369.05537109 115.03142578 368 116 C368 116.66 368 117.32 368 118 C367.34 118 366.68 118 366 118 C366 118.66 366 119.32 366 120 C365.40574219 120.2578125 364.81148438 120.515625 364.19921875 120.78125 C361.80697497 122.10696947 360.55218361 123.40378864 358.8125 125.5 C356.90569014 127.76635663 355.00198018 129.99790177 352.96875 132.15234375 C345.74972309 139.80294292 339.88375052 148.31216462 334 157 C333.35683838 157.94528564 333.35683838 157.94528564 332.70068359 158.90966797 C320.89587731 175.72960139 320.89587731 175.72960139 316 195 C315.34 195 314.68 195 314 195 C312.20724134 198.11910856 311.65709282 200.67682428 311.375 204.25 C311.30023438 205.14203125 311.22546875 206.0340625 311.1484375 206.953125 C311.07496094 207.96632812 311.07496094 207.96632812 311 209 C310.34 209 309.68 209 309 209 C309 210.98 309 212.96 309 215 C308.33684438 214.99815641 307.67368876 214.99631283 306.99043751 214.99441338 C290.80454113 214.95011596 274.61866413 214.9170861 258.43272114 214.89637566 C250.60510891 214.88609233 242.77753731 214.87208874 234.94995117 214.84912109 C228.122123 214.82909659 221.29432428 214.81626221 214.46646756 214.81182301 C210.85599346 214.80923087 207.24560356 214.80320066 203.63515663 214.78853989 C199.59047441 214.77225125 195.54593568 214.77202607 191.5012207 214.77294922 C190.32301254 214.76575867 189.14480438 214.75856812 187.93089294 214.75115967 C177.01506339 214.7779524 166.59864743 216.48506671 156 219 C156 219.66 156 220.32 156 221 C154.01432292 221.22786458 152.02864583 221.45572917 150.04296875 221.68359375 C147.80603607 221.97170735 147.80603607 221.97170735 145 223 C145 223.66 145 224.32 145 225 C144.175 225.0825 143.35 225.165 142.5 225.25 C138.23246079 226.16447269 134.80763106 227.92223178 131 230 C131 230.66 131 231.32 131 232 C129.35 232.33 127.7 232.66 126 233 C126 233.66 126 234.32 126 235 C125.30003906 235.22945312 124.60007813 235.45890625 123.87890625 235.6953125 C120.42265254 237.26164729 117.77570464 239.40991491 114.9375 241.875 C114.37458252 242.3596875 113.81166504 242.844375 113.23168945 243.34375 C93.00934785 260.70152463 93.00934785 260.70152463 82.1875 284.0625 C82.125625 285.031875 82.06375 286.00125 82 287 C81.34 287 80.68 287 80 287 C73.70250356 304.57001508 68.82044943 322.37411213 68.87415886 341.1600132 C68.87270542 342.05313416 68.87125198 342.94625512 68.86975449 343.86644036 C68.86610762 346.856585 68.86957486 349.84667825 68.87301636 352.83682251 C68.87186402 355.00339451 68.87027573 357.16996632 68.86828911 359.33653772 C68.86411117 365.28866743 68.86617961 371.24078113 68.86927533 377.19291091 C68.87153551 383.61300373 68.86804667 390.03309377 68.86529541 396.45318604 C68.86110221 408.30415144 68.86147067 420.15511115 68.86420688 432.00607684 C68.86672303 442.95792318 68.86737886 453.90976765 68.86618423 464.86161423 C68.86610785 465.58825097 68.86603146 466.31488771 68.86595276 467.06354375 C68.86564142 470.01331016 68.86532302 472.96307658 68.864993 475.91284299 C68.86193373 503.58729705 68.86470755 531.26174786 68.8700899 558.93620142 C68.87483252 583.50808785 68.87441343 608.07996909 68.86962891 632.65185547 C68.86426981 660.26683423 68.8621537 687.88181012 68.86524117 715.49678934 C68.86556188 718.44302328 68.86587472 721.38925723 68.86618423 724.33549118 C68.86626331 725.06091241 68.86634239 725.78633364 68.86642386 726.53373733 C68.86755979 737.47290763 68.86623388 748.41207586 68.86370468 759.35124588 C68.86084118 771.79829842 68.86166506 784.24534464 68.86698543 796.69239648 C68.86960992 803.0413754 68.87064874 809.39034382 68.86733627 815.73932266 C68.86434738 821.55623941 68.86600925 827.37313596 68.87131383 833.19005089 C68.87242699 835.28964298 68.87187136 837.3892368 68.86943804 839.48882778 C68.59109117 858.355814 68.59109117 858.355814 71 877 C71.66 877 72.32 877 73 877 C73.10183594 877.97066406 73.20367187 878.94132813 73.30859375 879.94140625 C73.95875505 884.49253537 75.47533221 888.63999463 77.0625 892.9375 C77.34416016 893.71673828 77.62582031 894.49597656 77.91601562 895.29882812 C78.60467706 897.20140125 79.30149903 899.10101725 80 901 C80.66 901 81.32 901 82 901 C82.2475 901.680625 82.495 902.36125 82.75 903.0625 C87.4776636 914.17250947 95.24356025 923.50412356 103.6875 932 C104.22173584 932.53963379 104.75597168 933.07926758 105.30639648 933.63525391 C111.24020978 939.73546505 111.24020978 939.73546505 119 942 C119 942.66 119 943.32 119 944 C119.99 944.33 120.98 944.66 122 945 C122.226875 945.61875 122.45375 946.2375 122.6875 946.875 C124.45104021 949.73025558 126.58947759 950.19724008 129.68066406 951.22509766 C132.04362389 952.01457497 134.31121092 952.93762045 136.609375 953.8984375 C141.90003527 956.02755815 147.2483509 957.63955474 152.75 959.125 C154.0803125 959.50205078 154.0803125 959.50205078 155.4375 959.88671875 C171.11254208 964.16376595 186.37639542 964.29040996 202.50366211 964.26742554 C204.99557126 964.27116573 207.48747924 964.27576872 209.97938538 964.28115618 C215.38124469 964.2908137 220.78305279 964.29430735 226.18491936 964.29224396 C234.21833726 964.28918293 242.25171581 964.29754228 250.28512604 964.30799321 C265.47159006 964.3272988 280.65804053 964.33296016 295.84451538 964.33410732 C307.5769286 964.33502777 319.30933654 964.33915151 331.04174805 964.34550858 C334.42364183 964.34730377 337.80553563 964.3490834 341.18742943 964.35085833 C342.02827454 964.35130043 342.86911966 964.35174252 343.73544493 964.35219802 C367.37582468 964.36450043 391.0162026 964.37239976 414.65658569 964.37151146 C415.54723712 964.3714803 416.43788855 964.37144914 417.35552941 964.37141704 C421.86931498 964.37125084 426.38310054 964.37105276 430.89688611 964.37084763 C432.24147021 964.37078779 432.24147021 964.37078779 433.61321762 964.37072675 C435.42593488 964.37064587 437.23865214 964.37056228 439.0513694 964.37047596 C467.242763 964.36925096 495.43410845 964.38425686 523.62548828 964.41162109 C555.32849742 964.44238154 587.03147493 964.45955119 618.73449993 964.45769465 C622.11890856 964.4575454 625.50331719 964.45744798 628.88772583 964.45738602 C629.72099756 964.45736271 630.55426929 964.4573394 631.41279168 964.45731538 C644.78799429 964.45725399 658.16315491 964.46999352 671.53834506 964.48725055 C684.99520816 964.5042531 698.45201022 964.50614484 711.90887815 964.4930319 C719.88948779 964.48567335 727.86991125 964.48920735 735.85050093 964.50891658 C741.82981406 964.52242766 747.80891121 964.51472203 753.7882272 964.49917014 C756.19195398 964.49611436 758.59570126 964.49967829 760.99940383 964.51089029 C783.2178449 964.60758505 806.07849368 962.67223553 826 952 C826.804375 951.690625 827.60875 951.38125 828.4375 951.0625 C832.47397197 949.38884089 836.20896401 947.16394647 840 945 C840 944.34 840 943.68 840 943 C840.72574219 942.75507812 841.45148437 942.51015625 842.19921875 942.2578125 C847.29517249 939.96925308 850.98349089 935.80673752 855 932 C855.68449219 931.37996094 856.36898437 930.75992188 857.07421875 930.12109375 C868.411915 919.47331817 876.72201392 905.51446171 882 891 C882.66 890.34 883.32 889.68 884 889 C890.70973591 866.73257059 890.8756199 843.5298694 890.75502992 820.51152432 C890.73699605 815.77465574 890.75433102 811.03787885 890.76675415 806.30101013 C890.78553211 797.07122714 890.7727087 787.84176143 890.74822827 778.61200238 C890.72070907 767.82690916 890.72428806 757.04188776 890.72849493 746.25676834 C890.73484522 726.99736778 890.71170602 707.73811616 890.67236328 688.47875977 C890.63433051 669.8553413 890.62020161 651.23209711 890.63134766 632.60864258 C890.64350066 612.24296093 890.64304368 591.87735545 890.62037599 571.51168007 C890.61796182 569.33486839 890.61554984 567.15805672 890.61314011 564.98124504 C890.61193303 563.91067123 890.61072595 562.84009741 890.6094823 561.73708196 C890.60177097 554.24536738 890.60249269 546.75368142 890.6063118 539.2619648 C890.6105837 530.11942992 890.59989706 520.97704643 890.57108469 511.83455396 C890.55673523 507.1831805 890.54832199 502.53202591 890.55757141 497.88063431 C890.63880146 474.26457577 890.63880146 474.26457577 888.27816772 450.79283142 C888.13172337 449.83887311 887.98527902 448.88491479 887.83439696 447.90204865 C886.59673901 441.0729009 884.07688504 435.19463959 881 429 C880.51048514 427.97626759 880.51048514 427.97626759 880.0110811 426.93185371 C879.16972813 425.17573134 878.30431866 423.43119322 877.4375 421.6875 C876.87933594 420.55699219 876.32117188 419.42648437 875.74609375 418.26171875 C873.98636684 414.97453313 872.21594376 411.99537592 870 409 C869.34 409 868.68 409 868 409 C867.773125 408.278125 867.54625 407.55625 867.3125 406.8125 C865.72195705 403.40419368 863.71521194 401.60508446 861 399 C860.52087158 398.53779053 860.04174316 398.07558105 859.5480957 397.59936523 C858.04359019 396.15766077 856.52378232 394.73379443 855 393.3125 C854.49210938 392.82716797 853.98421875 392.34183594 853.4609375 391.84179688 C850.48383556 389.07461879 847.88951119 387.22262208 844 386 C844 385.34 844 384.68 844 384 C842.11997021 382.47570903 842.11997021 382.47570903 839.75 381 C838.96109375 380.484375 838.1721875 379.96875 837.359375 379.4375 C833.47519093 377.07097726 831.67646383 376 827 376 C827 375.34 827 374.68 827 374 C822.33762913 372.65105562 817.67063477 371.319962 813 370 C812.2678125 369.78859375 811.535625 369.5771875 810.78125 369.359375 C799.25760917 366.22575337 787.50638349 365.71044486 775.6328125 365.8046875 C774.21792809 365.80843091 772.80304104 365.81127158 771.38815308 365.81326294 C767.71560137 365.8207951 764.04321514 365.84035002 760.37072754 365.8626709 C756.60264319 365.88335778 752.83453136 365.8923128 749.06640625 365.90234375 C741.71086315 365.92360906 734.35545501 365.95761403 727 366 C727.47904785 365.05995117 727.9580957 364.11990234 728.45166016 363.15136719 C729.77141318 360.46524735 730.63182166 358.12619669 731.375 355.25 C732.64628374 350.7261233 734.5039299 346.93434735 736.9140625 342.91015625 C737.97674623 340.06231677 738.24911808 337.96523703 738.47241211 334.95727539 C738.85123351 330.3991541 739.42694618 325.91880685 740.12660217 321.40054321 C742.050498 308.78823143 742.59374423 296.36969045 742.5625 283.625 C742.56367828 282.59204803 742.56485657 281.55909607 742.56607056 280.49484253 C742.53806053 259.85423335 740.58099064 239.74918155 733.69897461 220.14770508 C732.67839971 217.01183453 731.98667739 213.81960039 731.26318359 210.60449219 C729.57869193 203.16643993 727.99445565 196.5329283 723.4296875 190.265625 C721.82754019 187.72670304 720.95763068 185.11065492 719.94677734 182.29736328 C718.0610013 177.72151166 715.4198537 173.54573806 712.875 169.3125 C712.00875 167.86145874 712.00875 167.86145874 711.125 166.38110352 C703.74202462 153.70502145 703.74202462 153.70502145 694.4375 142.47265625 C692.08539752 140.08662921 690.67425367 137.87593574 689 135 C684.61352277 129.63591641 679.92811572 124.74164712 674.5546875 120.37109375 C672.95581585 118.96103357 671.6921138 117.48547995 670.375 115.8125 C667.97425357 112.9695108 666.19549611 111.81562279 663 110 C660.66948884 108.17182517 658.37159912 106.30969688 656.0859375 104.42578125 C654.00832292 102.71785205 654.00832292 102.71785205 651 103 C650.814375 102.443125 650.62875 101.88625 650.4375 101.3125 C648.35889174 97.96865193 645.39186398 95.95192172 642 94 C641.34 94 640.68 94 640 94 C640 93.34 640 92.68 640 92 C637.525 91.505 637.525 91.505 635 91 C635 90.34 635 89.68 635 89 C631.81741503 86.81765602 628.57059 85.41162861 625 84 C623.85789062 83.41992188 622.71578125 82.83984375 621.5390625 82.2421875 C606.30285918 74.58516944 590.60753073 68.78318268 574 65 C569.87377902 64.06005005 565.9384393 63.02197546 562.00390625 61.44921875 C558.04583914 59.92526221 554.15003856 59.21307882 549.9375 58.8125 C549.12603516 58.73354492 548.31457031 58.65458984 547.47851562 58.57324219 C537.67143815 57.77273516 527.83332311 57.78152551 518 57.75 C517.15315643 57.74473297 516.30631287 57.73946594 515.43380737 57.73403931 C506.65127979 57.69188046 498.16495175 57.7689958 489.51855469 59.52246094 Z " fill="#FCFCFC" transform="translate(0,0)"/>
<path d="M0 0 C2.9395165 0.55090595 5.8113014 1.20884305 8.70947778 1.95488393 C22.68376958 5.43408395 36.26051796 5.56121027 50.59707642 5.50552368 C53.25520162 5.50997382 55.9132807 5.51601174 58.57139337 5.52397859 C64.32057493 5.53806951 70.06960681 5.5376226 75.81879425 5.52728081 C84.36787632 5.51198361 92.91683118 5.51984608 101.46591232 5.53231989 C115.85381105 5.55270807 130.24165758 5.55495752 144.62956619 5.54698563 C158.8707502 5.53921351 173.11188875 5.54061706 187.35306931 5.55381393 C188.24049176 5.55463507 189.12791422 5.55545621 190.04222827 5.55630223 C194.54967002 5.56053407 199.05711157 5.56494977 203.56455307 5.56945018 C235.453354 5.60109654 267.34214141 5.61583498 299.23095703 5.61914062 C301.1570877 5.6193463 303.08321837 5.61955235 305.00934903 5.61975877 C306.44087847 5.61991109 306.44087847 5.61991109 307.90132769 5.62006648 C312.72983207 5.62058133 317.55833644 5.62110543 322.38684082 5.62164307 C323.82309709 5.62180017 323.82309709 5.62180017 325.28836863 5.62196045 C347.54983198 5.62448228 369.81129253 5.63213335 392.07275391 5.64160156 C393.02689123 5.64200339 393.98102856 5.64240521 394.96407914 5.64281921 C416.74721077 5.65203732 438.53033945 5.66362505 460.31346703 5.67987633 C461.22881334 5.68055678 462.14415965 5.68123724 463.08724373 5.68193832 C471.32082064 5.68807971 479.55439747 5.69431609 487.78797393 5.70105521 C508.31811836 5.71785214 528.84823744 5.72876223 549.37838924 5.7251381 C563.67568058 5.72263371 577.9729566 5.72651135 592.27024432 5.73721983 C600.76456951 5.74332065 609.25885195 5.74368796 617.75317608 5.73601966 C623.42607121 5.73142979 629.09893356 5.73402657 634.7718242 5.74245259 C638.00423363 5.74703595 641.23654164 5.74733723 644.46895058 5.74099393 C647.95247647 5.73462568 651.43577523 5.7405079 654.91929054 5.74946022 C655.92020609 5.74466715 656.92112164 5.73987408 657.95236796 5.73493576 C672.81281244 5.81281244 672.81281244 5.81281244 677 10 C679.06874034 10.6425235 679.06874034 10.6425235 681 11 C681 11.66 681 12.32 681 13 C682.08474609 13.35771484 682.08474609 13.35771484 683.19140625 13.72265625 C692.4581338 17.93714847 697.68995522 27.25906806 702 36 C702.4966214 36.72803833 702.9932428 37.45607666 703.50491333 38.20617676 C708.81443302 48.12791561 707.27444978 63.05132283 707.1953125 74.09375 C707.19156859 75.66271786 707.18872817 77.23168811 707.18673706 78.80065918 C707.1792088 82.87102048 707.15965749 86.94123223 707.1373291 91.01153564 C707.11663353 95.18865945 707.10768539 99.36580813 707.09765625 103.54296875 C707.07639787 111.69538008 707.04239795 119.84767128 707 128 C706.28107512 128.00238835 705.56215023 128.00477671 704.82143974 128.00723743 C687.27481762 128.0665443 669.72834074 128.14219371 652.1818676 128.23571491 C643.69629031 128.28055406 635.21075388 128.31999565 626.72509766 128.34643555 C619.32329316 128.36951236 611.92161927 128.40301714 604.51991856 128.44870156 C600.60594041 128.47250415 596.69209055 128.49131734 592.77804184 128.49761391 C589.08271547 128.50372413 585.3877168 128.5239336 581.69251251 128.55427551 C579.71284314 128.56705667 577.73309683 128.56550217 575.75338745 128.5632782 C568.27315463 128.64053025 561.4284367 129.51777778 554.15260506 131.2735014 C551.04452415 131.98973968 547.97403974 132.46572966 544.8125 132.875 C538.61515672 133.88196595 533.57061725 136.18474182 528 139 C526.8965625 139.5053125 525.793125 140.010625 524.65625 140.53125 C514.72085406 145.19121447 505.97696454 150.91684134 498.25390625 158.8046875 C496 161 496 161 494 161 C493.938125 161.8353125 493.938125 161.8353125 493.875 162.6875 C492.77534639 165.59372741 490.94240473 166.69089107 488.58203125 168.60131836 C480.54478556 175.70708696 475.33266031 187.43565237 471 197 C470.2884375 198.53720703 470.2884375 198.53720703 469.5625 200.10546875 C465.58942031 209.43511123 464.29646538 219.01827061 463 229 C462.34 229 461.68 229 461 229 C461.04477777 234.40421324 461.11523955 239.80732626 461.20751953 245.2109375 C461.23540216 247.04157661 461.25677568 248.87232879 461.27099609 250.703125 C461.37046469 262.79850613 462.60690136 273.37722199 466 285 C466.51409077 287.20509564 467.01660606 289.41297233 467.5 291.625 C468.63116524 296.23715439 470.23899239 299.19171364 473 303 C473 304.32 473 305.64 473 307 C473.66 307 474.32 307 475 307 C475.30550781 307.71542969 475.61101562 308.43085937 475.92578125 309.16796875 C480.03459293 318.1147615 485.48580371 324.71716697 492 332 C492.58523438 332.72960937 493.17046875 333.45921875 493.7734375 334.2109375 C497.40432079 338.72650301 501.6064175 342.28553173 506.125 345.875 C506.72352783 346.35211426 507.32205566 346.82922852 507.9387207 347.32080078 C511.1637508 349.81566075 514.07715636 351.71212303 518 353 C518 353.66 518 354.32 518 355 C518.60328125 355.18175781 519.2065625 355.36351562 519.828125 355.55078125 C520.62734375 355.80214844 521.4265625 356.05351563 522.25 356.3125 C523.03890625 356.55613281 523.8278125 356.79976562 524.640625 357.05078125 C527.14508848 358.05837169 528.86733785 359.36272001 531 361 C537.02154748 364.06531674 543.08654974 365.58022994 549.75 366.5078125 C551.50964454 366.77429713 553.26921002 367.06389994 555.00080776 367.4749136 C562.45715791 369.21085658 569.70844987 369.29954458 577.33813477 369.30297852 C578.75669328 369.310655 580.17524729 369.31920423 581.59379578 369.32855225 C584.62751814 369.34671281 587.66118035 369.35882576 590.6949482 369.36609077 C595.48899551 369.37763987 600.28290915 369.40311783 605.07688904 369.43040466 C612.6508182 369.47191005 620.22475388 369.50439976 627.79874223 369.53287882 C641.38983493 369.58405161 654.98087269 369.64592243 668.57186931 369.71821922 C673.34178153 369.74317079 678.11167562 369.76258703 682.88162911 369.77760136 C685.83710892 369.78777079 688.79256027 369.80191461 691.74801826 369.81707764 C693.1231113 369.82325602 694.49821332 369.82770244 695.87331772 369.83033562 C697.74230637 369.83412079 699.61127834 369.84448278 701.48023987 369.85523987 C703.05223318 369.86102224 703.05223318 369.86102224 704.65598392 369.86692142 C707 370 707 370 708 371 C708.10459739 372.98228937 708.13855792 374.96833343 708.14526367 376.95336914 C708.15483345 378.86654686 708.15483345 378.86654686 708.16459656 380.81837463 C708.16612609 382.22396812 708.16723959 383.62956212 708.16796875 385.03515625 C708.17118153 386.47187839 708.17454562 387.90860021 708.17805481 389.34532166 C708.18405633 392.36588294 708.18589392 395.38641559 708.18530273 398.40698242 C708.18520163 402.26137115 708.19879495 406.1155735 708.21607494 409.96991825 C708.22724985 412.94265062 708.22922018 415.91533892 708.22869301 418.88809013 C708.22986713 420.30772983 708.23425677 421.72737089 708.24202538 423.14698982 C708.27810466 430.42808786 708.23466007 437.03912105 706 444 C705.77884521 444.74362793 705.55769043 445.48725586 705.32983398 446.25341797 C705.13719971 446.82721191 704.94456543 447.40100586 704.74609375 447.9921875 C704.42415039 448.95511719 704.42415039 448.95511719 704.09570312 449.9375 C703.87849609 450.576875 703.66128906 451.21625 703.4375 451.875 C703.21642578 452.53757812 702.99535156 453.20015625 702.76757812 453.8828125 C701.14132861 458.71734278 701.14132861 458.71734278 700 461 C699.34 461 698.68 461 698 461 C697.74347656 461.73347656 697.48695313 462.46695312 697.22265625 463.22265625 C693.76866396 471.06862596 686.45784727 477.0544584 679 481 C678.34 481 677.68 481 677 481 C676.67 481.99 676.34 482.98 676 484 C673.890625 484.87890625 673.890625 484.87890625 671.25 485.5625 C668.51421514 486.30263443 665.98267502 487.00742499 663.375 488.125 C656.85078552 490.52865797 649.52110321 490.14575572 642.66144657 490.13701439 C641.640908 490.13966622 640.62036943 490.14231804 639.56890544 490.14505023 C636.14529794 490.1527167 632.72172646 490.15330138 629.29811096 490.15390015 C626.82019178 490.1579165 624.34227325 490.16235501 621.8643555 490.1671797 C615.76584325 490.17787831 609.66734194 490.18389663 603.56882291 490.18788858 C596.2623672 490.19290818 588.95592257 490.20363723 581.64947342 490.21437032 C563.15250239 490.24118506 544.65552612 490.25625067 526.15854135 490.26971143 C521.14703223 490.27338336 516.13552342 490.27738612 511.12401462 490.2814641 C479.99954461 490.30672509 448.87507405 490.32876673 417.75059605 490.34119225 C410.54312195 490.34411342 403.33564788 490.34708098 396.12817383 490.35009766 C395.23276452 490.35046857 394.33735521 490.35083947 393.41481229 490.35122162 C364.38898394 490.36337487 335.36321626 490.39431728 306.3374164 490.43601918 C276.4825062 490.47883389 246.62762805 490.50543659 216.77268632 490.51066696 C212.55344854 490.51140736 208.3342108 490.51231804 204.11497307 490.51332474 C202.86946548 490.51361066 202.86946548 490.51361066 201.59879611 490.51390236 C188.25387404 490.51741137 174.90902816 490.53768791 161.56413403 490.56412137 C148.14246857 490.59030542 134.72089087 490.59797675 121.29920352 490.58702008 C113.3330799 490.58105739 105.36725463 490.58888031 97.40117635 490.61685092 C91.4412806 490.63622237 85.48171411 490.62922989 79.5217986 490.61228175 C77.11932285 490.6094853 74.7168188 490.61506026 72.31438846 490.63009469 C40.92340806 490.81444801 40.92340806 490.81444801 30 482 C28.2984375 481.2884375 28.2984375 481.2884375 26.5625 480.5625 C14.26202377 475.16755428 6.87962025 461.96250395 2 450 C0.4460632 444.60689044 -0.28904505 439.73769572 -0.24609566 434.11273956 C-0.24840335 433.35724764 -0.25071103 432.60175572 -0.25308865 431.8233701 C-0.25836638 429.30146805 -0.24942322 426.77982336 -0.24050903 424.25793457 C-0.24138156 422.42786776 -0.2431334 420.59780119 -0.24568737 418.76773596 C-0.2501557 413.74628305 -0.24216423 408.72491559 -0.23213124 403.70347357 C-0.22349167 398.28570403 -0.22641726 392.86793928 -0.22793579 387.45016479 C-0.22898432 378.06595214 -0.22271105 368.6817673 -0.21146011 359.29756165 C-0.19520376 345.72959032 -0.18999697 332.16163244 -0.18748413 318.59365243 C-0.18310724 296.58033097 -0.1697983 274.56702434 -0.15087891 252.55371094 C-0.13251995 231.17024803 -0.11836352 209.78678948 -0.10986328 188.40332031 C-0.10933783 187.08517006 -0.10881239 185.7670198 -0.10827102 184.40892559 C-0.10566094 177.7961312 -0.10313352 171.18333678 -0.10064721 164.57054234 C-0.07991491 109.71368465 -0.04468954 54.85684304 0 0 Z " fill="#E8E8E8" transform="translate(126,418)"/>
<path d="M0 0 C0 0.66 0 1.32 0 2 C1.7325 1.9071875 1.7325 1.9071875 3.5 1.8125 C14.71679709 1.8125 26.23703787 5.12579989 37 8 C37 8.66 37 9.32 37 10 C37.61746094 10.09796875 38.23492188 10.1959375 38.87109375 10.296875 C45.08830671 11.39458688 50.35307481 13.20949611 56 16 C56.94875 16.433125 57.8975 16.86625 58.875 17.3125 C68.71267673 22.62484543 80.271522 29.23067724 88.19140625 37.20703125 C89.97162058 39.23683411 89.97162058 39.23683411 93 40 C94.47265625 41.49609375 94.47265625 41.49609375 96.0625 43.4375 C98.84569912 46.73632338 101.76579956 49.75685059 104.875 52.75 C118.85751319 66.58262407 118.85751319 66.58262407 120 74 C120.66 74 121.32 74 122 74 C124 77 124 77 124 81 C124.66 81 125.32 81 126 81 C128 84 128 84 128 87 C128.66 87 129.32 87 130 87 C130.56267578 88.55847656 130.56267578 88.55847656 131.13671875 90.1484375 C134.45398515 99.33617371 134.45398515 99.33617371 138.6875 108.125 C141.44668241 113.46762072 142.56334764 118.87221838 143.59667969 124.76904297 C144.05107294 127.28250877 144.56194836 129.78206384 145.0703125 132.28515625 C148.04610791 147.61309025 148.52605375 162.42151705 148 178 C147.97776367 178.80920898 147.95552734 179.61841797 147.93261719 180.45214844 C147.57369329 192.32877956 144.77086795 202.83019824 141 214 C140.72510742 214.82467773 140.45021484 215.64935547 140.16699219 216.49902344 C139.30891421 219.06537607 138.43680037 221.6266335 137.5625 224.1875 C137.27568359 225.05052734 136.98886719 225.91355469 136.69335938 226.80273438 C134.98830731 231.76599284 132.96757025 235.64009063 130 240 C129.01 242.64 128.02 245.28 127 248 C106.87 248 86.74 248 66 248 C67.63243826 243.91890435 68.8786568 241.53637701 71.5 238.1875 C72.1084375 237.39730469 72.716875 236.60710937 73.34375 235.79296875 C73.8903125 235.20128906 74.436875 234.60960937 75 234 C75.66 234 76.32 234 77 234 C77.24105469 233.33097656 77.48210937 232.66195312 77.73046875 231.97265625 C79.30921478 228.2759617 81.29302202 224.90715709 83.3125 221.4375 C89.67368481 210.25900851 93.68614854 199.71677713 96 187 C96.66 187 97.32 187 98 187 C98.02503974 182.11108762 98.0430178 177.22221397 98.05493164 172.33325195 C98.05990735 170.67601876 98.06669032 169.01878983 98.07543945 167.36157227 C99.17740149 149.40732461 99.17740149 149.40732461 94 133 C92.99542411 130.44464438 92.04045841 127.89865473 91.125 125.3125 C89.05510014 119.60166586 86.77074788 114.1784316 83.8828125 108.8203125 C83 107 83 107 83 105 C82.34 105 81.68 105 81 105 C78 100.61538462 78 100.61538462 78 98 C77.01 97.67 76.02 97.34 75 97 C74.773125 96.29875 74.54625 95.5975 74.3125 94.875 C72.60376239 91.13205095 70.14536349 89.29735664 67.01953125 86.6953125 C64.53014286 84.60557447 62.29731375 82.29731375 60 80 C58.90234344 79.09620164 57.7980429 78.20041658 56.6875 77.3125 C55.800625 76.549375 54.91375 75.78625 54 75 C54 74.34 54 73.68 54 73 C53.25492188 72.72542969 52.50984375 72.45085937 51.7421875 72.16796875 C49.20774044 71.08848204 47.33360144 69.93125407 45.125 68.3125 C32.68652326 59.93848446 19.50485377 56.15663185 5 53 C3.9584375 52.7525 2.916875 52.505 1.84375 52.25 C-9.62988674 49.76174143 -21.43487712 50.5993139 -32.9140625 52.5625 C-35.98738582 52.99821166 -38.90063025 53.07445933 -42 53 C-42 53.66 -42 54.32 -42 55 C-42.59425781 55.08636719 -43.18851563 55.17273438 -43.80078125 55.26171875 C-63.66302801 58.62872481 -80.75532496 71.45555477 -95 85 C-95.6496875 85.57363281 -96.299375 86.14726562 -96.96875 86.73828125 C-111.7589712 100.23784635 -120.28832197 120.87173656 -124.54345703 139.96875 C-124.91270288 141.61159785 -125.32313129 143.24515512 -125.74609375 144.875 C-128.88492133 158.38278213 -128.01482309 174.57033351 -125 188 C-124.731875 189.19625 -124.46375 190.3925 -124.1875 191.625 C-120.88714432 205.04644643 -115.43342889 217.19409801 -108.1875 228.9375 C-107 231 -107 231 -107 233 C-106.34 233 -105.68 233 -105 233 C-103.59731078 234.69491614 -102.27609654 236.457835 -101 238.25 C-100.29875 239.22453125 -99.5975 240.1990625 -98.875 241.203125 C-97 244 -97 244 -95 248 C-115.13 248 -135.26 248 -156 248 C-165.15623457 229.68753087 -173.59747958 211.46579339 -175.67578125 190.90625 C-175.9043113 187.93857217 -175.9043113 187.93857217 -177 185 C-177.20822542 180.4652354 -177.18579482 175.9276538 -177.18530273 171.38867188 C-177.18745849 169.16776457 -177.20553274 166.94737987 -177.22460938 164.7265625 C-177.26000576 155.95643321 -176.62456629 147.64529425 -175 139 C-174.76494751 137.62328125 -174.76494751 137.62328125 -174.52514648 136.21875 C-172.7563451 125.87368299 -170.81886034 115.81122098 -167 106 C-166.34 106 -165.68 106 -165 106 C-164.89558594 105.16210938 -164.79117187 104.32421875 -164.68359375 103.4609375 C-163.92309995 99.61066601 -162.63711754 96.19679067 -161.0625 92.625 C-160.76255127 91.94179687 -160.46260254 91.25859375 -160.15356445 90.5546875 C-157.69157568 85.14312631 -154.82028969 80.04958106 -151.6875 75 C-151.2551001 74.29955566 -150.8227002 73.59911133 -150.37719727 72.87744141 C-149.31187394 71.21141913 -148.16324159 69.59919136 -147 68 C-146.34 68 -145.68 68 -145 68 C-144.75636719 67.27425781 -144.51273437 66.54851562 -144.26171875 65.80078125 C-142.84485241 62.65560117 -141.16884189 60.69795719 -138.8125 58.1875 C-135.23558602 54.33943286 -131.77958724 50.42900979 -128.41015625 46.3984375 C-127 45 -127 45 -125 45 C-124.731875 44.360625 -124.46375 43.72125 -124.1875 43.0625 C-123 41 -123 41 -120 40 C-118.38229612 38.24327469 -116.95965071 36.38527709 -115.5 34.49609375 C-114 33 -114 33 -111 33 C-111 32.34 -111 31.68 -111 31 C-95.11180907 18.17398805 -75.07683862 9.53342278 -55.39453125 4.60107422 C-53.83267039 4.20901657 -52.2749569 3.79992914 -50.72265625 3.37158203 C-34.072655 -1.19129743 -17.10539982 -0.40037846 0 0 Z " fill="#F2F3F3" transform="translate(534,118)"/>
<path d="M0 0 C1.38076774 0.00056532 2.76153608 0.0002452 4.14230347 -0.00088501 C7.86065475 -0.0014548 11.57887489 0.01023846 15.29719591 0.02426291 C19.19424797 0.03683304 23.0913036 0.03794569 26.9883728 0.04031372 C34.35458971 0.04651013 41.72074669 0.06289585 49.08693731 0.0830127 C59.05036082 0.10962725 69.01380092 0.12035922 78.97725105 0.13201714 C94.65594005 0.15077792 110.33450263 0.19063578 126.01318359 0.22705078 C126.01318359 43.78705078 126.01318359 87.34705078 126.01318359 132.22705078 C104.25380859 132.28892578 82.49443359 132.35080078 60.07568359 132.41455078 C53.23470947 132.44186279 46.39373535 132.4691748 39.34545898 132.49731445 C30.91638184 132.51086426 30.91638184 132.51086426 26.95579529 132.51338196 C24.22136966 132.51795379 21.4873773 132.52727581 18.7530365 132.54377747 C-19.8858884 132.76625559 -19.8858884 132.76625559 -29.98681641 126.22705078 C-31.20369141 125.73205078 -32.42056641 125.23705078 -33.67431641 124.72705078 C-36.98681641 123.22705078 -36.98681641 123.22705078 -38.98681641 120.22705078 C-39.76154297 119.76427734 -40.53626953 119.30150391 -41.33447266 118.82470703 C-49.3969488 113.96822287 -54.52729831 105.26769704 -58.98681641 97.22705078 C-59.74285156 96.13070312 -59.74285156 96.13070312 -60.51416016 95.01220703 C-68.03309448 80.79204741 -67.81486371 59.84601162 -64.09228516 44.64111328 C-60.55977097 33.73151116 -54.65424905 22.91820667 -45.98681641 15.22705078 C-45.32681641 15.22705078 -44.66681641 15.22705078 -43.98681641 15.22705078 C-43.65681641 14.23705078 -43.32681641 13.24705078 -42.98681641 12.22705078 C-41.99681641 12.22705078 -41.00681641 12.22705078 -39.98681641 12.22705078 C-39.98681641 11.23705078 -39.98681641 10.24705078 -39.98681641 9.22705078 C-29.6132401 3.48673187 -29.6132401 3.48673187 -23.98681641 4.22705078 C-23.98681641 3.56705078 -23.98681641 2.90705078 -23.98681641 2.22705078 C-15.95110063 0.1917097 -8.25979824 -0.04665002 0 0 Z " fill="#F2F2F2" transform="translate(706.98681640625,600.77294921875)"/>
<path d="M0 0 C1.69843552 -0.00021904 1.69843552 -0.00021904 3.43118286 -0.0004425 C7.16459078 0.00025279 10.89794848 0.00802729 14.63134766 0.01586914 C17.22352064 0.01773468 19.81569397 0.01915794 22.40786743 0.02015686 C28.52755624 0.02358168 34.64722439 0.03145897 40.76690543 0.04150635 C47.73667971 0.05270001 54.70645487 0.05818613 61.67623591 0.06320179 C76.00763695 0.07364248 90.33902292 0.09122162 104.67041016 0.11352539 C104.70455772 1.39226532 104.70455772 1.39226532 104.73939514 2.69683838 C104.82797103 5.91150433 104.92168611 9.12597129 105.01869202 12.34039307 C105.05937318 13.72192727 105.09810603 15.10352047 105.13471985 16.48516846 C105.39788082 26.34889765 106.21761096 35.86094466 107.92431641 45.57055664 C108.59997538 49.44995831 108.99940653 53.311623 109.34008789 57.23291016 C110.00404461 64.72906841 111.36773044 71.0130988 114.36181641 77.99633789 C119.67041016 90.6418836 119.67041016 90.6418836 119.67041016 96.11352539 C98.79952294 96.16026091 77.92864436 96.19552186 57.05771542 96.21714973 C47.36682828 96.22745916 37.67597368 96.24151316 27.98510742 96.2644043 C19.53784986 96.28434834 11.09061586 96.29724425 2.6433354 96.30170238 C-1.82878469 96.30430803 -6.30083739 96.31042558 -10.77293587 96.3249855 C-14.98438351 96.33858541 -19.19573615 96.34274315 -23.40720367 96.33974075 C-24.9507111 96.34028984 -26.49422179 96.34425292 -28.03771019 96.35193634 C-30.15046419 96.36193545 -32.26286281 96.35947641 -34.37562561 96.35403442 C-35.55644242 96.35587801 -36.73725924 96.3577216 -37.95385838 96.35962105 C-41.71071002 96.08574118 -44.75378488 95.26250441 -48.32958984 94.11352539 C-48.32958984 93.45352539 -48.32958984 92.79352539 -48.32958984 92.11352539 C-49.34021484 91.96915039 -50.35083984 91.82477539 -51.39208984 91.67602539 C-57.70905645 89.89497395 -60.74055314 83.65892677 -64.01708984 78.41040039 C-65.75912894 74.0345641 -65.6955288 70.27282234 -65.57958984 65.61352539 C-65.57185547 64.37022461 -65.57185547 64.37022461 -65.56396484 63.10180664 C-65.50764846 58.67393135 -65.20653799 54.46997749 -64.32958984 50.11352539 C-63.66958984 50.11352539 -63.00958984 50.11352539 -62.32958984 50.11352539 C-62.24322266 49.43547852 -62.15685547 48.75743164 -62.06787109 48.05883789 C-59.53319592 31.26952162 -49.20761925 19.60459568 -36.32958984 9.11352539 C-33.43436097 7.22419175 -30.64375804 5.71471033 -27.39208984 4.55102539 C-26.70501953 4.30481445 -26.01794922 4.05860352 -25.31005859 3.80493164 C-24.65650391 3.57676758 -24.00294922 3.34860352 -23.32958984 3.11352539 C-22.29833984 2.74227539 -21.26708984 2.37102539 -20.20458984 1.98852539 C-13.47708815 -0.05897513 -6.96892905 -0.02356777 0 0 Z " fill="#F4F4F4" transform="translate(192.32958984375,270.886474609375)"/>
<path d="M0 0 C2.58957326 1.78126715 4.79034923 3.77257724 7 6 C7.721875 6.639375 8.44375 7.27875 9.1875 7.9375 C14.84340664 14.37353169 17.28732178 21.49063467 17.25 30 C17.25773438 31.7634375 17.25773438 31.7634375 17.265625 33.5625 C16.99850304 37.01937245 16.23880483 39.77517473 15 43 C14.01 43 13.02 43 12 43 C11.9071875 43.804375 11.9071875 43.804375 11.8125 44.625 C9.29013095 51.99807876 2.31420605 55.99766718 -4 59.8125 C-12.64404882 63.11928378 -22.13406924 61.9106518 -30.375 58.25 C-37.46916909 54.29626899 -42.17752474 49.19915315 -46 42 C-48.23209732 32.92280422 -48.83940421 21.35389006 -44.5 12.875 C-34.62947867 -2.35842754 -16.81566422 -8.09197437 0 0 Z " fill="#060606" transform="translate(731,638)"/>
<path d="M0 0 C0.33 0 0.66 0 1 0 C1.33 55.44 1.66 110.88 2 168 C2.66 168.33 3.32 168.66 4 169 C4.02335158 196.14658965 4.0409903 223.2931778 4.05181217 250.43977547 C4.05697032 263.04416362 4.06400388 275.64854554 4.07543945 288.25292969 C4.08540096 299.23781363 4.09185694 310.22269306 4.09408849 321.2075814 C4.0953931 327.02495055 4.09846321 332.84230677 4.10573006 338.65967178 C4.11251337 344.13427008 4.11461223 349.60885012 4.11310768 355.08345222 C4.11338297 357.09340451 4.11537438 359.1033574 4.11920547 361.11330605 C4.12417878 363.85690138 4.12298481 366.60042773 4.12025452 369.34402466 C4.12316736 370.1397558 4.1260802 370.93548695 4.12908131 371.75533116 C4.11778648 375.95307179 3.80104257 379.86163004 3 384 C2.86635796 385.5785969 2.75946349 387.15976147 2.68359375 388.7421875 C2.64169922 389.58007812 2.59980469 390.41796875 2.55664062 391.28125 C2.51732422 392.1371875 2.47800781 392.993125 2.4375 393.875 C2.39431641 394.75414062 2.35113281 395.63328125 2.30664062 396.5390625 C2.20130661 398.69255797 2.10022351 400.84626064 2 403 C1.01 401.515 1.01 401.515 0 400 C-1.485 403.96 -1.485 403.96 -3 408 C-3.33 408 -3.66 408 -4 408 C-3.56456329 402.82059497 -2.97360559 397.75025468 -1.97834206 392.64669418 C-0.70412598 385.07531418 -0.71054985 377.55366166 -0.7215271 369.90289307 C-0.71651535 368.30036062 -0.710637 366.69783069 -0.70397437 365.09530425 C-0.68826668 360.7213958 -0.68474881 356.34755175 -0.68332577 351.97361851 C-0.6796155 347.2457505 -0.66445198 342.51791715 -0.65071106 337.79006958 C-0.62848535 329.60858782 -0.61344392 321.42711847 -0.60334396 313.2456131 C-0.58873082 301.41667348 -0.56318663 289.58777711 -0.53501268 277.75886294 C-0.48959252 258.56516489 -0.452958 239.3714606 -0.421875 220.17773438 C-0.39166988 201.53774927 -0.3573106 182.89777942 -0.31738281 164.2578125 C-0.31492126 163.10798489 -0.31245972 161.95815728 -0.30992357 160.77348641 C-0.29754859 155.00488237 -0.28509213 149.23627851 -0.27259517 143.46767473 C-0.16909891 95.6451378 -0.07987209 47.82258182 0 0 Z " fill="#C5C5C6" transform="translate(890,471)"/>
<path d="M0 0 C0.99 0.33 1.98 0.66 3 1 C2.68289063 2.051875 2.36578125 3.10375 2.0390625 4.1875 C0.57159648 10.05736408 0.5405503 15.97810777 0.375 22 C0.31699219 23.73443359 0.31699219 23.73443359 0.2578125 25.50390625 C0.16419668 28.3357848 0.07846325 31.16766794 0 34 C-0.66 34 -1.32 34 -2 34 C-1.855625 35.27875 -1.71125 36.5575 -1.5625 37.875 C-1.48128906 38.59429687 -1.40007812 39.31359375 -1.31640625 40.0546875 C-1.08707039 42.07404316 -1.08707039 42.07404316 0 44 C-0.4375 46.125 -0.4375 46.125 -1 48 C-1.66 48 -2.32 48 -3 48 C-2.83395264 49.00015137 -2.66790527 50.00030273 -2.49682617 51.03076172 C-1.65223667 56.97374121 -2.04430519 62.94523089 -2.24194336 68.92529297 C-2.31252603 71.12581159 -2.36672329 73.32634432 -2.41992188 75.52734375 C-2.46254956 76.93753034 -2.50613638 78.34768833 -2.55078125 79.7578125 C-2.58856689 81.0277002 -2.62635254 82.29758789 -2.6652832 83.60595703 C-2.9843462 86.84126978 -3.7478178 89.04018224 -5 92 C-5 93.32 -5 94.64 -5 96 C-4.01 96 -3.02 96 -2 96 C-2.33 98.97 -2.66 101.94 -3 105 C-2.34 105 -1.68 105 -1 105 C-0.67 103.68 -0.34 102.36 0 101 C0.05399736 102.45792884 0.09279177 103.91642712 0.125 105.375 C0.14820313 106.18710937 0.17140625 106.99921875 0.1953125 107.8359375 C0 110 0 110 -2 112 C-5.33470326 103.02684809 -7.63493494 94.58081674 -8.640625 85.046875 C-8.90003891 81.96167473 -8.90003891 81.96167473 -10 79 C-10.20822542 74.4652354 -10.18579482 69.9276538 -10.18530273 65.38867188 C-10.18745849 63.16776457 -10.20553274 60.94737987 -10.22460938 58.7265625 C-10.26000576 49.95643321 -9.62456629 41.64529425 -8 33 C-7.84329834 32.0821875 -7.68659668 31.164375 -7.52514648 30.21875 C-5.7563451 19.87368299 -3.81886034 9.81122098 0 0 Z " fill="#DADADA" transform="translate(367,224)"/>
<path d="M0 0 C0.33 0 0.66 0 1 0 C1.33 142.89 1.66 285.78 2 433 C2.33 433 2.66 433 3 433 C3 438.61 3 444.22 3 450 C-0.29084065 445.06373902 -0.14489035 440.268713 -0.12304783 434.48188305 C-0.12420167 433.72985266 -0.12535552 432.97782227 -0.12654433 432.20300308 C-0.12919803 429.67487926 -0.12469906 427.1468187 -0.12025452 424.61869812 C-0.12069047 422.79122093 -0.12156583 420.9637438 -0.12284368 419.13626701 C-0.12508384 414.10806017 -0.12107386 409.07987456 -0.11606562 404.05167043 C-0.11175448 398.63180311 -0.11320802 393.21193703 -0.1139679 387.79206848 C-0.11449271 378.3996267 -0.11135035 369.00719185 -0.10573006 359.61475182 C-0.09760929 346.03479369 -0.09499924 332.45483892 -0.09374207 318.87487862 C-0.09155246 296.84326028 -0.08489483 274.81164563 -0.07543945 252.7800293 C-0.06626299 231.37605813 -0.05917176 209.97208797 -0.05493164 188.56811523 C-0.05466892 187.24917681 -0.05440619 185.93023838 -0.05413551 184.57133212 C-0.05283049 177.9547258 -0.05156678 171.33811948 -0.05032361 164.72151315 C-0.03995382 109.81433955 -0.02233797 54.90716995 0 0 Z " fill="#AEAFAF" transform="translate(126,418)"/>
<path d="M0 0 C0.66 0.66 1.32 1.32 2 2 C2.66 1.34 3.32 0.68 4 0 C4 6.27 4 12.54 4 19 C4.66 19.33 5.32 19.66 6 20 C6.02333358 41.34840061 6.04098144 62.69679912 6.05181217 84.04520988 C6.05697415 93.95706483 6.06401499 103.86891185 6.07543945 113.78076172 C6.08538928 122.41731399 6.09185414 131.05386052 6.09408849 139.69041836 C6.09539509 144.26575563 6.09847775 148.84107651 6.10573006 153.41640854 C6.11249497 157.71892779 6.11461599 162.02142384 6.11310768 166.32394791 C6.1133838 167.90664038 6.11538614 169.48933359 6.11920547 171.07202148 C6.12415006 173.22584884 6.12299544 175.37958752 6.12025452 177.53341675 C6.12117631 178.74096556 6.1220981 179.94851437 6.12304783 181.19265556 C6 184 6 184 5 186 C4.77377919 187.70363822 4.59111527 189.41328701 4.4375 191.125 C4.35371094 192.03507813 4.26992188 192.94515625 4.18359375 193.8828125 C4.12300781 194.58148437 4.06242188 195.28015625 4 196 C3.67 196 3.34 196 3 196 C2.99668985 195.09922792 2.99337971 194.19845585 2.98996925 193.27038765 C2.90850477 171.28275969 2.81633698 149.29519886 2.71247292 127.30766487 C2.66249776 116.6743626 2.616054 106.04106747 2.578125 95.40771484 C2.5450304 86.1322555 2.5051048 76.85685408 2.45720994 67.58145893 C2.43211731 62.67698065 2.41028667 57.77253993 2.39665604 52.86801529 C2.3836773 48.23707443 2.36145868 43.60626356 2.33261681 38.9753952 C2.32366288 37.28978521 2.31787994 35.60415436 2.31578636 33.91852188 C2.29906659 22.48558508 1.46866314 11.33893846 0 0 Z " fill="#E6E6E6" transform="translate(888,453)"/>
<path d="M0 0 C1.13229034 -0.00014603 2.26458069 -0.00029205 3.43118286 -0.0004425 C7.16459078 0.00025279 10.89794848 0.00802729 14.63134766 0.01586914 C17.22352064 0.01773468 19.81569397 0.01915794 22.40786743 0.02015686 C28.52755624 0.02358168 34.64722439 0.03145897 40.76690543 0.04150635 C47.73667971 0.05270001 54.70645487 0.05818613 61.67623591 0.06320179 C76.00763854 0.07364248 90.33902003 0.09197493 104.67041016 0.11352539 C104.67041016 9.02352539 104.67041016 17.93352539 104.67041016 27.11352539 C104.34041016 27.11352539 104.01041016 27.11352539 103.67041016 27.11352539 C103.67041016 18.53352539 103.67041016 9.95352539 103.67041016 1.11352539 C81.89041016 1.44352539 60.11041016 1.77352539 37.67041016 2.11352539 C37.34041016 2.77352539 37.01041016 3.43352539 36.67041016 4.11352539 C35.44112793 4.10305176 34.2118457 4.09257812 32.9453125 4.08178711 C28.31952914 4.04517925 23.69375817 4.02247877 19.06787109 4.00366211 C17.07794023 3.99369638 15.08802364 3.98011892 13.09814453 3.96264648 C-1.19158594 3.8404506 -14.43233878 4.51053438 -28.32958984 8.11352539 C-29.64958984 8.11352539 -30.96958984 8.11352539 -32.32958984 8.11352539 C-32.32958984 8.77352539 -32.32958984 9.43352539 -32.32958984 10.11352539 C-32.98958984 10.11352539 -33.64958984 10.11352539 -34.32958984 10.11352539 C-33.99958984 11.76352539 -33.66958984 13.41352539 -33.32958984 15.11352539 C-36.29958984 14.61852539 -36.29958984 14.61852539 -39.32958984 14.11352539 C-39.39146484 14.73227539 -39.45333984 15.35102539 -39.51708984 15.98852539 C-39.78521484 16.68977539 -40.05333984 17.39102539 -40.32958984 18.11352539 C-41.07208984 18.38165039 -41.81458984 18.64977539 -42.57958984 18.92602539 C-46.10839734 20.44982863 -47.2189831 22.46467424 -49.21630859 25.65258789 C-49.58369141 26.13469727 -49.95107422 26.61680664 -50.32958984 27.11352539 C-50.98958984 27.11352539 -51.64958984 27.11352539 -52.32958984 27.11352539 C-49.02336604 17.58962698 -39.56694199 11.32049397 -31.32958984 6.11352539 C-28.66099173 4.8228609 -26.18609027 3.9850001 -23.32958984 3.11352539 C-22.29833984 2.74227539 -21.26708984 2.37102539 -20.20458984 1.98852539 C-13.47708815 -0.05897513 -6.96892905 -0.02356777 0 0 Z " fill="#A9A9A9" transform="translate(192.32958984375,270.886474609375)"/>
<path d="M0 0 C1.58177788 -0.002062 1.58177788 -0.002062 3.19551086 -0.00416565 C4.35716263 -0.00057037 5.51881439 0.0030249 6.71566772 0.00672913 C7.9351561 0.0065831 9.15464447 0.00643707 10.41108704 0.00628662 C13.76005938 0.00686497 17.10897049 0.01188906 20.457932 0.01886058 C23.95598197 0.02510104 27.45403272 0.02569847 30.9520874 0.02688599 C37.57835618 0.02999725 44.20460851 0.0382079 50.83087003 0.04823548 C58.37369686 0.05940294 65.91652447 0.06490866 73.4593575 0.06993091 C88.97758372 0.08039067 104.49579353 0.09798617 120.01400757 0.12025452 C120.01400757 0.45025452 120.01400757 0.78025452 120.01400757 1.12025452 C109.31629569 2.12160839 98.71880094 2.23091887 87.98480606 2.16485405 C85.01364902 2.14717783 82.04254779 2.13707543 79.0713501 2.12893677 C70.63372537 2.1047334 62.19617652 2.06908632 53.75863647 2.02430725 C48.56831222 1.99728562 43.37803054 1.98040172 38.18764877 1.96943855 C36.2303497 1.9633003 34.27305814 1.95338784 32.31579971 1.93935966 C8.72232095 0.99806922 8.72232095 0.99806922 -12.98599243 8.12025452 C-13.74911743 8.38837952 -14.51224243 8.65650452 -15.29849243 8.93275452 C-18.22516329 10.06630871 -18.22516329 10.06630871 -20.98599243 12.74525452 C-23.98599243 15.12025452 -23.98599243 15.12025452 -26.86099243 15.43275452 C-27.91286743 15.27806702 -27.91286743 15.27806702 -28.98599243 15.12025452 C-28.32599243 14.79025452 -27.66599243 14.46025452 -26.98599243 14.12025452 C-26.65599243 13.13025452 -26.32599243 12.14025452 -25.98599243 11.12025452 C-24.99599243 11.12025452 -24.00599243 11.12025452 -22.98599243 11.12025452 C-22.98599243 10.13025452 -22.98599243 9.14025452 -22.98599243 8.12025452 C-12.61241612 2.37993561 -12.61241612 2.37993561 -6.98599243 3.12025452 C-6.98599243 2.46025452 -6.98599243 1.80025452 -6.98599243 1.12025452 C-4.48332281 -0.13108029 -2.80105467 -0.00280667 0 0 Z " fill="#DBDBDB" transform="translate(689.9859924316406,601.8797454833984)"/>
<path d="M0 0 C0.33 0 0.66 0 1 0 C1.144375 0.763125 1.28875 1.52625 1.4375 2.3125 C1.9632594 5.08172908 1.9632594 5.08172908 3 8 C2.38125 8.721875 1.7625 9.44375 1.125 10.1875 C-3.4397536 16.22908565 -2.18289373 25.57866681 -2.1875 32.875 C-2.19974609 33.91914062 -2.21199219 34.96328125 -2.22460938 36.0390625 C-2.22654297 37.03421875 -2.22847656 38.029375 -2.23046875 39.0546875 C-2.23457764 39.95687012 -2.23868652 40.85905273 -2.24291992 41.78857422 C-2.21071363 44.20639921 -2.21071363 44.20639921 0 46 C0.5625 48.6875 0.5625 48.6875 1 52 C1.2784375 53.918125 1.2784375 53.918125 1.5625 55.875 C1.706875 56.90625 1.85125 57.9375 2 59 C2.99 59.33 3.98 59.66 5 60 C4.67 61.98 4.34 63.96 4 66 C-4.55537214 58.25942521 -5.69847359 44.35120215 -6.359375 33.3984375 C-6.72188246 21.91471903 -5.1799592 10.3599184 0 0 Z " fill="#B9B9B9" transform="translate(647,635)"/>
<path d="M0 0 C36.63 0 73.26 0 111 0 C111 0.33 111 0.66 111 1 C109.02 1 107.04 1 105 1 C105 2.65 105 4.3 105 6 C104.505 4.515 104.505 4.515 104 3 C103.26475098 3.00523682 102.52950195 3.01047363 101.77197266 3.01586914 C98.38965739 3.03685916 95.0073559 3.04972951 91.625 3.0625 C90.46871094 3.07087891 89.31242187 3.07925781 88.12109375 3.08789062 C82.04576749 3.10505256 76.10983446 2.92024991 70.07324219 2.22924805 C64.71600745 1.63687365 59.32131692 1.71417411 54 2.5625 C51 3 51 3 49 2 C47.42793357 1.88159887 45.85116731 1.82296967 44.27490234 1.79467773 C43.29403656 1.77473251 42.31317078 1.75478729 41.30258179 1.73423767 C40.24108917 1.71752518 39.17959656 1.70081268 38.0859375 1.68359375 C36.45877304 1.6524221 36.45877304 1.6524221 34.79873657 1.62062073 C31.32422379 1.55509366 27.84963376 1.49622553 24.375 1.4375 C22.02342942 1.39431779 19.67186674 1.3507036 17.3203125 1.30664062 C11.5469573 1.19940907 5.7735248 1.09764856 0 1 C0 0.67 0 0.34 0 0 Z " fill="#DBDBDB" transform="translate(184,272)"/>
<path d="M0 0 C0.33 1.32 0.66 2.64 1 4 C0.01 4.33 -0.98 4.66 -2 5 C-1.67 5.99 -1.34 6.98 -1 8 C-2.21484375 10.04296875 -2.21484375 10.04296875 -3.9375 12.1875 C-4.50339844 12.90292969 -5.06929687 13.61835938 -5.65234375 14.35546875 C-6.09707031 14.89816406 -6.54179688 15.44085938 -7 16 C-6.34 16 -5.68 16 -5 16 C-4.67 16.33 -4.34 16.66 -4 17 C2.60154376 18.06746972 9.27516167 18.13838751 15.9453125 18.09765625 C17.28914505 18.09553383 17.28914505 18.09553383 18.66012573 18.09336853 C21.48178653 18.08783441 24.30336376 18.07529489 27.125 18.0625 C29.05468634 18.05747646 30.98437395 18.05291506 32.9140625 18.04882812 C37.6094065 18.03788669 42.30468915 18.02066878 47 18 C47 18.66 47 19.32 47 20 C26.87 20 6.74 20 -14 20 C-12.36756174 15.91890435 -11.1213432 13.53637701 -8.5 10.1875 C-7.8915625 9.39730469 -7.283125 8.60710937 -6.65625 7.79296875 C-5.83640625 6.90544922 -5.83640625 6.90544922 -5 6 C-4.34 6 -3.68 6 -3 6 C-2.690625 5.195625 -2.38125 4.39125 -2.0625 3.5625 C-1 1 -1 1 0 0 Z " fill="#D7D8D9" transform="translate(614,346)"/>
<path d="M0 0 C0.33 0.66 0.66 1.32 1 2 C1.61069336 1.99333817 2.22138672 1.98667633 2.85058594 1.97981262 C9.34223024 1.91222894 15.83377119 1.86770364 22.32568359 1.83520508 C24.73230054 1.82033362 27.1388915 1.80003039 29.54541016 1.77368164 C72.47434126 1.31622751 72.47434126 1.31622751 81 7 C80.08492676 6.86287598 79.16985352 6.72575195 78.22705078 6.58447266 C62.91826102 4.50090536 47.51570525 4.55851037 32.09606934 4.39910889 C28.35432673 4.35849365 24.6127226 4.30766991 20.87109375 4.2578125 C13.58082558 4.1621201 6.29048795 4.07738921 -1 4 C-0.67 2.68 -0.34 1.36 0 0 Z " fill="#949594" transform="translate(728,362)"/>
<path d="M0 0 C0.33 0 0.66 0 1 0 C1.72163647 3.25660145 2.13177216 6.29113044 2.16113281 9.62475586 C2.17074036 10.51436508 2.1803479 11.4039743 2.19024658 12.32054138 C2.19449646 13.27566116 2.19874634 14.23078094 2.203125 15.21484375 C2.20882507 16.22100235 2.21452515 17.22716095 2.22039795 18.2638092 C2.22984089 20.40136673 2.23637913 22.53893877 2.24023438 24.67651367 C2.24978979 27.86730564 2.28075484 31.05741018 2.3125 34.24804688 C2.378536 47.22097015 1.39200221 59.64099895 -0.64491272 72.44636536 C-1.1616153 76.16226754 -1.44648526 79.89022421 -1.71928406 83.63104248 C-2.0817017 86.68947936 -3.05275618 89.01641478 -4.5625 91.6875 C-5.01753906 92.51636719 -5.47257813 93.34523438 -5.94140625 94.19921875 C-6.29074219 94.79347656 -6.64007812 95.38773437 -7 96 C-8.0844783 92.7533943 -7.91967396 91.02635372 -6.6953125 87.85546875 C3.20544412 60.25387136 0.13760984 28.81338384 0 0 Z " fill="#4A494A" transform="translate(740,254)"/>
<path d="M0 0 C0 0.66 0 1.32 0 2 C-1.08418213 2.01981934 -2.16836426 2.03963867 -3.28540039 2.06005859 C-7.33168634 2.13648765 -11.37763007 2.2251458 -15.42358398 2.31738281 C-17.17025973 2.35551913 -18.91700991 2.39039802 -20.66381836 2.421875 C-23.18370046 2.46786087 -25.7030769 2.52579747 -28.22265625 2.5859375 C-29.3824575 2.60326431 -29.3824575 2.60326431 -30.56568909 2.62094116 C-36.61551189 2.78333207 -41.85666984 3.57111322 -47 7 C-47.33 7.99 -47.66 8.98 -48 10 C-49.65 9.67 -51.3 9.34 -53 9 C-53 8.01 -53 7.02 -53 6 C-54.98 6.33 -56.96 6.66 -59 7 C-43.16999659 -3.55333561 -18.18419207 -0.54154334 0 0 Z " fill="#8E8E8E" transform="translate(534,118)"/>
<path d="M0 0 C0.33 0.99 0.66 1.98 1 3 C-1.19259821 5.94293408 -3.6343489 8.58621452 -6.09375 11.30859375 C-8.27812859 13.77337068 -8.27812859 13.77337068 -7.78125 16.34765625 C-7.39453125 17.16556641 -7.39453125 17.16556641 -7 18 C-7.680625 18.12375 -8.36125 18.2475 -9.0625 18.375 C-12.10298504 18.98435469 -12.10298504 18.98435469 -15.4375 20 C-18.62808387 20.89560249 -21.72505681 21.52074002 -25 22 C-24.67 21.34 -24.34 20.68 -24 20 C-23.01 20 -22.02 20 -21 20 C-21 19.34 -21 18.68 -21 18 C-19.60457252 16.96175352 -18.15507057 15.99599357 -16.6875 15.0625 C-10.34109193 10.77708568 -5.25169657 5.52127035 0 0 Z " fill="#D4D3D3" transform="translate(861,925)"/>
<path d="M0 0 C0.99 0.495 0.99 0.495 2 1 C2.60265805 3.14534731 3.10952625 5.3181369 3.5625 7.5 C4.10668442 11.5695459 4.10668442 11.5695459 6 15 C6.99 13.68 7.98 12.36 9 11 C10.57312496 14.67062491 11.14440048 16.44302674 10.125 20.375 C9.75375 21.24125 9.3825 22.1075 9 23 C8.34 23 7.68 23 7 23 C6.67 24.98 6.34 26.96 6 29 C4.26800387 25.90850925 3.51864731 23.1344755 2.9296875 19.6484375 C2.66865234 18.12476563 2.66865234 18.12476563 2.40234375 16.5703125 C2.14130859 14.98863281 2.14130859 14.98863281 1.875 13.375 C1.69324219 12.3128125 1.51148438 11.250625 1.32421875 10.15625 C0 2.33041588 0 2.33041588 0 0 Z " fill="#D8D9D9" transform="translate(735,225)"/>
<path d="M0 0 C-0.33 0.66 -0.66 1.32 -1 2 C-5.29581527 3.26761762 -8.50944298 4 -13 4 C-13 4.66 -13 5.32 -13 6 C-13.66 6 -14.32 6 -15 6 C-14.67 7.65 -14.34 9.3 -14 11 C-16.97 10.505 -16.97 10.505 -20 10 C-20.061875 10.61875 -20.12375 11.2375 -20.1875 11.875 C-20.455625 12.57625 -20.72375 13.2775 -21 14 C-21.7425 14.268125 -22.485 14.53625 -23.25 14.8125 C-26.7788075 16.33630324 -27.88939326 18.35114885 -29.88671875 21.5390625 C-30.25410156 22.02117187 -30.62148437 22.50328125 -31 23 C-31.66 23 -32.32 23 -33 23 C-29.73211148 13.58653009 -20.27403332 6.98959686 -12 2 C-3.31700074 -1.65850037 -3.31700074 -1.65850037 0 0 Z " fill="#BCBBBB" transform="translate(173,275)"/>
<path d="M0 0 C1.21285211 4.34851856 1.59366667 8.51090405 1 13 C-0.75 15.4375 -0.75 15.4375 -3 18 C-3.73654172 19.64558206 -4.41995535 21.31549105 -5.0625 23 C-7.8083446 30.16911177 -7.8083446 30.16911177 -10 33 C-12.1875 33.8125 -12.1875 33.8125 -14 34 C-12.36676798 28.47213779 -12.36676798 28.47213779 -10.5859375 26.1796875 C-8.67077963 23.54752471 -7.62395881 20.90251559 -6.4375 17.875 C-4.21730382 12.21730382 -4.21730382 12.21730382 -2 10 C-1.32059533 7.57284794 -1.32059533 7.57284794 -0.875 4.875 C-0.70742188 3.96492187 -0.53984375 3.05484375 -0.3671875 2.1171875 C-0.24601563 1.41851563 -0.12484375 0.71984375 0 0 Z " fill="#BFBFBF" transform="translate(885,879)"/>
<path d="M0 0 C0.33 0 0.66 0 1 0 C1 11.22 1 22.44 1 34 C0.34 33.01 -0.32 32.02 -1 31 C-1.99 33.64 -2.98 36.28 -4 39 C-4.33 39 -4.66 39 -5 39 C-4.57977953 32.97200988 -3.67922558 27.11052501 -2.5 21.1875 C-1.10611732 14.14613349 -0.35634312 7.17601316 0 0 Z " fill="#CFCFCF" transform="translate(891,840)"/>
<path d="M0 0 C0 0.33 0 0.66 0 1 C-1.98 1 -3.96 1 -6 1 C-6.33 1.99 -6.66 2.98 -7 4 C-9.33146844 5.11910485 -11.58931295 6.08940251 -14 7 C-17.9097206 8.50901497 -21.03591295 9.88283017 -24.125 12.6875 C-27 15 -27 15 -29.875 15.3125 C-30.926875 15.1578125 -30.926875 15.1578125 -32 15 C-31.34 14.67 -30.68 14.34 -30 14 C-29.67 13.01 -29.34 12.02 -29 11 C-28.01 11 -27.02 11 -26 11 C-26 10.01 -26 9.02 -26 8 C-15.62642369 2.25968109 -15.62642369 2.25968109 -10 3 C-10 2.34 -10 1.68 -10 1 C-6.78548731 -0.60725635 -3.56387464 -0.05748185 0 0 Z " fill="#C3C2C2" transform="translate(693,602)"/>
<path d="M0 0 C-0.75 2.9375 -0.75 2.9375 -2 6 C-3.8125 6.5625 -3.8125 6.5625 -6 7 C-7.2065625 8.2375 -7.2065625 8.2375 -8.4375 9.5 C-11.12123322 12.11827631 -12.3480039 12.68697176 -16 13 C-16.33 14.32 -16.66 15.64 -17 17 C-17.66 17 -18.32 17 -19 17 C-19.66 18.32 -20.32 19.64 -21 21 C-21.99 20.34 -22.98 19.68 -24 19 C-22.625 17.5 -22.625 17.5 -21 16 C-20.34 16 -19.68 16 -19 16 C-18.731875 15.360625 -18.46375 14.72125 -18.1875 14.0625 C-17 12 -17 12 -14 11 C-12.38229612 9.24327469 -10.95965071 7.38527709 -9.5 5.49609375 C-8 4 -8 4 -5 4 C-5 3.34 -5 2.68 -5 2 C-2 0 -2 0 0 0 Z " fill="#ADACAC" transform="translate(428,147)"/>
<path d="M0 0 C0 4.26861765 -1.65525557 6.48288335 -4 10 C-4.66 9.67 -5.32 9.34 -6 9 C-6.0825 9.721875 -6.165 10.44375 -6.25 11.1875 C-7.15713831 14.58926868 -8.60010879 16.45466084 -11 19 C-11.66 19 -12.32 19 -13 19 C-13.66 20.32 -14.32 21.64 -15 23 C-15.66 23 -16.32 23 -17 23 C-17 23.66 -17 24.32 -17 25 C-17.66 24.67 -18.32 24.34 -19 24 C-17.625 21.5 -17.625 21.5 -16 19 C-15.34 19 -14.68 19 -14 19 C-13.76152344 18.27941406 -13.52304687 17.55882812 -13.27734375 16.81640625 C-11.80706163 13.57459155 -9.99771895 11.52467021 -7.5625 8.9375 C-4.86519945 6.0535658 -2.30487637 3.20904009 0 0 Z " fill="#C8C7C8" transform="translate(403,167)"/>
<path d="M0 0 C0.33 0 0.66 0 1 0 C1.37254987 6.83008098 0.40092181 13.07457011 -0.86474609 19.75512695 C-1.58203899 23.55392023 -2.17200572 27.26205822 -2.4375 31.125 C-3.10282664 35.70836127 -4.47546774 38.17248334 -7 42 C-8.07812403 38.76608053 -7.92669022 37.06331829 -6.6953125 33.91015625 C-4.86697427 28.82762556 -3.83554771 23.74356554 -2.875 18.4375 C-2.70613281 17.54353516 -2.53726563 16.64957031 -2.36328125 15.72851562 C-1.39155776 10.49880694 -0.60431358 5.28466059 0 0 Z " fill="#7A797A" transform="translate(740,308)"/>
<path d="M0 0 C0.33 1.32 0.66 2.64 1 4 C-0.093125 4.0825 -1.18625 4.165 -2.3125 4.25 C-6.48885896 5.09942894 -6.74942826 5.67772743 -9 9 C-11.66666667 9 -14.33333333 9 -17 9 C-17 9.66 -17 10.32 -17 11 C-16.34 11.33 -15.68 11.66 -15 12 C-16.45505358 12.52992692 -17.91418127 13.0486789 -19.375 13.5625 C-20.59316406 13.99755859 -20.59316406 13.99755859 -21.8359375 14.44140625 C-24 15 -24 15 -26 14 C-20.43312416 9.77994896 -14.7416044 6.17684258 -8.5 3.0625 C-7.88882324 2.75626709 -7.27764648 2.45003418 -6.64794922 2.13452148 C-2.27092241 0 -2.27092241 0 0 0 Z " fill="#B5B5B4" transform="translate(454,132)"/>
<path d="M0 0 C0.66666667 2 1.33333333 4 2 6 C2.350625 6.721875 2.70125 7.44375 3.0625 8.1875 C3.94898208 10.84694623 4.07541851 12.38479426 4 15.125 C3.64175612 19.0635594 3.64175612 19.0635594 6 22 C6.66 22 7.32 22 8 22 C7.67 23.98 7.34 25.96 7 28 C0.821377 22.40981728 -0.67435873 15.44635018 -1.15625 7.38671875 C-1.18341899 5.25734881 -1.10129204 3.12713291 -1 1 C-0.67 0.67 -0.34 0.34 0 0 Z " fill="#D3D4D4" transform="translate(644,673)"/>
<path d="M0 0 C0.33 0.99 0.66 1.98 1 3 C1.99 3.33 2.98 3.66 4 4 C3.96744792 5.88802083 3.93489583 7.77604167 3.90234375 9.6640625 C3.95085118 12.08607229 3.95085118 12.08607229 4.49780273 14.77587891 C4.98211572 17.88518241 5.12924648 20.77868514 5.1328125 23.921875 C5.13474609 25.58476562 5.13474609 25.58476562 5.13671875 27.28125 C5.13285156 28.4259375 5.12898437 29.570625 5.125 30.75 C5.12886719 31.87921875 5.13273438 33.0084375 5.13671875 34.171875 C5.12899705 40.84342459 4.82442573 47.37830271 4 54 C3.67 54 3.34 54 3 54 C3.01047363 53.04335449 3.02094727 52.08670898 3.03173828 51.10107422 C3.06850324 47.4816476 3.0911013 43.86223669 3.10986328 40.24267578 C3.11979437 38.68926195 3.13334379 37.13586614 3.15087891 35.58251953 C3.261735 25.49461515 2.75085323 15.96230655 1 6 C0.6662464 4.00007009 0.33278699 2.00009098 0 0 Z " fill="#5D5D5E" transform="translate(628,251)"/>
<path d="M0 0 C0.33 1.32 0.66 2.64 1 4 C0.01 4.33 -0.98 4.66 -2 5 C-1.67 5.99 -1.34 6.98 -1 8 C-3.97294782 13.83800641 -8.21039673 17.22099043 -14 20 C-12.65686815 16.21908383 -10.97035316 13.34348084 -8.5 10.1875 C-7.8915625 9.39730469 -7.283125 8.60710937 -6.65625 7.79296875 C-5.83640625 6.90544922 -5.83640625 6.90544922 -5 6 C-4.34 6 -3.68 6 -3 6 C-2.690625 5.195625 -2.38125 4.39125 -2.0625 3.5625 C-1 1 -1 1 0 0 Z " fill="#BFC0C0" transform="translate(614,346)"/>
<path d="M0 0 C0.33 0 0.66 0 1 0 C1.02721176 1.89575251 1.04649136 3.79161979 1.0625 5.6875 C1.07410156 6.74324219 1.08570313 7.79898438 1.09765625 8.88671875 C1.00865425 11.72410262 0.64939838 14.2438919 0 17 C-1.54078615 14.01559439 -2.86973276 10.98992242 -4.125 7.875 C-4.47820313 7.00617188 -4.83140625 6.13734375 -5.1953125 5.2421875 C-6 3 -6 3 -6 1 C-4.7934375 1.0309375 -4.7934375 1.0309375 -3.5625 1.0625 C-1.06645115 1.29633621 -1.06645115 1.29633621 0 0 Z " fill="#E5E5E5" transform="translate(629,234)"/>
<path d="M0 0 C0.66 0.33 1.32 0.66 2 1 C0.19489116 3.09012603 -1.0025331 4.00096499 -3.625 5 C-4.40875 5.33 -5.1925 5.66 -6 6 C-6.33 6.99 -6.66 7.98 -7 9 C-8.9609375 9.80078125 -8.9609375 9.80078125 -11.375 10.3125 C-12.16648437 10.49425781 -12.95796875 10.67601562 -13.7734375 10.86328125 C-16 11 -16 11 -19 9 C-17.27149655 8.20688633 -15.54216646 7.4155741 -13.8125 6.625 C-12.36810547 5.96371094 -12.36810547 5.96371094 -10.89453125 5.2890625 C-9.05617198 4.47035999 -7.20016413 3.6894068 -5.32421875 2.9609375 C-2.79343919 2.00291498 -2.79343919 2.00291498 0 0 Z " fill="#B9B9B8" transform="translate(834,947)"/>
<path d="M0 0 C0.33 0 0.66 0 1 0 C-0.18922189 12.48682984 -3.23800442 22.87338785 -9 34 C-9.66 34 -10.32 34 -11 34 C-9.63667675 29.66867637 -7.9559738 25.62420757 -6.0625 21.5 C-2.98592899 14.44419656 -1.31713418 7.60240604 0 0 Z " fill="#929293" transform="translate(630,305)"/>
<path d="M0 0 C2.625 0.375 2.625 0.375 5 1 C5 3.64 5 6.28 5 9 C3.02 9.33 1.04 9.66 -1 10 C-1.9765625 3.9453125 -1.9765625 3.9453125 -2 2 C-1.34 1.34 -0.68 0.68 0 0 Z " fill="#F2F2F3" transform="translate(827,536)"/>
<path d="M0 0 C0.33 0 0.66 0 1 0 C1 10.23 1 20.46 1 31 C1.66 31 2.32 31 3 31 C3 34.3 3 37.6 3 41 C2.67 41 2.34 41 2 41 C0.4658621 35.56416189 -0.28123984 30.66500093 -0.1953125 25 C-0.1924826 24.2788501 -0.18965271 23.5577002 -0.18673706 22.81469727 C-0.17566696 20.54295253 -0.15058895 18.27162273 -0.125 16 C-0.1149531 14.44662033 -0.10583027 12.8932344 -0.09765625 11.33984375 C-0.07577111 7.55973938 -0.04133514 3.77993968 0 0 Z " fill="#929393" transform="translate(357,270)"/>
<path d="M0 0 C1.54561243 4.83843892 0.63394307 9.27099169 -1 14 C-3.625 16.625 -3.625 16.625 -6 18 C-4.95518663 11.29119838 -3.30199356 5.9435884 0 0 Z " fill="#D4D4D5" transform="translate(735,344)"/>
<path d="M0 0 C1.57554035 2.88628401 2.46276373 5.53342384 3.125 8.75 C3.29257812 9.54921875 3.46015625 10.3484375 3.6328125 11.171875 C3.81457031 12.07679688 3.81457031 12.07679688 4 13 C3.01 13.33 2.02 13.66 1 14 C0.30314502 12.3789897 -0.38222861 10.75303934 -1.0625 9.125 C-1.44535156 8.22007812 -1.82820313 7.31515625 -2.22265625 6.3828125 C-3 4 -3 4 -2 2 C-1.34 1.34 -0.68 0.68 0 0 Z " fill="#E6E7E6" transform="translate(374,347)"/>
<path d="M0 0 C1.19398095 4.37135174 1.8374624 8.50335505 1 13 C-0.68564927 15.69310729 -2.67365508 17.84674622 -5 20 C-5.61328125 18.1640625 -5.61328125 18.1640625 -6 16 C-5.03804556 14.60682461 -4.06991695 13.21713764 -3.05859375 11.859375 C-1.00333324 8.24939712 -0.61028153 4.0631902 0 0 Z " fill="#ABACAB" transform="translate(885,879)"/>
<path d="M0 0 C1.21236328 0.01353516 1.21236328 0.01353516 2.44921875 0.02734375 C3.37154297 0.04474609 3.37154297 0.04474609 4.3125 0.0625 C3.6009375 0.7121875 3.6009375 0.7121875 2.875 1.375 C1.07563043 3.08559613 1.07563043 3.08559613 0.3125 6.0625 C-1.3375 5.7325 -2.9875 5.4025 -4.6875 5.0625 C-4.6875 4.0725 -4.6875 3.0825 -4.6875 2.0625 C-6.6675 2.3925 -8.6475 2.7225 -10.6875 3.0625 C-6.91890928 0.55010618 -4.42510751 -0.06413199 0 0 Z " fill="#BFC0C1" transform="translate(485.6875,121.9375)"/>
<path d="M0 0 C0.99 0.33 1.98 0.66 3 1 C2.01 5.29 1.02 9.58 0 14 C-0.99 13.67 -1.98 13.34 -3 13 C-3.33 13.66 -3.66 14.32 -4 15 C-2.07289294 4.44191344 -2.07289294 4.44191344 0 0 Z " fill="#BCBCBC" transform="translate(367,224)"/>
<path d="M0 0 C15.74487472 0.77904328 15.74487472 0.77904328 23 3 C23 3.33 23 3.66 23 4 C22.29875 3.9278125 21.5975 3.855625 20.875 3.78125 C16.4261135 3.34603284 12.03573053 2.9323519 7.5625 3 C4.7336686 3 2.64943257 2.88314419 0 2 C0 1.34 0 0.68 0 0 Z " fill="#C5C4C5" transform="translate(536,120)"/>
<path d="M0 0 C6.0546875 -0.1953125 6.0546875 -0.1953125 8 0 C10 2 10 2 10 5 C7.03 4.67 4.06 4.34 1 4 C0.67 2.68 0.34 1.36 0 0 Z " fill="#F3F4F4" transform="translate(800,891)"/>
<path d="M0 0 C0.66 0.66 1.32 1.32 2 2 C2.66 1.34 3.32 0.68 4 0 C4.09945415 6.11090483 4.0712828 11.97403427 3 18 C2.67 18 2.34 18 2 18 C1.34 12.06 0.68 6.12 0 0 Z " fill="#D7D8D8" transform="translate(888,453)"/>
<path d="M0 0 C0.33 0.66 0.66 1.32 1 2 C0.34 2 -0.32 2 -1 2 C-1.33644531 2.82757813 -1.33644531 2.82757813 -1.6796875 3.671875 C-3.40385183 6.71211744 -5.62515822 8.81425673 -8.125 11.25 C-9.03507812 12.14203125 -9.94515625 13.0340625 -10.8828125 13.953125 C-11.58148438 14.62859375 -12.28015625 15.3040625 -13 16 C-13.66 15.67 -14.32 15.34 -15 15 C-12.2239921 11.40147125 -9.34645017 8.08225674 -6 5 C-5.34 5 -4.68 5 -4 5 C-4 4.34 -4 3.68 -4 3 C-3.34 3 -2.68 3 -2 3 C-2 2.34 -2 1.68 -2 1 C-1.34 0.67 -0.68 0.34 0 0 Z " fill="#353535" transform="translate(370,115)"/>
<path d="M0 0 C2.60607392 0.61778047 5.20965697 1.24387211 7.8125 1.875 C8.55048828 2.04902344 9.28847656 2.22304688 10.04882812 2.40234375 C13.49717037 3.24492511 16.01928362 4.01285575 19 6 C14.50273754 7.04587499 12.12385789 7.06192895 8 5 C7.31035156 4.66097656 6.62070313 4.32195313 5.91015625 3.97265625 C3.93250574 2.9959958 1.96393087 2.00389518 0 1 C0 0.67 0 0.34 0 0 Z " fill="#9B9B9B" transform="translate(140,955)"/>
<path d="M0 0 C-0.75 2.9375 -0.75 2.9375 -2 6 C-3.9375 6.6875 -3.9375 6.6875 -6 7 C-7.73026102 8.47890069 -7.73026102 8.47890069 -9 10 C-9.66 9.67 -10.32 9.34 -11 9 C-9.6875 6.5 -9.6875 6.5 -8 4 C-7.01 4 -6.02 4 -5 4 C-5 3.34 -5 2.68 -5 2 C-2 0 -2 0 0 0 Z " fill="#DCDCDB" transform="translate(428,147)"/>
<path d="M0 0 C0.33 1.32 0.66 2.64 1 4 C-0.98 4.99 -0.98 4.99 -3 6 C-3 7.65 -3 9.3 -3 11 C-6 11 -6 11 -8 10 C-7.04367001 8.70684939 -6.08486149 7.41553147 -5.125 6.125 C-4.59132813 5.40570312 -4.05765625 4.68640625 -3.5078125 3.9453125 C-2 2 -2 2 0 0 Z " fill="#AAA9AA" transform="translate(660,617)"/>
<path d="M0 0 C3.36591427 2.72478774 4.44226276 6.06856792 6 10 C6.66 10 7.32 10 8 10 C7.67 11.98 7.34 13.96 7 16 C1.76685011 11.26524534 0.57687424 6.80711608 0 0 Z " fill="#A6A7A7" transform="translate(644,685)"/>
<path d="M0 0 C2.475 0.495 2.475 0.495 5 1 C5 1.66 5 2.32 5 3 C4.34 3 3.68 3 3 3 C3 4.32 3 5.64 3 7 C3.66 7 4.32 7 5 7 C4.67 7.99 4.34 8.98 4 10 C3.01 9.67 2.02 9.34 1 9 C0.67 6.03 0.34 3.06 0 0 Z " fill="#F5F6F5" transform="translate(814,878)"/>
<path d="M0 0 C0.66 0.33 1.32 0.66 2 1 C-0.64901491 4.7282432 -2.53252552 6.80140929 -7 8 C-9.8125 8.125 -9.8125 8.125 -12 8 C-9.55190198 6.04152158 -7.03728574 4.41119608 -4.3125 2.875 C-1.24346085 1.33247584 -1.24346085 1.33247584 0 0 Z " fill="#B5B4B4" transform="translate(735,691)"/>
<path d="M0 0 C-0.625 1.9375 -0.625 1.9375 -2 4 C-6.24986926 5.25564319 -9.70682182 4.91996675 -14 4 C-9.8890341 1.60193656 -4.7653956 0 0 0 Z " fill="#AFAFAF" transform="translate(815,957)"/>
<path d="M0 0 C0 0.33 0 0.66 0 1 C-1.98 1 -3.96 1 -6 1 C-6.33 1.99 -6.66 2.98 -7 4 C-10.96 4.66 -14.92 5.32 -19 6 C-16 3 -16 3 -12.8125 2.8125 C-11.4203125 2.9053125 -11.4203125 2.9053125 -10 3 C-10 2.34 -10 1.68 -10 1 C-6.78548731 -0.60725635 -3.56387464 -0.05748185 0 0 Z " fill="#989798" transform="translate(693,602)"/>
<path d="M0 0 C0.33 1.32 0.66 2.64 1 4 C1.99 3.67 2.98 3.34 4 3 C4.66 3.33 5.32 3.66 6 4 C6 4.66 6 5.32 6 6 C2.7 6 -0.6 6 -4 6 C-2 2 -2 2 0 0 Z " fill="#EAEAEA" transform="translate(733,358)"/>
<path d="M0 0 C1.18613892 0.00785522 1.18613892 0.00785522 2.39624023 0.01586914 C3.67724609 0.02070313 3.67724609 0.02070313 4.98413086 0.02563477 C5.88196289 0.03401367 6.77979492 0.04239258 7.70483398 0.05102539 C8.6065332 0.05553711 9.50823242 0.06004883 10.43725586 0.06469727 C12.67234712 0.07652315 14.90730835 0.09300319 17.14233398 0.11352539 C15.14233398 2.11352539 15.14233398 2.11352539 13.22436523 2.27368164 C12.47541992 2.24145508 11.72647461 2.20922852 10.95483398 2.17602539 C7.84351081 2.09071492 5.32361537 2.24348073 2.20483398 2.73852539 C1.19420898 2.86227539 0.18358398 2.98602539 -0.85766602 3.11352539 C-1.51766602 2.45352539 -2.17766602 1.79352539 -2.85766602 1.11352539 C-1.85766602 0.11352539 -1.85766602 0.11352539 0 0 Z " fill="#DEDEDE" transform="translate(235.857666015625,271.886474609375)"/>
<path d="M0 0 C0.66 0 1.32 0 2 0 C3 3 3 3 2.00390625 5.48046875 C1.52824219 6.37378906 1.05257812 7.26710938 0.5625 8.1875 C0.08941406 9.08855469 -0.38367188 9.98960937 -0.87109375 10.91796875 C-1.24363281 11.60503906 -1.61617187 12.29210937 -2 13 C-3.18771723 9.57056481 -2.80226223 7.62215325 -1.5625 4.25 C-1.27503906 3.45078125 -0.98757813 2.6515625 -0.69140625 1.828125 C-0.46324219 1.22484375 -0.23507812 0.6215625 0 0 Z " fill="#908F90" transform="translate(735,337)"/>
<path d="M0 0 C0.66 0.33 1.32 0.66 2 1 C1.01 1.33 0.02 1.66 -1 2 C-1 2.66 -1 3.32 -1 4 C-0.34 4.33 0.32 4.66 1 5 C-0.45505358 5.52992692 -1.91418127 6.0486789 -3.375 6.5625 C-4.59316406 6.99755859 -4.59316406 6.99755859 -5.8359375 7.44140625 C-8 8 -8 8 -10 7 C-6.7 4.69 -3.4 2.38 0 0 Z " fill="#A3A2A2" transform="translate(438,139)"/>
<path d="M0 0 C0 2.95274099 -0.43891831 4.49058403 -1.5 7.1875 C-1.7784375 7.90292969 -2.056875 8.61835938 -2.34375 9.35546875 C-2.5603125 9.89816406 -2.776875 10.44085938 -3 11 C-3.66 11 -4.32 11 -5 11 C-5.33 11.99 -5.66 12.98 -6 14 C-6.33 13.34 -6.66 12.68 -7 12 C-6.07421875 9.6875 -6.07421875 9.6875 -4.6875 7 C-4.23761719 6.113125 -3.78773438 5.22625 -3.32421875 4.3125 C-2 2 -2 2 0 0 Z " fill="#898888" transform="translate(139,298)"/>
<path d="M0 0 C1.21236328 0.01353516 1.21236328 0.01353516 2.44921875 0.02734375 C3.37154297 0.04474609 3.37154297 0.04474609 4.3125 0.0625 C4.6425 1.0525 4.9725 2.0425 5.3125 3.0625 C3.89706585 3.25908808 2.48005969 3.44437546 1.0625 3.625 C0.27359375 3.72941406 -0.5153125 3.83382812 -1.328125 3.94140625 C-3.69282874 4.06277349 -5.4386037 3.75883257 -7.6875 3.0625 C-7.6875 2.4025 -7.6875 1.7425 -7.6875 1.0625 C-4.80538698 0.10179566 -2.98899956 -0.04331883 0 0 Z " fill="#E9E8E9" transform="translate(493.6875,126.9375)"/>
<path d="M0 0 C5.94 0.66 11.88 1.32 18 2 C18 2.33 18 2.66 18 3 C15.37493198 3.02690844 12.75013827 3.04679404 10.125 3.0625 C9.37863281 3.07087891 8.63226563 3.07925781 7.86328125 3.08789062 C2.2265625 3.11328125 2.2265625 3.11328125 0 2 C0 1.34 0 0.68 0 0 Z " fill="#ADADAD" transform="translate(160,961)"/>
<path d="M0 0 C3 2 3 2 3.51171875 4.1640625 C3.56972656 4.97617187 3.62773438 5.78828125 3.6875 6.625 C3.75324219 7.44226563 3.81898438 8.25953125 3.88671875 9.1015625 C3.92410156 9.72804688 3.96148438 10.35453125 4 11 C2.68 10.34 1.36 9.68 0 9 C0 6.03 0 3.06 0 0 Z " fill="#BDBCBC" transform="translate(827,454)"/>
<path d="M0 0 C0.33 0.66 0.66 1.32 1 2 C1.66 2 2.32 2 3 2 C3.66 2.66 4.32 3.32 5 4 C5.33 4 5.66 4 6 4 C6 5.65 6 7.3 6 9 C5.01 9.33 4.02 9.66 3 10 C0 3.375 0 3.375 0 0 Z " fill="#E5E5E4" transform="translate(882,430)"/>
<path d="M0 0 C0.66 0.33 1.32 0.66 2 1 C1.67 4.96 1.34 8.92 1 13 C0.01 13.33 -0.98 13.66 -2 14 C-1.85866501 12.22880197 -1.71176792 10.45804713 -1.5625 8.6875 C-1.48128906 7.70136719 -1.40007812 6.71523438 -1.31640625 5.69921875 C-1 3 -1 3 0 0 Z " fill="#DBDBDB" transform="translate(130,318)"/>
<path d="M0 0 C2 1 2 1 3.125 3.9375 C4.363999 8.58374625 4.17279393 13.22896766 4 18 C3.67 18 3.34 18 3 18 C2.49779928 15.3754034 1.99814643 12.75036631 1.5 10.125 C1.35691406 9.37863281 1.21382812 8.63226563 1.06640625 7.86328125 C0 2.2265625 0 2.2265625 0 0 Z " fill="#A6A8A7" transform="translate(735,225)"/>
<path d="M0 0 C0.33 0.66 0.66 1.32 1 2 C1.99 2 2.98 2 4 2 C4 5.96 4 9.92 4 14 C1.8553857 11.8553857 1.55435397 10.98260002 0.875 8.125 C0.70742188 7.44695312 0.53984375 6.76890625 0.3671875 6.0703125 C0 4 0 4 0 0 Z " fill="#A3A3A3" transform="translate(731,211)"/>
<path d="M0 0 C0 4.26861765 -1.65525557 6.48288335 -4 10 C-4.66 9.67 -5.32 9.34 -6 9 C-6 9.66 -6 10.32 -6 11 C-6.66 11 -7.32 11 -8 11 C-6.63629701 8.00779732 -5.05091917 5.70973471 -2.875 3.25 C-2.33617187 2.63640625 -1.79734375 2.0228125 -1.2421875 1.390625 C-0.62730469 0.70226562 -0.62730469 0.70226562 0 0 Z " fill="#A5A4A4" transform="translate(403,167)"/>
<path d="M0 0 C0.33 0.66 0.66 1.32 1 2 C3.01669827 3.13350534 3.01669827 3.13350534 5 4 C2.37684968 5.31157516 0.76966564 4.89649988 -2.125 4.5625 C-3.03507812 4.46066406 -3.94515625 4.35882813 -4.8828125 4.25390625 C-5.58148438 4.17011719 -6.28015625 4.08632812 -7 4 C-7 3.34 -7 2.68 -7 2 C-4.69 1.34 -2.38 0.68 0 0 Z " fill="#E3E3E2" transform="translate(444,139)"/>
<path d="M0 0 C-0.33 1.32 -0.66 2.64 -1 4 C-9.03571429 5.20535714 -9.03571429 5.20535714 -13 4 C-11.2097939 3.32942113 -9.41778511 2.6636531 -7.625 2 C-6.62726563 1.62875 -5.62953125 1.2575 -4.6015625 0.875 C-2 0 -2 0 0 0 Z " fill="#B0AFAF" transform="translate(467,127)"/>
<path d="M0 0 C5.06892183 1.86749751 10.05110469 3.8348583 15 6 C13.1875 7.0625 13.1875 7.0625 11 8 C8 7 8 7 6 4 C2.94570927 2.78715124 2.94570927 2.78715124 0 2 C0 1.34 0 0.68 0 0 Z " fill="#BEBDBD" transform="translate(646,774)"/>
<path d="M0 0 C1.32 0.33 2.64 0.66 4 1 C4.33 2.98 4.66 4.96 5 7 C5.99 7.33 6.98 7.66 8 8 C8 9.65 8 11.3 8 13 C4.48901975 8.98745115 2.23462006 4.79016959 0 0 Z " fill="#BFBFBF" transform="translate(705,157)"/>
<path d="M0 0 C1.32 0.33 2.64 0.66 4 1 C4 2.32 4 3.64 4 5 C1.69 5 -0.62 5 -3 5 C-3 4.01 -3 3.02 -3 2 C-2.01 1.67 -1.02 1.34 0 1 C0 0.67 0 0.34 0 0 Z " fill="#E7E8E8" transform="translate(836,952)"/>
<path d="M0 0 C1.65 1.65 3.3 3.3 5 5 C4.01 5.495 4.01 5.495 3 6 C2.67 6.66 2.34 7.32 2 8 C2 7.34 2 6.68 2 6 C0.68 5.67 -0.64 5.34 -2 5 C-1.34 3.35 -0.68 1.7 0 0 Z " fill="#DBDCDC" transform="translate(606,737)"/>
<path d="M0 0 C-1 2 -1 2 -2.99609375 2.66796875 C-3.80175781 2.83941406 -4.60742188 3.01085937 -5.4375 3.1875 C-6.24058594 3.36667969 -7.04367187 3.54585938 -7.87109375 3.73046875 C-10 4 -10 4 -12 3 C-12 2.34 -12 1.68 -12 1 C-7.93631321 0.22596442 -4.13574827 -0.0984702 0 0 Z " fill="#D8D8D9" transform="translate(503,120)"/>
<path d="M0 0 C0.33 1.32 0.66 2.64 1 4 C-0.43359375 6.140625 -0.43359375 6.140625 -2.4375 8.25 C-3.09621094 8.95640625 -3.75492188 9.6628125 -4.43359375 10.390625 C-5.20896484 11.18726563 -5.20896484 11.18726563 -6 12 C-6.66 11.67 -7.32 11.34 -8 11 C-5.36 7.37 -2.72 3.74 0 0 Z " fill="#A0A0A1" transform="translate(870,913)"/>
<path d="M0 0 C7.75 0.75 7.75 0.75 10 3 C6.33694766 3.74926071 3.57644848 4.2380014 0 3 C0 2.01 0 1.02 0 0 Z " fill="#B1B1B1" transform="translate(671,784)"/>
<path d="M0 0 C1.98 1.65 3.96 3.3 6 5 C5.01 5.33 4.02 5.66 3 6 C2.67 6.99 2.34 7.98 2 9 C-0.29013653 5.5647952 -0.17842973 4.014669 0 0 Z " fill="#D8D7D6" transform="translate(638,171)"/>
<path d="M0 0 C0.33 0 0.66 0 1 0 C1 2.97 1 5.94 1 9 C-0.98 9.99 -0.98 9.99 -3 11 C-2.32829194 7.1936543 -1.27253436 3.64793184 0 0 Z " fill="#9A9A9B" transform="translate(647,635)"/>
<path d="M0 0 C0.33 0.99 0.66 1.98 1 3 C-1.3125 6.1875 -1.3125 6.1875 -4 9 C-4.66 9 -5.32 9 -6 9 C-5.34 7.35 -4.68 5.7 -4 4 C-3.34 4 -2.68 4 -2 4 C-1.34 2.68 -0.68 1.36 0 0 Z " fill="#E0E0DF" transform="translate(144,294)"/>
<path d="M0 0 C0.99 0.33 1.98 0.66 3 1 C3 3.31 3 5.62 3 8 C2.01 7.67 1.02 7.34 0 7 C0 4.69 0 2.38 0 0 Z " fill="#ECECEC" transform="translate(365,258)"/>
<path d="M0 0 C0.66 0.33 1.32 0.66 2 1 C-0.35468455 3.72647685 -2.5408417 4.98756342 -6 6 C-8.3125 5.625 -8.3125 5.625 -10 5 C-8.27473958 4.28385417 -6.54947917 3.56770833 -4.82421875 2.8515625 C-2.73466068 1.93193308 -2.73466068 1.93193308 0 0 Z " fill="#9E9D9D" transform="translate(834,947)"/>
<path d="M0 0 C0.66 0.33 1.32 0.66 2 1 C1.67 2.32 1.34 3.64 1 5 C-1.64 5.33 -4.28 5.66 -7 6 C-6.67 5.34 -6.34 4.68 -6 4 C-5.01 4 -4.02 4 -3 4 C-3 3.34 -3 2.68 -3 2 C-2.01 1.34 -1.02 0.68 0 0 Z " fill="#A6A5A5" transform="translate(843,941)"/>
<path d="M0 0 C0.99 0.33 1.98 0.66 3 1 C3.6875 3.0625 3.6875 3.0625 4 5 C2.35 5.33 0.7 5.66 -1 6 C-0.67 4.02 -0.34 2.04 0 0 Z " fill="#F0F0F1" transform="translate(618,754)"/>
<path d="M0 0 C0.66 0.33 1.32 0.66 2 1 C1.04882866 2.1725131 0.08882991 3.33787015 -0.875 4.5 C-1.40867187 5.1496875 -1.94234375 5.799375 -2.4921875 6.46875 C-2.98976563 6.9740625 -3.48734375 7.479375 -4 8 C-4.66 8 -5.32 8 -6 8 C-4.55746343 4.63408134 -2.66735273 2.48952921 0 0 Z " fill="#434344" transform="translate(695,641)"/>
<path d="M0 0 C0 3.34419152 -0.47519394 4.06840321 -2.375 6.6875 C-2.81585938 7.31011719 -3.25671875 7.93273437 -3.7109375 8.57421875 C-4.13632813 9.04472656 -4.56171875 9.51523437 -5 10 C-5.66 10 -6.32 10 -7 10 C-5.6062718 5.56541027 -3.39417765 3.12621626 0 0 Z " fill="#9C9B9C" transform="translate(147,288)"/>
<path d="M0 0 C0.99 0.33 1.98 0.66 3 1 C3.625 3.875 3.625 3.875 4 7 C3.34 7.66 2.68 8.32 2 9 C2 8.01 2 7.02 2 6 C1.34 6 0.68 6 0 6 C0 4.02 0 2.04 0 0 Z " fill="#DADBDA" transform="translate(885,883)"/>
<path d="M0 0 C2 1.1875 2 1.1875 4 3 C4.25 5.6875 4.25 5.6875 4 8 C1.525 7.01 1.525 7.01 -1 6 C-0.34 5.67 0.32 5.34 1 5 C0.67 3.35 0.34 1.7 0 0 Z " fill="#DFDFDE" transform="translate(817,439)"/>
<path d="M0 0 C0.66 0 1.32 0 2 0 C2.33 1.65 2.66 3.3 3 5 C1.68 5.33 0.36 5.66 -1 6 C-1.33 5.01 -1.66 4.02 -2 3 C-1.34 2.01 -0.68 1.02 0 0 Z " fill="#F2F3F2" transform="translate(815,439)"/>
<path d="M0 0 C4.29 0.66 8.58 1.32 13 2 C13 2.33 13 2.66 13 3 C8.71 3 4.42 3 0 3 C0 2.01 0 1.02 0 0 Z " fill="#BCBCBB" transform="translate(131,420)"/>
<path d="M0 0 C0.66 0 1.32 0 2 0 C1.6875 1.9375 1.6875 1.9375 1 4 C0.01 4.33 -0.98 4.66 -2 5 C-3.20882096 7.00016466 -3.20882096 7.00016466 -4 9 C-4.66 8.67 -5.32 8.34 -6 8 C-5.04956626 6.66102417 -4.08940853 5.32894573 -3.125 4 C-2.59132813 3.2575 -2.05765625 2.515 -1.5078125 1.75 C-1.01023437 1.1725 -0.51265625 0.595 0 0 Z " fill="#999897" transform="translate(609,352)"/>
<path d="M0 0 C0.33 0 0.66 0 1 0 C0.67 3.3 0.34 6.6 0 10 C-1.9451 7.08235 -2.45276317 5.37462715 -3 2 C-2.34 2 -1.68 2 -1 2 C-0.67 1.34 -0.34 0.68 0 0 Z " fill="#D7D8D8" transform="translate(374,347)"/>
<path d="M0 0 C0.33 1.32 0.66 2.64 1 4 C-1.64 4 -4.28 4 -7 4 C-4.82575883 1.49962266 -3.26954202 0.56371414 0 0 Z " fill="#DDDEDE" transform="translate(608,362)"/>
<path d="M0 0 C0.33 0 0.66 0 1 0 C1 2.31 1 4.62 1 7 C0.01 7 -0.98 7 -2 7 C-2.33 6.34 -2.66 5.68 -3 5 C-1.625 2.375 -1.625 2.375 0 0 Z " fill="#A4A3A2" transform="translate(618,339)"/>
<path d="M0 0 C0.6875 1.625 0.6875 1.625 1 4 C-1.33333333 9.66666667 -1.33333333 9.66666667 -4 11 C-4 9.68 -4 8.36 -4 7 C-3.34 7 -2.68 7 -2 7 C-1.34 4.69 -0.68 2.38 0 0 Z " fill="#D9D9DA" transform="translate(623,332)"/>
<path d="M0 0 C0 2.97 0 5.94 0 9 C-0.99 8.34 -1.98 7.68 -3 7 C-3.1875 3.875 -3.1875 3.875 -3 1 C-1 0 -1 0 0 0 Z " fill="#E8E8E8" transform="translate(641,272)"/>
<path d="M0 0 C0.33 0.99 0.66 1.98 1 3 C-1 6 -1 6 -3.625 6.6875 C-4.800625 6.8421875 -4.800625 6.8421875 -6 7 C-4.02 4.69 -2.04 2.38 0 0 Z " fill="#B0AFAF" transform="translate(861,925)"/>
<path d="M0 0 C0.66 1.32 1.32 2.64 2 4 C1.34 4.66 0.68 5.32 0 6 C-2.125 5.625 -2.125 5.625 -4 5 C-2.68 3.35 -1.36 1.7 0 0 Z " fill="#C8C6C7" transform="translate(741,685)"/>
<path d="M0 0 C0.66 0 1.32 0 2 0 C2 3.3 2 6.6 2 10 C-1 6 -1 6 -0.6875 2.75 C-0.460625 1.8425 -0.23375 0.935 0 0 Z " fill="#E0E0E0" transform="translate(892,627)"/>
<path d="M0 0 C0.99 0 1.98 0 3 0 C3 0.99 3 1.98 3 3 C3.66 3.33 4.32 3.66 5 4 C4.67 4.66 4.34 5.32 4 6 C2.35 5.01 0.7 4.02 -1 3 C-0.67 2.01 -0.34 1.02 0 0 Z " fill="#C7C7C7" transform="translate(136,356)"/>
<path d="M0 0 C-0.33 1.32 -0.66 2.64 -1 4 C-3.31 4.66 -5.62 5.32 -8 6 C-8 5.34 -8 4.68 -8 4 C-7.01 4 -6.02 4 -5 4 C-5 3.34 -5 2.68 -5 2 C-2 0 -2 0 0 0 Z " fill="#A3A3A3" transform="translate(428,147)"/>
<path d="M0 0 C-0.33 1.32 -0.66 2.64 -1 4 C-5 4 -5 4 -7 3 C-4.49955934 -0.00052879 -4.2621484 0 0 0 Z " fill="#CBCBCB" transform="translate(446,137)"/>
<path d="M0 0 C5.94 0.99 5.94 0.99 12 2 C12 2.33 12 2.66 12 3 C8.04 3 4.08 3 0 3 C0 2.01 0 1.02 0 0 Z " fill="#C9C9C8" transform="translate(559,124)"/>
<path d="M0 0 C1.32 0.33 2.64 0.66 4 1 C3.67 2.32 3.34 3.64 3 5 C2.01 5 1.02 5 0 5 C0 3.35 0 1.7 0 0 Z " fill="#F7F7F7" transform="translate(604,742)"/>
<path d="M0 0 C0.66 0 1.32 0 2 0 C2 1.65 2 3.3 2 5 C-1 5 -1 5 -3 4 C-1.625 2 -1.625 2 0 0 Z " fill="#C5C4C4" transform="translate(655,623)"/>
<path d="M0 0 C0.99 0 1.98 0 3 0 C3.33 1.65 3.66 3.3 4 5 C2.35 4.67 0.7 4.34 -1 4 C-0.67 2.68 -0.34 1.36 0 0 Z " fill="#D2D1D0" transform="translate(155,281)"/>
<path d="M0 0 C0.33 1.32 0.66 2.64 1 4 C-0.98 4.99 -0.98 4.99 -3 6 C-3 6.66 -3 7.32 -3 8 C-3.66 7.67 -4.32 7.34 -5 7 C-3.625 4.5 -3.625 4.5 -2 2 C-1.34 2 -0.68 2 0 2 C0 1.34 0 0.68 0 0 Z " fill="#9F9E9E" transform="translate(389,184)"/>
<path d="M0 0 C0 0.66 0 1.32 0 2 C-2.64738916 3.4606285 -3.89448334 4 -7 4 C-7 3.01 -7 2.02 -7 1 C-4.50935112 0.31292445 -2.62113708 0 0 0 Z " fill="#E2E2E2" transform="translate(461,131)"/>
</svg>
